<?xml version="1.0" standalone="no"?>
<!DOCTYPE svg PUBLIC "-//W3C//DTD SVG 20010904//EN"
 "http://www.w3.org/TR/2001/REC-SVG-20010904/DTD/svg10.dtd">
<svg version="1.0" xmlns="http://www.w3.org/2000/svg"
 width="200.000000pt" height="200.000000pt" viewBox="0 0 200.000000 200.000000"
 preserveAspectRatio="xMidYMid meet">

<g transform="translate(0.000000,200.000000) scale(0.100000,-0.100000)"
fill="#000000" stroke="none">
<path d="M1053 1285 c-11 -8 -24 -11 -28 -7 -5 4 -5 -2 -1 -12 5 -16 4 -17 -9
-6 -8 7 -15 8 -15 2 0 -5 -6 -10 -12 -9 -34 1 -48 -4 -48 -18 0 -17 -33 -15
-67 3 -15 8 -22 6 -31 -9 -7 -11 -25 -25 -40 -31 l-27 -11 25 -6 c14 -4 42 -4
62 -1 27 5 38 3 42 -7 4 -10 -1 -12 -19 -9 -24 4 -24 4 -9 -19 15 -22 14 -23
-18 -30 -18 -4 -41 -14 -50 -22 -9 -8 -35 -17 -57 -20 -49 -7 -45 -19 9 -28
22 -4 40 -10 40 -15 0 -4 9 -6 20 -3 14 4 20 0 20 -11 0 -18 16 -22 22 -5 2 6
27 13 56 15 29 2 57 6 62 9 6 4 10 0 10 -7 0 -10 2 -10 8 -1 17 26 30 -2 22
-49 -4 -27 -3 -48 2 -48 4 0 8 11 8 24 0 12 5 37 11 54 9 27 13 30 34 22 16
-6 25 -5 29 3 3 8 8 6 16 -6 6 -9 15 -15 20 -12 19 12 90 17 90 6 0 -14 43 -7
48 8 2 6 -2 18 -8 27 -14 16 -14 16 15 32 19 10 18 11 -10 22 -16 7 -24 14
-17 17 26 10 0 22 -38 17 -42 -5 -40 -6 -44 46 -1 9 -11 15 -28 15 -15 1 -30
4 -34 8 -4 4 0 7 9 7 8 0 17 6 20 13 3 9 7 9 18 1 25 -20 49 -24 42 -8 -3 7
-9 14 -15 14 -5 0 -6 5 -3 10 3 6 1 10 -5 10 -6 0 -8 5 -5 10 6 10 -21 15 -64
11 -13 -1 -27 2 -31 8 -4 7 -13 6 -27 -4z m-53 -64 c0 -5 -9 -7 -20 -4 -11 3
-20 7 -20 9 0 2 9 4 20 4 11 0 20 -4 20 -9z m-15 -140 c3 -5 1 -12 -4 -15 -5
-3 -11 1 -15 9 -6 16 9 21 19 6z"/>
<path d="M527 793 c-11 -10 -8 -61 3 -68 6 -4 10 10 10 34 0 42 -2 46 -13 34z"/>
<path d="M628 793 c7 -3 16 -2 19 1 4 3 -2 6 -13 5 -11 0 -14 -3 -6 -6z"/>
<path d="M678 793 c7 -3 16 -2 19 1 4 3 -2 6 -13 5 -11 0 -14 -3 -6 -6z"/>
<path d="M750 788 c0 -4 7 -8 15 -8 8 0 15 4 15 8 0 5 -7 9 -15 9 -8 0 -15 -4
-15 -9z"/>
<path d="M915 790 c-3 -5 3 -10 15 -10 12 0 18 5 15 10 -3 6 -10 10 -15 10 -5
0 -12 -4 -15 -10z"/>
<path d="M1215 790 c6 -9 -13 -14 -40 -11 -6 0 -11 -8 -12 -20 -1 -14 3 -19
12 -15 7 2 19 -2 25 -10 7 -8 20 -14 29 -13 12 0 11 2 -4 9 -11 5 -15 9 -10 9
6 1 3 5 -4 10 -12 8 -11 13 10 30 20 17 21 20 6 21 -10 0 -15 -4 -12 -10z"/>
<path d="M1319 798 c-5 -12 -5 -70 1 -73 4 -2 7 14 7 35 0 34 -3 48 -8 38z"/>
<path d="M1435 790 c-3 -5 3 -10 15 -10 12 0 18 5 15 10 -3 6 -10 10 -15 10
-5 0 -12 -4 -15 -10z"/>
<path d="M410 786 c0 -2 7 -9 15 -16 12 -10 15 -10 15 4 0 9 -7 16 -15 16 -8
0 -15 -2 -15 -4z"/>
<path d="M644 760 c0 -12 7 -20 16 -20 9 0 16 8 16 20 0 12 -7 20 -16 20 -9 0
-16 -8 -16 -20z"/>
<path d="M994 761 c0 -10 6 -18 13 -18 7 0 13 6 13 13 0 6 -6 14 -13 17 -7 3
-13 -3 -13 -12z"/>
<path d="M1052 751 c2 -32 10 -33 15 -1 1 10 -2 22 -7 25 -6 4 -10 -6 -8 -24z"/>
<path d="M1373 773 c-18 -7 -16 -30 1 -30 8 0 14 9 13 19 -1 10 -1 18 -2 17 0
0 -6 -3 -12 -6z"/>
<path d="M1514 761 c0 -10 6 -18 13 -18 7 0 13 6 13 13 0 6 -6 14 -13 17 -7 3
-13 -3 -13 -12z"/>
<path d="M1570 762 c0 -10 7 -19 14 -19 11 0 13 5 5 19 -5 10 -12 18 -14 18
-3 0 -5 -8 -5 -18z"/>
<path d="M560 760 c-13 -8 -12 -10 3 -10 9 0 17 5 17 10 0 12 -1 12 -20 0z"/>
<path d="M470 740 c0 -13 5 -18 15 -14 12 5 13 10 4 20 -15 19 -19 18 -19 -6z"/>
<path d="M628 723 c7 -3 16 -2 19 1 4 3 -2 6 -13 5 -11 0 -14 -3 -6 -6z"/>
<path d="M678 723 c7 -3 16 -2 19 1 4 3 -2 6 -13 5 -11 0 -14 -3 -6 -6z"/>
</g>
</svg>
