<svg xmlns="http://www.w3.org/2000/svg" width="403" height="403" viewBox="0 0 403 403" version="1.1"><path d="M 174.250 139.149 C 173.563 139.837, 173 141.408, 173 142.641 C 173 143.874, 172.550 145.160, 172 145.500 C 171.450 145.840, 171 146.991, 171 148.059 C 171 150.394, 170.149 150.493, 167.288 148.489 C 165.755 147.415, 164.931 147.303, 164.438 148.101 C 163.985 148.834, 162.051 148.999, 158.872 148.577 C 155.563 148.138, 154 148.290, 154 149.049 C 154 149.664, 153.516 150.005, 152.925 149.808 C 151.117 149.206, 151.759 147.529, 154 147 C 157.743 146.116, 155.649 144.621, 151 144.857 C 147.352 145.043, 145.901 145.720, 143.338 148.433 C 140.534 151.399, 140.119 151.565, 139.681 149.890 C 139.078 147.584, 136 147.360, 136 149.622 C 136 150.906, 135.705 151, 134.589 150.074 C 132.837 148.620, 131.911 149.945, 132.665 152.826 C 133.297 155.243, 134.534 155.661, 135.399 153.750 C 135.710 153.063, 135.852 153.400, 135.714 154.500 C 135.558 155.743, 134.712 156.500, 133.481 156.500 C 132.392 156.500, 130.908 156.883, 130.183 157.350 C 128.126 158.679, 127.531 157.246, 129 154.500 C 130.698 151.327, 129.965 150.629, 125.878 151.527 C 122.773 152.209, 122.708 152.313, 124.557 153.665 C 125.752 154.539, 126.381 155.995, 126.191 157.448 C 126.021 158.746, 126.358 160.104, 126.941 160.464 C 127.523 160.823, 128.007 160.529, 128.015 159.809 C 128.027 158.836, 128.268 158.875, 128.954 159.960 C 129.751 161.219, 130.139 161.184, 131.775 159.703 C 133.585 158.066, 133.727 158.105, 134.836 160.540 C 135.476 161.945, 136 163.785, 136 164.630 C 136 166.971, 133.546 165.654, 133.173 163.113 C 132.908 161.309, 132.574 161.109, 131.423 162.064 C 129.266 163.854, 129.633 167, 132 167 C 134.373 167, 134.684 169.523, 132.418 170.393 C 129.680 171.444, 128.667 171.107, 129.942 169.570 C 130.890 168.428, 130.726 167.924, 129.130 167.070 C 126.510 165.667, 126 165.719, 126 167.389 C 126 168.153, 125.213 168.715, 124.250 168.639 C 123.143 168.551, 122.384 169.325, 122.181 170.750 C 122.005 171.988, 121.442 173, 120.930 173 C 120.419 173, 120 173.675, 120 174.500 C 120 175.400, 119.077 176, 117.691 176 C 114.506 176, 111.710 178.258, 112.141 180.483 C 112.750 183.624, 114.952 183.345, 116.381 179.945 C 117.128 178.169, 117.922 177.266, 118.146 177.938 C 118.767 179.801, 124.082 177.100, 123.756 175.087 C 123.580 173.993, 124.276 173.500, 126 173.500 C 127.660 173.500, 128.463 174.032, 128.389 175.082 C 128.303 176.310, 129.444 175.975, 133.499 173.582 C 136.491 171.816, 138.521 169.966, 138.253 169.250 C 137.996 168.563, 138.523 168, 139.424 168 C 140.326 168, 141.329 167.306, 141.655 166.457 C 142.174 165.104, 142.492 165.135, 144.229 166.707 C 146.156 168.451, 146.201 168.433, 145.855 166.025 C 145.597 164.226, 146.018 163.447, 147.395 163.173 C 149.050 162.845, 149.207 163.222, 148.632 166.149 C 148.269 167.992, 147.079 170.719, 145.986 172.210 C 143.428 175.699, 143.477 176, 146.607 176 C 148.513 176, 149.059 175.597, 148.638 174.500 C 147.809 172.338, 150.613 172.613, 152.919 174.919 C 154.591 176.591, 155.074 176.660, 156.669 175.451 C 159.199 173.534, 160 173.666, 160 176 C 160 177.100, 159.550 178, 159 178 C 158.450 178, 158 178.684, 158 179.519 C 158 180.622, 157.344 180.874, 155.609 180.438 C 154.294 180.108, 152.913 180.332, 152.540 180.935 C 152.167 181.539, 151.436 181.769, 150.915 181.447 C 150.394 181.125, 150.218 180.456, 150.525 179.960 C 151.225 178.826, 147.446 177.902, 143.500 178.242 C 140.719 178.481, 140.525 178.284, 140.848 175.546 C 141.148 173.005, 140.985 172.768, 139.683 173.848 C 138.516 174.816, 138.379 175.836, 139.085 178.296 C 140.467 183.114, 140.224 183.559, 137.574 181.070 C 135.014 178.664, 132.758 179.036, 133.223 181.785 C 133.388 182.756, 132.338 183.988, 130.642 184.816 C 128.163 186.027, 127.974 186.402, 129.214 187.643 C 130.878 189.307, 134.358 188.376, 133.624 186.463 C 133.275 185.553, 134.586 185.085, 138.162 184.842 C 144.437 184.415, 145.344 185.517, 140.029 187.109 C 136.180 188.263, 134.859 190.177, 137 191.500 C 138.846 192.641, 138.024 193.837, 134.621 194.960 C 132.762 195.573, 130.430 196.972, 129.438 198.069 C 127.747 199.937, 127.739 200.168, 129.317 201.745 C 130.641 203.069, 131 203.127, 131 202.014 C 131 200.986, 131.300 200.900, 132.099 201.699 C 133.312 202.912, 132.412 207, 130.933 207 C 130.420 207, 130 206.568, 130 206.040 C 130 205.502, 127.691 205.240, 124.750 205.445 C 121.023 205.704, 119.577 206.200, 119.764 207.155 C 119.921 207.952, 119.461 207.777, 118.635 206.723 C 117.537 205.325, 116.310 205.063, 112.870 205.497 C 106.483 206.301, 103.334 205.382, 103.425 202.740 C 103.468 201.492, 102.808 200.422, 101.879 200.233 C 100.631 199.979, 100.371 200.489, 100.746 202.452 C 101.052 204.052, 100.781 205, 100.018 205 C 99.349 205, 97.212 205.755, 95.267 206.677 C 91.888 208.281, 91.670 208.270, 90.304 206.427 C 88.903 204.537, 88.850 204.536, 87.470 206.397 C 85.837 208.602, 86.316 209.879, 88.770 209.857 C 91.153 209.836, 99.301 212.097, 100.394 213.083 C 101.591 214.161, 99.052 220.189, 97.613 219.686 C 97.001 219.473, 96.533 218.353, 96.574 217.199 C 96.615 216.044, 96.277 215.329, 95.824 215.609 C 95.371 215.889, 95 217.104, 95.001 218.309 C 95.001 220.312, 94.581 220.471, 90.097 220.160 C 85.841 219.865, 85.104 220.097, 84.529 221.910 C 84.164 223.059, 83.269 224, 82.540 224 C 79.321 224, 80.088 230.053, 83.472 231.351 C 85.708 232.209, 87.960 231.059, 87.318 229.387 C 86.976 228.496, 86.041 228.170, 84.882 228.538 C 83.586 228.949, 83 228.647, 83 227.567 C 83 226.705, 83.800 226, 84.778 226 C 86.954 226, 89.415 228.746, 90.703 232.609 C 91.889 236.170, 94.915 237.041, 95.698 234.047 C 96.224 232.035, 96.355 232.011, 98.127 233.615 C 100.336 235.614, 100.543 237, 98.633 237 C 97.881 237, 96.075 238.800, 94.619 241 C 92.993 243.456, 91.198 245, 89.967 245 C 88.368 245, 88.080 245.471, 88.545 247.324 C 88.916 248.799, 88.557 250.123, 87.564 250.947 C 85.204 252.905, 85.658 255, 88.441 255 C 89.784 255, 91.165 255.457, 91.510 256.016 C 91.856 256.575, 92.528 256.792, 93.004 256.497 C 93.481 256.203, 94.012 257.366, 94.185 259.081 L 94.500 262.201 97.222 260.050 L 99.944 257.899 102.930 260.106 C 105.398 261.931, 106.473 262.154, 109.129 261.392 C 112.916 260.306, 113.678 258.821, 111.545 256.688 C 109.325 254.468, 109.635 253.697, 112.524 254.249 C 113.912 254.515, 115.270 254.372, 115.542 253.932 C 115.814 253.492, 117.603 253.386, 119.518 253.697 C 122.555 254.190, 123 253.997, 123 252.190 C 123 251.050, 123.450 249.840, 124 249.500 C 124.594 249.133, 125 250.300, 125 252.374 C 125 256.429, 127.155 257.652, 131.433 256.025 C 135.704 254.402, 136.853 254.733, 136.549 257.500 C 136.196 260.718, 139.417 260.957, 141.087 257.837 L 142.245 255.673 143.952 257.937 C 145.172 259.553, 146.689 260.200, 149.263 260.200 C 153.706 260.200, 155 259.456, 155 256.900 C 155 254.269, 158.967 249, 160.948 249 C 161.812 249, 163.096 249.925, 163.802 251.055 C 164.915 252.837, 164.796 253.345, 162.906 254.875 L 160.726 256.641 164.279 258.737 C 168.329 261.127, 169.847 260.602, 167.252 257.709 C 165.535 255.795, 165.585 255.770, 169.750 256.466 C 172.581 256.939, 174 256.812, 174 256.088 C 174 255.490, 173.395 255, 172.655 255 C 171.282 255, 168 251.919, 168 250.629 C 168 250.237, 169.952 251.060, 172.338 252.458 C 177.542 255.507, 181.563 255.896, 180.533 253.250 C 179.270 250.006, 179.491 249.501, 182.315 249.177 C 185.113 248.857, 190 251.242, 190 252.929 C 190 253.415, 189.120 253.583, 188.045 253.302 C 186.559 252.913, 185.930 253.432, 185.419 255.468 C 184.589 258.776, 186.254 260.864, 188.341 259.132 C 190.436 257.393, 190.825 259.090, 192.040 275.299 C 193.318 292.347, 194.300 296.643, 197.123 297.539 C 201.072 298.793, 201.221 296.865, 198.512 279.484 C 194.740 255.277, 194.411 250.733, 196.317 249.152 C 197.714 247.993, 197.759 248.179, 196.736 250.889 C 195.189 254.987, 196.255 255.667, 200.022 252.985 C 202.616 251.137, 203.573 250.940, 205.559 251.845 C 206.918 252.464, 207.739 253.516, 207.451 254.268 C 206.734 256.136, 211.725 260.675, 213.045 259.355 C 213.736 258.664, 213.194 257.467, 211.356 255.629 C 208.887 253.160, 208.788 252.783, 210.232 251.339 C 211.651 249.920, 212.038 249.913, 213.977 251.272 C 215.390 252.261, 215.707 252.931, 214.893 253.202 C 214.138 253.454, 213.968 254.139, 214.461 254.937 C 215.111 255.989, 215.462 255.926, 216.188 254.628 C 217.315 252.615, 219.872 252.504, 220.614 254.437 C 220.917 255.227, 221.758 255.646, 222.482 255.369 C 223.205 255.091, 224.095 255.344, 224.458 255.932 C 225.710 257.957, 227.150 256.993, 226.969 254.250 C 226.656 249.491, 226.948 249.397, 229.410 253.464 C 231.471 256.869, 232.329 257.446, 235.495 257.556 C 238.730 257.669, 239.495 257.209, 241.753 253.797 C 243.168 251.659, 244.599 250.351, 244.933 250.892 C 245.267 251.433, 246.804 252.355, 248.349 252.942 C 250.872 253.902, 251.086 254.339, 250.462 257.255 C 249.657 261.011, 248.914 262.027, 248.278 260.244 C 247.710 258.654, 246 259.641, 246 261.559 C 246 263.306, 249.137 263.463, 250.800 261.800 C 251.460 261.140, 252 259.763, 252 258.741 C 252 257.719, 252.390 257.123, 252.866 257.417 C 253.342 257.711, 253.502 259.153, 253.222 260.620 C 252.756 263.058, 252.942 263.244, 255.380 262.778 C 256.847 262.498, 258.318 262.706, 258.649 263.241 C 259.003 263.813, 259.604 263.655, 260.110 262.857 C 261.455 260.734, 261.151 259.728, 259.373 260.410 C 257.694 261.055, 255.091 258.560, 255.032 256.250 C 254.988 254.513, 257.493 254.684, 259.019 256.523 C 259.770 257.428, 261.062 257.798, 262.205 257.435 C 263.483 257.029, 264.067 257.273, 263.945 258.162 C 263.577 260.867, 264.036 262, 265.500 262 C 266.325 262, 267 262.450, 267 263 C 267 263.550, 266.288 264, 265.417 264 C 264.546 264, 263.995 264.484, 264.192 265.075 C 264.389 265.666, 264.876 266.116, 265.275 266.075 C 265.674 266.034, 268.298 266, 271.107 266 C 275.571 266, 276.126 265.780, 275.514 264.250 C 274.432 261.544, 273.626 251, 274.501 251 C 274.929 251, 275.877 251.787, 276.608 252.750 C 277.838 254.371, 277.939 254.334, 277.968 252.250 C 277.986 251.012, 278.450 250, 279 250 C 279.550 250, 280 250.675, 280 251.500 C 280 252.512, 281.013 253, 283.117 253 C 285.741 253, 286.151 253.316, 285.710 255 C 285.331 256.449, 285.680 257, 286.975 257 C 288.259 257, 289.082 255.733, 289.896 252.500 C 290.519 250.025, 291.419 248, 291.897 248 C 293.092 248, 300.657 255.663, 301.417 257.644 C 301.757 258.529, 301.526 259.866, 300.905 260.615 C 300.034 261.664, 300.180 262.132, 301.545 262.656 C 303.442 263.384, 308 259.074, 308 256.551 C 308 254.861, 305.783 253.982, 303.213 254.654 C 301.020 255.228, 298 251.823, 298 248.777 C 298 246.218, 300.650 246.586, 301.401 249.250 C 302.010 251.410, 302.159 251.350, 305.115 247.750 C 308.170 244.029, 312.528 242.459, 311.362 245.500 C 311.005 246.429, 311.366 247, 312.310 247 C 313.148 247, 314.248 245.762, 314.755 244.250 L 315.678 241.500 317.466 245 C 318.450 246.925, 319.447 248.712, 319.682 248.971 C 320.496 249.869, 321.970 246.485, 322.064 243.500 C 322.115 241.850, 322.385 241.063, 322.662 241.750 C 323.934 244.901, 328 241.595, 328 237.411 C 328 235.807, 327.876 235.803, 326.171 237.345 C 323.884 239.415, 323.116 239.415, 320.829 237.345 C 319.823 236.435, 319 236.168, 319 236.751 C 319 237.335, 318.146 237.589, 317.102 237.316 C 316.058 237.043, 314.065 237.566, 312.674 238.478 C 310.258 240.061, 310.091 240.039, 308.995 237.991 C 308.363 236.810, 307.238 236.079, 306.493 236.364 C 305.749 236.650, 302.737 235.582, 299.799 233.991 C 296.334 232.114, 293.975 231.397, 293.081 231.950 C 292.135 232.535, 290.968 231.927, 289.352 230.006 C 288.058 228.469, 287.007 226.826, 287.015 226.356 C 287.024 225.885, 287.417 226.111, 287.890 226.857 C 288.397 227.656, 288.997 227.814, 289.351 227.240 C 289.682 226.705, 289.027 225.429, 287.894 224.404 C 285.946 222.642, 285.783 222.636, 284.857 224.292 C 284.318 225.254, 283.433 225.768, 282.890 225.432 C 282.250 225.036, 282.274 224.374, 282.960 223.548 C 283.782 222.558, 282.981 222.132, 279.369 221.637 C 276.813 221.287, 272.534 221, 269.860 221 C 265.925 221, 264.987 221.333, 264.930 222.750 C 264.870 224.236, 264.738 224.199, 264.053 222.500 C 263.610 221.400, 263.581 220.050, 263.990 219.500 C 264.398 218.950, 263.938 217.216, 262.967 215.646 C 261.252 212.874, 261.181 212.854, 260.514 214.956 C 259.946 216.746, 259.322 217.010, 256.913 216.481 C 254.888 216.036, 254 216.229, 254 217.112 C 254 217.835, 253.367 217.546, 252.532 216.441 C 250.465 213.708, 250.647 213, 253.418 213 C 258.971 213, 260.538 210.702, 257.104 207.594 C 255.640 206.269, 255.101 206.177, 254.741 207.189 C 254.484 207.910, 253.942 208.192, 253.537 207.817 C 252.384 206.747, 253.918 205, 256.009 205 C 257.050 205, 258.399 204.213, 259.008 203.250 C 259.831 201.951, 260.255 201.833, 260.655 202.792 C 261.566 204.972, 264 202.124, 264 198.878 C 264 196.815, 264.496 195.991, 265.750 195.970 C 267.367 195.941, 267.361 195.858, 265.667 194.873 C 264.214 194.029, 263.340 194.271, 261.456 196.041 C 259.337 198.032, 258.755 198.141, 256.100 197.041 C 254.461 196.363, 252.695 196.071, 252.174 196.392 C 251.653 196.714, 250.985 196.049, 250.688 194.915 C 250.391 193.780, 249.215 192.607, 248.074 192.309 C 245.256 191.572, 245.465 190.154, 248.565 188.975 C 252.029 187.658, 252 187.644, 252 190.617 C 252 192.819, 252.348 193.142, 254.198 192.658 C 255.407 192.342, 256.962 192.554, 257.654 193.128 C 259.431 194.603, 261.274 193.155, 260.651 190.773 C 260.141 188.823, 260.186 188.826, 262.371 190.879 C 264.108 192.511, 264.883 192.717, 265.807 191.793 C 266.731 190.869, 267 190.878, 267 191.832 C 267 193.598, 271.220 194.995, 272.773 193.744 C 273.793 192.921, 273.739 192.250, 272.499 190.359 C 271.649 189.061, 271.388 188, 271.918 188 C 272.448 188, 273.165 188.457, 273.510 189.016 C 273.856 189.575, 274.506 189.806, 274.955 189.528 C 275.404 189.250, 276.007 190.254, 276.294 191.759 C 276.582 193.264, 276.351 194.783, 275.781 195.136 C 274.267 196.071, 275.803 198.013, 277.532 197.349 C 278.339 197.040, 279 196.143, 279 195.358 C 279 194.256, 279.442 194.166, 280.934 194.965 C 283.724 196.458, 284.300 196.257, 283.709 193.996 C 283.317 192.498, 283.782 191.842, 285.550 191.398 C 286.850 191.072, 288.496 191.001, 289.207 191.240 C 289.918 191.480, 290.985 191.018, 291.577 190.214 C 292.463 189.012, 292.885 189.308, 293.949 191.876 C 295.508 195.640, 296.668 195.823, 298.163 192.541 C 299.079 190.531, 298.938 189.572, 297.392 187.291 C 296.351 185.756, 294.994 183.150, 294.375 181.500 L 293.250 178.500 292.495 182.349 C 292.080 184.466, 291.460 185.744, 291.117 185.189 C 290.774 184.634, 289.145 184.027, 287.497 183.840 C 285.067 183.564, 284.545 183.074, 284.738 181.250 C 284.950 179.253, 284.528 179, 280.988 179 C 278.214 179, 277 178.569, 277 177.583 C 277 176.804, 277.563 175.960, 278.250 175.708 C 279.199 175.360, 279.221 174.953, 278.343 174.018 C 277.436 173.053, 276.941 173.242, 276.057 174.893 C 275.437 176.052, 273.967 177, 272.791 177 L 270.651 177 272.952 174.551 C 274.279 173.139, 275.001 171.445, 274.658 170.551 C 273.806 168.330, 272 168.635, 272 171 C 272 172.170, 271.333 173, 270.393 173 C 269.361 173, 269.003 172.463, 269.393 171.500 C 269.727 170.675, 270.273 169.325, 270.607 168.500 C 270.967 167.611, 270.661 166.986, 269.857 166.967 C 269.010 166.946, 269.338 166.234, 270.729 165.074 L 272.957 163.214 269.337 162.791 C 266.428 162.452, 265.620 162.737, 265.225 164.246 C 264.853 165.670, 263.983 166.048, 261.618 165.811 C 258.844 165.534, 258.370 165.885, 257.307 169 C 256.650 170.925, 256.073 171.825, 256.025 171 C 255.956 169.830, 255.620 169.918, 254.496 171.403 C 253.197 173.120, 252.993 173.144, 252.421 171.653 C 251.534 169.343, 250.348 169.594, 249.600 172.250 C 249.012 174.341, 248.873 174.378, 247.635 172.766 C 246.902 171.812, 246.039 171.294, 245.718 171.616 C 245.396 171.937, 244.541 171.830, 243.817 171.378 C 241.187 169.736, 239.905 170.223, 239.334 173.082 C 238.633 176.584, 237.447 176.766, 234.981 173.750 C 233.506 171.945, 232.891 171.747, 231.871 172.750 C 230.073 174.519, 228.499 174.308, 230 172.500 C 230.916 171.396, 230.953 170.648, 230.139 169.668 C 229.319 168.680, 229.408 167.841, 230.485 166.418 C 232.703 163.488, 232.295 162.691, 228.923 163.365 C 225.938 163.962, 225.865 163.891, 226.502 160.990 C 227.217 157.737, 226.863 157.468, 223.934 159.035 C 222.570 159.765, 222 159.748, 222 158.976 C 222 156.788, 220.242 159.038, 219.654 161.979 C 218.821 166.143, 216.993 165.818, 217.673 161.627 C 218.417 157.044, 216.793 156.389, 212.286 159.452 C 207.591 162.642, 206.358 162.651, 205.755 159.500 C 205.492 158.125, 205.720 157, 206.261 157 C 206.802 157, 206.685 156.325, 206 155.500 C 204.040 153.139, 202.505 153.718, 200.701 157.500 C 199.783 159.425, 198.545 161, 197.950 161 C 195.903 161, 193 158.927, 193 157.465 C 193 155.795, 194.575 155.503, 195.500 157 C 196.624 158.819, 198 158.039, 198 155.583 C 198 154.254, 198.563 152.977, 199.250 152.746 C 200.225 152.418, 200.198 151.959, 199.128 150.663 C 197.288 148.435, 194.704 148.565, 192.503 150.996 C 190.421 153.297, 188.816 152.478, 186.455 147.913 C 185.533 146.131, 183.567 144.689, 180.799 143.766 C 177.875 142.792, 176.391 141.659, 176.028 140.125 C 175.605 138.343, 175.250 138.148, 174.250 139.149 M 180.500 148 C 180.840 148.550, 181.793 149, 182.618 149 C 183.443 149, 183.840 148.550, 183.500 148 C 183.160 147.450, 182.207 147, 181.382 147 C 180.557 147, 180.160 147.450, 180.500 148 M 145 150.639 C 145 151.387, 145.873 152, 146.941 152 C 149.895 152, 150.311 150.293, 147.488 149.753 C 145.823 149.435, 145 149.728, 145 150.639 M 180.345 152.543 C 180.019 153.392, 179.969 154.302, 180.233 154.567 C 181.124 155.458, 184 153.798, 184 152.393 C 184 150.501, 181.083 150.620, 180.345 152.543 M 143 153.933 C 143 154.446, 142.027 155.174, 140.837 155.552 C 138.992 156.137, 138.906 156.368, 140.251 157.121 C 141.118 157.606, 142.542 157.729, 143.414 157.395 C 145.136 156.734, 145.633 153, 144 153 C 143.450 153, 143 153.420, 143 153.933 M 150.727 156.019 C 151.733 157.819, 153.555 159.661, 154.778 160.113 C 156.748 160.842, 157 160.611, 157 158.076 C 157 155.890, 156.434 155.075, 154.593 154.613 C 153.269 154.280, 151.446 153.725, 150.543 153.378 C 149.085 152.819, 149.106 153.116, 150.727 156.019 M 158.459 156.067 C 158.096 156.653, 158.040 157.373, 158.333 157.667 C 159.050 158.383, 161 157.121, 161 155.941 C 161 154.663, 159.274 154.748, 158.459 156.067 M 138 160 C 137.207 160.490, 136.890 161.223, 137.296 161.629 C 137.701 162.035, 138.558 161.842, 139.200 161.200 C 140.711 159.689, 139.868 158.846, 138 160 M 163.250 160.250 C 163.479 160.938, 164.267 161.500, 165 161.500 C 165.733 161.500, 166.521 160.938, 166.750 160.250 C 166.998 159.506, 166.289 159, 165 159 C 163.711 159, 163.002 159.506, 163.250 160.250 M 203 164 C 203 164.550, 204.152 165, 205.559 165 C 207.010 165, 207.851 164.567, 207.500 164 C 207.160 163.450, 206.009 163, 204.941 163 C 203.873 163, 203 163.450, 203 164 M 209 166.500 C 209 167.325, 209.450 168, 210 168 C 210.550 168, 211 167.325, 211 166.500 C 211 165.675, 210.550 165, 210 165 C 209.450 165, 209 165.675, 209 166.500 M 192 167.080 C 192 168.525, 193.951 169.127, 195.617 168.195 C 196.979 167.432, 196.815 167.198, 194.625 166.779 C 193.181 166.503, 192 166.638, 192 167.080 M 151.550 167.783 C 151.257 168.076, 151.519 168.920, 152.131 169.658 C 153.470 171.272, 156.413 171.477, 155.431 169.888 C 155.053 169.277, 155.299 168.433, 155.979 168.013 C 156.745 167.540, 156.240 167.250, 154.648 167.250 C 153.238 167.250, 151.843 167.490, 151.550 167.783 M 215.623 169.499 L 214.837 172.498 213.543 170.081 C 212.253 167.670, 212.248 167.669, 211.126 169.764 C 210.508 170.920, 209.125 172.143, 208.052 172.483 C 206.980 172.824, 205.814 174.012, 205.461 175.123 C 205.108 176.235, 204.260 176.930, 203.576 176.668 C 202.893 176.405, 202.333 176.842, 202.333 177.638 C 202.333 178.577, 202.890 178.848, 203.917 178.410 C 204.787 178.037, 206.320 177.768, 207.322 177.810 C 208.475 177.858, 209.520 176.807, 210.170 174.943 C 211.342 171.580, 213 171.028, 213 174 C 213 175.100, 213.267 176, 213.592 176 C 213.918 176, 215.329 175.100, 216.727 174 C 219.908 171.498, 221 171.474, 221 173.906 C 221 175.578, 221.303 175.670, 223.467 174.656 C 224.824 174.020, 225.472 173.341, 224.906 173.146 C 224.328 172.948, 224.654 171.934, 225.650 170.834 C 227.394 168.907, 227.340 168.886, 222.307 169.554 C 217.813 170.150, 217.144 170.006, 216.800 168.366 C 216.506 166.966, 216.212 167.250, 215.623 169.499 M 264 168 C 264 168.550, 264.675 169, 265.500 169 C 266.325 169, 267 168.550, 267 168 C 267 167.450, 266.325 167, 265.500 167 C 264.675 167, 264 167.450, 264 168 M 260.409 169.376 C 259.562 171.584, 260.689 172.711, 262.217 171.183 C 263.119 170.281, 263.122 169.722, 262.233 168.833 C 261.343 167.943, 260.909 168.072, 260.409 169.376 M 164.250 175.089 C 161.870 175.984, 161.330 177.468, 163.008 178.505 C 164.166 179.221, 167.326 176.417, 166.830 175.113 C 166.646 174.628, 165.503 174.618, 164.250 175.089 M 233.878 177.101 C 235.118 178.256, 236.407 178.926, 236.743 178.590 C 237.079 178.254, 236.487 177.323, 235.427 176.521 C 232.483 174.294, 231.328 174.726, 233.878 177.101 M 148.344 185.519 C 146.531 187.218, 146.390 187.813, 147.455 189.269 C 150.002 192.753, 152.209 191.093, 151.170 186.475 L 150.500 183.500 148.344 185.519 M 198 184.559 C 198 185.416, 198.450 185.840, 199 185.500 C 199.550 185.160, 200 184.459, 200 183.941 C 200 183.423, 199.550 183, 199 183 C 198.450 183, 198 183.702, 198 184.559 M 220.446 186.087 C 220.077 186.685, 220.275 187.675, 220.887 188.287 C 221.704 189.104, 222 188.815, 222 187.200 C 222 184.785, 221.481 184.413, 220.446 186.087 M 190 189.727 C 190 193.534, 191.543 194.856, 192.357 191.745 C 192.704 190.417, 192.344 188.916, 191.470 188.042 C 190.177 186.748, 190 186.950, 190 189.727 M 268.500 191 C 268.840 191.550, 269.541 192, 270.059 192 C 270.577 192, 271 191.550, 271 191 C 271 190.450, 270.298 190, 269.441 190 C 268.584 190, 268.160 190.450, 268.500 191 M 175 193 C 175 193.550, 175.423 194, 175.941 194 C 176.459 194, 177.160 193.550, 177.500 193 C 177.840 192.450, 177.416 192, 176.559 192 C 175.702 192, 175 192.450, 175 193 M 150.446 195.087 C 150.077 195.685, 150.275 196.675, 150.887 197.287 C 151.704 198.104, 152 197.815, 152 196.200 C 152 193.785, 151.481 193.413, 150.446 195.087 M 142.500 196 C 142.840 196.550, 143.541 197, 144.059 197 C 144.577 197, 145 196.550, 145 196 C 145 195.450, 144.298 195, 143.441 195 C 142.584 195, 142.160 195.450, 142.500 196 M 244.208 195.726 L 240.917 196.133 244.251 198.396 C 248.387 201.202, 252 202.244, 252 200.629 C 252 199.110, 249.104 194.950, 248.193 195.160 C 247.812 195.248, 246.019 195.503, 244.208 195.726 M 177 204 C 177 204.550, 177.702 205, 178.559 205 C 179.416 205, 179.840 204.550, 179.500 204 C 179.160 203.450, 178.459 203, 177.941 203 C 177.423 203, 177 203.450, 177 204 M 204.658 205.551 C 205.265 207.133, 207 207.545, 207 206.107 C 207 205.616, 206.348 204.964, 205.551 204.658 C 204.582 204.286, 204.286 204.582, 204.658 205.551 M 152.500 206 C 152.840 206.550, 153.541 207, 154.059 207 C 154.577 207, 155 206.550, 155 206 C 155 205.450, 154.298 205, 153.441 205 C 152.584 205, 152.160 205.450, 152.500 206 M 248.262 207.690 C 249.192 208.620, 250.288 209.046, 250.697 208.636 C 251.107 208.226, 250.780 207.473, 249.971 206.961 C 247.536 205.421, 246.455 205.883, 248.262 207.690 M 198.574 213.667 C 198.222 214.584, 198.399 215.799, 198.967 216.367 C 199.678 217.078, 200 216.557, 200 214.700 C 200 211.615, 199.501 211.253, 198.574 213.667 M 234.625 212.798 C 234.354 213.237, 234.534 214.245, 235.024 215.039 C 235.515 215.834, 235.647 217.558, 235.317 218.872 C 234.875 220.636, 235.081 221.140, 236.109 220.798 C 237.800 220.234, 238.386 217.676, 237.570 214.421 C 236.968 212.024, 235.577 211.257, 234.625 212.798 M 230 213.819 C 230 215.027, 231.897 216.436, 232.591 215.743 C 232.842 215.491, 232.362 214.716, 231.524 214.020 C 230.574 213.231, 230 213.155, 230 213.819 M 169 219.382 C 169 222.637, 170.516 223.574, 170.773 220.477 C 170.881 219.169, 170.526 217.825, 169.985 217.491 C 169.439 217.153, 169 217.996, 169 219.382 M 188 219.607 C 188 220.662, 188.544 221.005, 189.582 220.607 C 190.452 220.273, 191.603 220, 192.141 220 C 192.678 220, 192.840 219.550, 192.500 219 C 191.493 217.370, 188 217.841, 188 219.607 M 243.798 222 C 243.192 225.786, 243.736 227.674, 245.046 226.337 C 245.498 225.877, 245.528 223.925, 245.113 222 L 244.359 218.500 243.798 222 M 228.250 223.080 C 229.439 223.772, 230.561 223.772, 231.750 223.080 C 233.178 222.249, 232.855 222.061, 230 222.061 C 227.145 222.061, 226.822 222.249, 228.250 223.080 M 227.190 226.618 C 228.080 227.508, 229.309 227.927, 229.920 227.549 C 231.548 226.543, 230.220 225, 227.727 225 C 225.741 225, 225.699 225.127, 227.190 226.618 M 101.538 228.348 C 99.430 229.890, 100.238 232, 102.937 232 C 105.140 232, 107.420 229.488, 106.527 228.044 C 105.646 226.618, 103.746 226.734, 101.538 228.348 M 191.500 228 C 191.840 228.550, 192.766 229, 193.559 229 C 194.352 229, 195 228.550, 195 228 C 195 227.450, 194.073 227, 192.941 227 C 191.809 227, 191.160 227.450, 191.500 228 M 209 229 C 208.146 230.596, 208.240 231, 209.465 231 C 210.309 231, 211 230.355, 211 229.566 C 211 228.770, 212.223 227.948, 213.750 227.716 C 216.337 227.324, 216.310 227.291, 213.285 227.150 C 210.994 227.043, 209.763 227.575, 209 229 M 232 229.559 C 232 230.416, 232.450 230.840, 233 230.500 C 233.550 230.160, 234 229.459, 234 228.941 C 234 228.423, 233.550 228, 233 228 C 232.450 228, 232 228.702, 232 229.559 M 92 230.559 C 92 231.416, 92.450 231.840, 93 231.500 C 93.550 231.160, 94 230.459, 94 229.941 C 94 229.423, 93.550 229, 93 229 C 92.450 229, 92 229.702, 92 230.559 M 214.084 229.948 C 212.238 231.089, 211.642 239.351, 213.456 238.655 C 214.353 238.311, 214.613 238.764, 214.270 240.075 C 213.623 242.548, 215.198 242.544, 217.439 240.067 C 218.401 239.005, 219.821 238.378, 220.594 238.674 C 221.367 238.971, 222 238.716, 222 238.107 C 222 237.498, 221.325 237, 220.500 237 C 219.576 237, 219 236.062, 219 234.559 C 219 230.977, 220.170 230.851, 223.142 234.114 C 224.595 235.710, 225.383 237.264, 224.892 237.567 C 224.401 237.870, 224 238.724, 224 239.465 C 224 240.540, 224.700 240.598, 227.452 239.753 C 231.987 238.361, 232.979 236, 229.028 236 C 225.381 236, 224.220 234.294, 226.650 232.505 C 228.197 231.366, 228.254 231.061, 227 230.646 C 223.665 229.540, 219.027 229.418, 218.687 230.427 C 218.439 231.162, 217.870 231.125, 216.879 230.307 C 216.031 229.608, 214.875 229.459, 214.084 229.948 M 232.522 231.913 C 230.610 232.660, 230.620 232.726, 232.824 233.906 C 235.841 235.520, 239.397 234.932, 239.813 232.750 C 240.069 231.406, 239.492 231.016, 237.323 231.070 C 235.770 231.109, 233.610 231.488, 232.522 231.913 M 269.250 231.662 C 267.820 232.239, 267.551 234, 268.893 234 C 269.384 234, 270.045 233.325, 270.362 232.500 C 270.678 231.675, 270.839 231.036, 270.719 231.079 C 270.598 231.122, 269.938 231.385, 269.250 231.662 M 175.543 233.931 C 174.521 235.584, 176.648 235.979, 178.603 234.500 C 180.438 233.111, 180.428 233.063, 178.309 233.032 C 177.104 233.014, 175.859 233.419, 175.543 233.931 M 183.020 235.476 C 182.231 236.426, 182.155 237, 182.819 237 C 184.027 237, 185.436 235.103, 184.743 234.409 C 184.491 234.158, 183.716 234.638, 183.020 235.476 M 103.543 236.931 C 102.803 238.128, 104.684 239.313, 106.016 238.490 C 107.135 237.799, 106.400 236, 105 236 C 104.515 236, 103.859 236.419, 103.543 236.931 M 112.500 237 C 112.840 237.550, 113.541 238, 114.059 238 C 114.577 238, 115 237.550, 115 237 C 115 236.450, 114.298 236, 113.441 236 C 112.584 236, 112.160 236.450, 112.500 237 M 147.432 239.250 C 146.398 240.488, 146.158 240.973, 146.898 240.328 C 147.638 239.684, 148.864 239.394, 149.622 239.685 C 150.440 239.999, 151 239.561, 151 238.607 C 151 236.360, 149.640 236.605, 147.432 239.250 M 236.446 238.087 C 236.077 238.685, 236.215 239.615, 236.753 240.153 C 237.392 240.792, 237.920 240.414, 238.272 239.066 C 238.840 236.895, 237.595 236.228, 236.446 238.087 M 179.250 238.662 C 177.834 239.234, 177.530 242, 178.883 242 C 179.369 242, 180.002 241.100, 180.290 240 C 180.577 238.900, 180.742 238.036, 180.656 238.079 C 180.570 238.122, 179.938 238.385, 179.250 238.662 M 294 239.573 C 294 240.505, 294.680 241.015, 295.667 240.823 C 298.176 240.337, 298.520 238, 296.083 238 C 294.855 238, 294 238.646, 294 239.573 M 305 241.622 C 305 243.840, 305.232 244.053, 306.500 243 C 307.325 242.315, 308 241.135, 308 240.378 C 308 239.620, 307.325 239, 306.500 239 C 305.548 239, 305 239.958, 305 241.622 M 167 241.023 C 167 241.595, 167.694 242.329, 168.543 242.655 C 170.889 243.555, 171.164 242.583, 168.955 241.204 C 167.717 240.431, 167 240.365, 167 241.023 M 242 241 C 242 241.550, 242.423 242, 242.941 242 C 243.459 242, 244.160 241.550, 244.500 241 C 244.840 240.450, 244.416 240, 243.559 240 C 242.702 240, 242 240.450, 242 241 M 139.513 241.979 C 139.181 242.517, 139.890 244.284, 141.089 245.906 C 143.387 249.015, 143.114 252, 140.531 252 C 139.689 252, 139 252.450, 139 253 C 139 253.550, 140.800 254, 143 254 C 146.797 254, 148.180 252.847, 146 251.500 C 145.450 251.160, 145 249.559, 145 247.941 C 145 245.562, 144.570 244.997, 142.750 244.985 C 141.080 244.973, 140.855 244.744, 141.878 244.096 C 142.636 243.616, 142.947 242.723, 142.569 242.112 C 141.720 240.738, 140.318 240.677, 139.513 241.979 M 194.983 242.813 C 193.632 243.907, 192.987 245.170, 193.421 245.872 C 193.933 246.701, 194.782 246.276, 196.194 244.481 C 198.726 241.262, 198.049 240.330, 194.983 242.813 M 319 242.441 C 319 243.298, 319.450 244, 320 244 C 320.550 244, 321 243.577, 321 243.059 C 321 242.541, 320.550 241.840, 320 241.500 C 319.450 241.160, 319 241.584, 319 242.441 M 226.261 243.954 C 225.493 245.184, 225.404 246.131, 226.020 246.513 C 227.496 247.425, 229 246.127, 229 243.941 C 229 241.455, 227.818 241.460, 226.261 243.954 M 233.493 245.023 C 232.618 247.778, 233.215 248.294, 235.413 246.687 C 236.975 245.545, 237.005 245.249, 235.674 244.145 C 234.425 243.108, 234.053 243.257, 233.493 245.023 M 248.583 243.866 C 248.152 244.563, 248.070 245.403, 248.400 245.733 C 249.295 246.628, 250.271 245.312, 249.787 243.862 C 249.449 242.846, 249.213 242.846, 248.583 243.866 M 148.707 246.771 C 147.065 248.585, 147.101 248.725, 149.493 249.815 C 152.190 251.044, 152.575 250.315, 151.144 246.685 C 150.458 244.945, 150.356 244.949, 148.707 246.771 M 169.655 246.542 C 170.310 248.249, 172.154 248.039, 172.771 246.188 C 172.991 245.528, 172.254 245, 171.115 245 C 169.677 245, 169.240 245.461, 169.655 246.542 M 265.459 246.067 C 264.383 247.808, 265.608 248.177, 266.980 246.524 C 267.769 245.574, 267.845 245, 267.181 245 C 266.597 245, 265.821 245.480, 265.459 246.067 M 273.738 245.692 C 272.769 245.945, 272.233 246.567, 272.547 247.076 C 273.402 248.460, 274.713 248.192, 275.362 246.500 C 275.678 245.675, 275.839 245.052, 275.719 245.116 C 275.598 245.180, 274.707 245.439, 273.738 245.692 M 223.032 247.191 C 223.014 248.121, 223.480 249.179, 224.067 249.541 C 225.829 250.630, 226.076 249.482, 224.521 247.427 C 223.241 245.735, 223.060 245.706, 223.032 247.191 M 129 249.917 C 129 251.521, 128.438 253.060, 127.750 253.338 C 127.063 253.615, 127.480 253.878, 128.677 253.921 C 130.938 254.003, 131.945 251.928, 131.185 248.750 C 130.511 245.932, 129 246.739, 129 249.917 M 204.389 248.570 C 204.725 249.447, 205 250.378, 205 250.641 C 205 250.903, 205.450 250.840, 206 250.500 C 207.484 249.583, 207.213 248.296, 205.389 247.596 C 204.209 247.143, 203.941 247.404, 204.389 248.570 M 240.447 248.278 C 240.083 249.225, 239.159 250, 238.393 250 C 237.627 250, 237 250.450, 237 251 C 237 251.550, 237.675 252, 238.500 252 C 239.325 252, 240 251.583, 240 251.073 C 240 250.564, 240.663 250.001, 241.474 249.823 C 242.503 249.598, 242.670 249.056, 242.027 248.028 C 241.240 246.768, 241.012 246.804, 240.447 248.278 M 250.985 249.518 C 250.070 250.620, 249.999 251.399, 250.743 252.143 C 251.487 252.887, 252.006 252.556, 252.492 251.025 C 253.377 248.236, 252.652 247.510, 250.985 249.518 M 91.496 250.007 C 90.711 251.276, 93.511 252.420, 95.059 251.464 C 95.901 250.943, 95.847 250.518, 94.857 249.890 C 93.069 248.758, 92.250 248.786, 91.496 250.007 M 233 251.941 C 233 252.459, 233.450 253.160, 234 253.500 C 234.550 253.840, 235 253.416, 235 252.559 C 235 251.702, 234.550 251, 234 251 C 233.450 251, 233 251.423, 233 251.941 M 150 255.441 C 150 256.234, 150.450 257.160, 151 257.500 C 151.550 257.840, 152 257.191, 152 256.059 C 152 254.927, 151.550 254, 151 254 C 150.450 254, 150 254.648, 150 255.441 M 104 255.878 C 104 256.360, 104.675 257.315, 105.500 258 C 107.128 259.351, 107.332 259.028, 106.393 256.582 C 105.750 254.907, 104 254.392, 104 255.878 M 268 258.622 C 268 259.951, 268.271 260.020, 269.500 259 C 270.325 258.315, 271 257.585, 271 257.378 C 271 257.170, 270.325 257, 269.500 257 C 268.675 257, 268 257.730, 268 258.622 M 254 260.441 C 254 261.298, 254.450 262, 255 262 C 255.550 262, 256 261.577, 256 261.059 C 256 260.541, 255.550 259.840, 255 259.500 C 254.450 259.160, 254 259.584, 254 260.441" stroke="none" fill="#4b413c" fill-rule="evenodd"/><path d="M 241.071 8.313 C 239.987 11.165, 235.507 12.665, 233.370 10.892 C 232.251 9.963, 231.385 9.991, 229.466 11.018 C 228.110 11.744, 227 12.737, 227 13.225 C 227 13.712, 225.988 12.955, 224.750 11.541 C 222.708 9.209, 221.622 8.923, 213 8.449 C 207.775 8.162, 201.107 7.749, 198.182 7.532 C 195.089 7.302, 191.159 7.738, 188.791 8.574 C 185.741 9.650, 184.376 9.727, 183.359 8.883 C 182.612 8.263, 182 8.165, 182 8.667 C 182 9.169, 180.789 9.561, 179.309 9.539 C 177.250 9.509, 176.476 10.087, 176.015 12 C 175.492 14.167, 174.686 14.592, 169.956 15.191 C 165.205 15.792, 164.300 15.623, 162.951 13.882 C 161.674 12.233, 160.444 11.936, 155.951 12.191 L 150.500 12.500 150.500 16 C 150.500 19.075, 150.166 19.538, 147.750 19.816 C 146.161 19.999, 145 19.647, 145 18.983 C 145 16.675, 142.486 18.745, 142 21.452 C 141.599 23.688, 140.533 24.619, 136.618 26.155 C 132.216 27.882, 131.568 27.919, 130.039 26.535 C 129.106 25.691, 127.365 25, 126.171 25 C 124.342 25, 124 25.571, 124 28.625 C 124 32.119, 123.892 32.228, 121 31.650 C 118.836 31.217, 118 31.431, 118 32.418 C 118 34.152, 116.666 34.648, 109.630 35.527 C 105.916 35.991, 103.515 36.854, 102.699 38.020 C 101.617 39.564, 101.200 39.620, 99.578 38.433 C 97.454 36.880, 95.834 37.404, 96.598 39.396 C 97.156 40.849, 92.050 42.340, 89.659 41.423 C 88.902 41.132, 86.979 42.399, 85.335 44.271 C 83.707 46.125, 81.616 47.933, 80.688 48.290 C 79.759 48.646, 79 49.748, 79 50.740 C 79 51.731, 77.839 53.658, 76.420 55.021 C 69.240 61.921, 68 63.308, 68 64.437 C 68 65.111, 66.763 66.301, 65.250 67.081 C 63.737 67.861, 61.899 69.305, 61.165 70.290 C 60.431 71.274, 59.030 72.849, 58.051 73.790 C 55.460 76.279, 53.922 79.634, 54.583 81.355 C 55.013 82.477, 54.636 82.717, 53.079 82.310 C 51.457 81.886, 51 82.232, 51 83.883 C 51 85.098, 50.361 86, 49.500 86 C 48.675 86, 48 86.675, 48 87.500 C 48 88.325, 47.539 89, 46.975 89 C 46.412 89, 45.523 90.125, 45 91.500 C 44.477 92.875, 43.588 94, 43.025 94 C 42.461 94, 42 94.706, 42 95.570 C 42 96.433, 40.736 99.021, 39.190 101.320 C 37.645 103.619, 34.878 109.003, 33.041 113.283 C 31.204 117.564, 29.318 121.303, 28.850 121.592 C 28.383 121.882, 28 123.130, 28 124.368 C 28 125.605, 27.339 127.491, 26.532 128.559 C 25.724 129.626, 25.049 131.464, 25.032 132.643 C 25.014 133.822, 24.315 135.049, 23.477 135.370 C 22.280 135.830, 22.194 136.338, 23.077 137.751 C 23.908 139.082, 23.900 140.656, 23.047 143.825 C 22.106 147.319, 21.555 147.993, 20.032 147.510 C 17.821 146.808, 16.213 148.761, 18.332 149.574 C 19.607 150.063, 19.598 150.916, 18.263 156.317 C 17.422 159.718, 16.757 163.400, 16.785 164.500 C 16.813 165.600, 16.407 168.300, 15.884 170.500 C 15.362 172.700, 14.824 179.416, 14.691 185.425 C 14.547 191.907, 14.024 196.492, 13.405 196.698 C 12.402 197.033, 12.329 206.789, 13.305 210 C 16.145 219.347, 16.166 221, 13.441 221 C 11.070 221, 11.796 225.178, 14.693 228.202 C 18.044 231.699, 18.720 236.999, 15.909 237.734 C 13.479 238.369, 13.424 241.037, 15.826 241.665 C 18.148 242.272, 20.615 246.426, 21.520 251.250 C 21.906 253.312, 22.623 255, 23.111 255 C 23.600 255, 24 256.051, 24 257.336 C 24 260.103, 42.225 296.605, 45.052 299.500 C 46.889 301.381, 49.890 305.030, 56.205 313.060 C 57.693 314.952, 60.168 318.372, 61.705 320.659 C 64.107 324.233, 67.353 327.440, 78.504 337.258 C 79.602 338.224, 83.650 341.573, 87.500 344.700 C 91.350 347.826, 94.725 350.635, 95 350.942 C 95.935 351.985, 104.494 356.006, 105.775 356.003 C 106.476 356.001, 107.496 357.174, 108.041 358.609 C 108.837 360.702, 109.311 360.987, 110.438 360.052 C 111.577 359.106, 111.747 359.253, 111.334 360.830 C 110.715 363.198, 112.597 364.579, 114.402 363.081 C 115.391 362.261, 116.311 362.563, 118.109 364.298 C 119.424 365.568, 122.525 367.198, 125 367.921 C 127.475 368.644, 130.175 369.477, 131 369.772 C 131.825 370.066, 133.321 370.204, 134.324 370.078 C 135.446 369.937, 136.357 370.648, 136.691 371.925 C 137.103 373.500, 138.034 374, 140.558 374 C 142.386 374, 144.167 374.462, 144.516 375.027 C 144.865 375.591, 145.679 375.977, 146.325 375.884 C 146.971 375.791, 148.913 376.256, 150.641 376.917 C 153.024 377.830, 153.659 378.587, 153.274 380.060 C 152.885 381.548, 153.282 382, 154.977 382 C 156.301 382, 157.385 381.244, 157.680 380.116 C 158.026 378.792, 158.779 378.391, 160.213 378.766 C 162.201 379.286, 162.192 379.348, 159.877 381.144 L 157.500 382.987 159.750 383.610 C 161.066 383.975, 162 385.015, 162 386.117 C 162 387.152, 162.450 388, 163 388 C 163.550 388, 164 387.325, 164 386.500 C 164 385.675, 164.653 385, 165.450 385 C 166.248 385, 167.336 384.222, 167.868 383.271 C 168.786 381.632, 168.936 381.632, 170.747 383.271 C 173.092 385.393, 174.382 385.450, 176 383.500 C 177.598 381.574, 180 381.563, 180 383.481 C 180 385.358, 182.327 385.892, 193.500 386.582 C 210.995 387.662, 227.338 386.879, 228.559 384.904 C 228.850 384.434, 231.047 384.319, 233.443 384.647 C 237.200 385.162, 237.955 384.952, 238.938 383.116 C 240.019 381.097, 240.230 381.068, 243.092 382.547 C 245.254 383.666, 247.389 383.914, 250.641 383.427 L 255.175 382.747 254.515 379.227 L 253.855 375.708 258.340 376.323 C 262.634 376.912, 262.870 376.811, 263.861 373.969 C 265.061 370.526, 267.518 370.050, 268.317 373.105 C 269.098 376.092, 271.500 374.878, 271.500 371.496 C 271.500 368.607, 273.301 367.060, 274.467 368.947 C 274.825 369.526, 276.666 370, 278.559 370 C 281.239 370, 282 369.591, 282 368.152 C 282 366.209, 289.435 362.533, 291.182 363.612 C 291.680 363.920, 292.692 363.671, 293.431 363.058 C 296.443 360.558, 304.234 357.249, 306.013 357.714 C 307.080 357.993, 309.092 357.286, 310.593 356.106 C 312.065 354.948, 313.946 354, 314.773 354 C 316.282 354, 325.137 346.482, 325.916 344.538 C 326.145 343.967, 328.395 341.416, 330.916 338.868 C 333.437 336.320, 336.664 332.945, 338.087 331.368 C 339.509 329.791, 341.759 327.589, 343.087 326.475 C 345.690 324.290, 352.413 316.662, 359.150 308.250 C 361.462 305.363, 363.901 303, 364.570 303 C 365.239 303, 366.045 302.325, 366.362 301.500 C 366.678 300.675, 367.626 300, 368.469 300 C 369.311 300, 370 299.650, 370 299.223 C 370 298.795, 371.383 296.932, 373.073 295.081 C 375.273 292.673, 375.986 291.082, 375.585 289.481 C 375.217 288.017, 375.921 285.922, 377.624 283.413 C 380.098 279.767, 380.166 279.321, 379.030 274.242 C 378.070 269.954, 378.091 268.595, 379.136 267.336 C 381.289 264.742, 382.969 258.794, 382.985 253.710 C 382.993 251.058, 383.832 247.265, 384.865 245.210 C 385.890 243.170, 387.276 238.350, 387.943 234.500 C 388.611 230.650, 389.572 225.873, 390.079 223.884 C 390.585 221.895, 391 215.645, 391 209.994 C 391 202.371, 391.362 199.434, 392.403 198.610 C 393.573 197.685, 393.601 196.717, 392.567 192.786 C 391.809 189.905, 391.686 187.714, 392.251 187.149 C 392.815 186.585, 392.752 185.965, 392.087 185.554 C 391.489 185.184, 391 183.754, 391 182.375 C 391 180.997, 390.540 179.008, 389.977 177.957 C 389.165 176.440, 389.371 175.785, 390.977 174.782 C 393.698 173.083, 393.747 168.008, 391.049 167.303 C 389.618 166.928, 388.839 165.421, 388.122 161.646 C 386.514 153.171, 386.192 151.614, 385.501 149 L 384.840 146.500 387.422 149.308 C 388.842 150.852, 390.451 151.839, 390.998 151.501 C 392.562 150.535, 389.241 145.042, 386.452 143.982 C 384.884 143.386, 384 142.263, 384 140.869 C 384 139.670, 382.875 137.214, 381.500 135.411 C 380.125 133.608, 378.980 131.541, 378.957 130.817 C 378.933 130.093, 377.826 127.700, 376.497 125.500 C 375.168 123.300, 373.339 119.925, 372.432 118 C 366.718 105.870, 362.566 97.905, 361.133 96.322 C 356.064 90.725, 349.058 81.980, 346.805 78.438 C 345.384 76.204, 342.697 72.829, 340.835 70.938 C 334.601 64.608, 325.061 56, 324.276 55.998 C 323.849 55.998, 320.477 53.146, 316.783 49.662 C 312.090 45.236, 308.216 42.600, 303.924 40.914 C 300.190 39.447, 297.477 37.716, 297.005 36.500 C 295.747 33.256, 292.138 30.462, 290.859 31.741 C 290.067 32.533, 288.554 31.589, 285.379 28.322 C 282.966 25.839, 280.600 23.107, 280.120 22.250 C 278.820 19.927, 276.029 21.393, 276.720 24.036 C 277.242 26.033, 277.118 26.093, 275.070 24.847 C 273.852 24.106, 272.236 22.038, 271.479 20.250 C 270.083 16.956, 268 15.844, 268 18.393 C 268 20.092, 265.553 21.149, 263.470 20.350 C 262.471 19.967, 262.159 19.076, 262.569 17.783 C 263.095 16.126, 262.855 15.911, 261.099 16.469 C 259.590 16.947, 259 16.704, 259 15.603 C 259 13.379, 255.425 11.811, 251.714 12.407 C 247.458 13.091, 242.841 11.076, 243.550 8.844 C 244.408 6.140, 242.086 5.643, 241.071 8.313 M 135.404 21.389 C 134.752 23.088, 135.629 25, 137.059 25 C 138.320 25, 138.266 21.282, 136.993 20.496 C 136.439 20.153, 135.724 20.555, 135.404 21.389 M 109.229 31.188 C 109.847 33.042, 112 33.349, 112 31.583 C 112 30.712, 111.287 30, 110.417 30 C 109.546 30, 109.011 30.534, 109.229 31.188 M 324.457 51.686 C 322.723 53.420, 322.722 53.515, 324.428 53.844 C 326.823 54.305, 328.764 52.364, 327.336 50.936 C 326.583 50.183, 325.740 50.403, 324.457 51.686 M 34.987 98.025 C 34.355 99.205, 34.121 100.454, 34.467 100.800 C 35.375 101.709, 38.500 99.519, 38.500 97.974 C 38.500 95.737, 36.193 95.771, 34.987 98.025 M 30 109.961 C 30 110.490, 29.117 111.744, 28.038 112.750 C 26.737 113.962, 26.271 115.322, 26.655 116.789 C 27.377 119.549, 27.725 119.545, 30.056 116.750 C 32.040 114.372, 32.694 109, 31 109 C 30.450 109, 30 109.432, 30 109.961 M 174.250 139.149 C 173.563 139.837, 173 141.408, 173 142.641 C 173 143.874, 172.550 145.160, 172 145.500 C 171.450 145.840, 171 146.991, 171 148.059 C 171 150.394, 170.149 150.493, 167.288 148.489 C 165.755 147.415, 164.931 147.303, 164.438 148.101 C 163.985 148.834, 162.051 148.999, 158.872 148.577 C 155.563 148.138, 154 148.290, 154 149.049 C 154 149.664, 153.516 150.005, 152.925 149.808 C 151.117 149.206, 151.759 147.529, 154 147 C 157.743 146.116, 155.649 144.621, 151 144.857 C 147.352 145.043, 145.901 145.720, 143.338 148.433 C 140.534 151.399, 140.119 151.565, 139.681 149.890 C 139.078 147.584, 136 147.360, 136 149.622 C 136 150.906, 135.705 151, 134.589 150.074 C 132.837 148.620, 131.911 149.945, 132.665 152.826 C 133.297 155.243, 134.534 155.661, 135.399 153.750 C 135.710 153.063, 135.852 153.400, 135.714 154.500 C 135.558 155.743, 134.712 156.500, 133.481 156.500 C 132.392 156.500, 130.908 156.883, 130.183 157.350 C 128.126 158.679, 127.531 157.246, 129 154.500 C 130.698 151.327, 129.965 150.629, 125.878 151.527 C 122.773 152.209, 122.708 152.313, 124.557 153.665 C 125.752 154.539, 126.381 155.995, 126.191 157.448 C 126.021 158.746, 126.358 160.104, 126.941 160.464 C 127.523 160.823, 128.007 160.529, 128.015 159.809 C 128.027 158.836, 128.268 158.875, 128.954 159.960 C 129.751 161.219, 130.139 161.184, 131.775 159.703 C 133.585 158.066, 133.727 158.105, 134.836 160.540 C 135.476 161.945, 136 163.785, 136 164.630 C 136 166.971, 133.546 165.654, 133.173 163.113 C 132.908 161.309, 132.574 161.109, 131.423 162.064 C 129.266 163.854, 129.633 167, 132 167 C 134.373 167, 134.684 169.523, 132.418 170.393 C 129.680 171.444, 128.667 171.107, 129.942 169.570 C 130.890 168.428, 130.726 167.924, 129.130 167.070 C 126.510 165.667, 126 165.719, 126 167.389 C 126 168.153, 125.213 168.715, 124.250 168.639 C 123.143 168.551, 122.384 169.325, 122.181 170.750 C 122.005 171.988, 121.442 173, 120.930 173 C 120.419 173, 120 173.675, 120 174.500 C 120 175.400, 119.077 176, 117.691 176 C 114.506 176, 111.710 178.258, 112.141 180.483 C 112.750 183.624, 114.952 183.345, 116.381 179.945 C 117.128 178.169, 117.922 177.266, 118.146 177.938 C 118.767 179.801, 124.082 177.100, 123.756 175.087 C 123.580 173.993, 124.276 173.500, 126 173.500 C 127.660 173.500, 128.463 174.032, 128.389 175.082 C 128.303 176.310, 129.444 175.975, 133.499 173.582 C 136.491 171.816, 138.521 169.966, 138.253 169.250 C 137.996 168.563, 138.523 168, 139.424 168 C 140.326 168, 141.329 167.306, 141.655 166.457 C 142.174 165.104, 142.492 165.135, 144.229 166.707 C 146.156 168.451, 146.201 168.433, 145.855 166.025 C 145.597 164.226, 146.018 163.447, 147.395 163.173 C 149.050 162.845, 149.207 163.222, 148.632 166.149 C 148.269 167.992, 147.079 170.719, 145.986 172.210 C 143.428 175.699, 143.477 176, 146.607 176 C 148.513 176, 149.059 175.597, 148.638 174.500 C 147.809 172.338, 150.613 172.613, 152.919 174.919 C 154.591 176.591, 155.074 176.660, 156.669 175.451 C 159.199 173.534, 160 173.666, 160 176 C 160 177.100, 159.550 178, 159 178 C 158.450 178, 158 178.684, 158 179.519 C 158 180.622, 157.344 180.874, 155.609 180.438 C 154.294 180.108, 152.913 180.332, 152.540 180.935 C 152.167 181.539, 151.436 181.769, 150.915 181.447 C 150.394 181.125, 150.218 180.456, 150.525 179.960 C 151.225 178.826, 147.446 177.902, 143.500 178.242 C 140.719 178.481, 140.525 178.284, 140.848 175.546 C 141.148 173.005, 140.985 172.768, 139.683 173.848 C 138.516 174.816, 138.379 175.836, 139.085 178.296 C 140.467 183.114, 140.224 183.559, 137.574 181.070 C 135.014 178.664, 132.758 179.036, 133.223 181.785 C 133.388 182.756, 132.338 183.988, 130.642 184.816 C 128.163 186.027, 127.974 186.402, 129.214 187.643 C 130.878 189.307, 134.358 188.376, 133.624 186.463 C 133.275 185.553, 134.586 185.085, 138.162 184.842 C 144.437 184.415, 145.344 185.517, 140.029 187.109 C 136.180 188.263, 134.859 190.177, 137 191.500 C 138.846 192.641, 138.024 193.837, 134.621 194.960 C 132.762 195.573, 130.430 196.972, 129.438 198.069 C 127.747 199.937, 127.739 200.168, 129.317 201.745 C 130.641 203.069, 131 203.127, 131 202.014 C 131 200.986, 131.300 200.900, 132.099 201.699 C 133.312 202.912, 132.412 207, 130.933 207 C 130.420 207, 130 206.568, 130 206.040 C 130 205.502, 127.691 205.240, 124.750 205.445 C 121.023 205.704, 119.577 206.200, 119.764 207.155 C 119.921 207.952, 119.461 207.777, 118.635 206.723 C 117.537 205.325, 116.310 205.063, 112.870 205.497 C 106.483 206.301, 103.334 205.382, 103.425 202.740 C 103.468 201.492, 102.808 200.422, 101.879 200.233 C 100.631 199.979, 100.371 200.489, 100.746 202.452 C 101.052 204.052, 100.781 205, 100.018 205 C 99.349 205, 97.212 205.755, 95.267 206.677 C 91.888 208.281, 91.670 208.270, 90.304 206.427 C 88.903 204.537, 88.850 204.536, 87.470 206.397 C 85.837 208.602, 86.316 209.879, 88.770 209.857 C 91.153 209.836, 99.301 212.097, 100.394 213.083 C 101.591 214.161, 99.052 220.189, 97.613 219.686 C 97.001 219.473, 96.533 218.353, 96.574 217.199 C 96.615 216.044, 96.277 215.329, 95.824 215.609 C 95.371 215.889, 95 217.104, 95.001 218.309 C 95.001 220.312, 94.581 220.471, 90.097 220.160 C 85.841 219.865, 85.104 220.097, 84.529 221.910 C 84.164 223.059, 83.269 224, 82.540 224 C 79.321 224, 80.088 230.053, 83.472 231.351 C 85.708 232.209, 87.960 231.059, 87.318 229.387 C 86.976 228.496, 86.041 228.170, 84.882 228.538 C 83.586 228.949, 83 228.647, 83 227.567 C 83 226.705, 83.800 226, 84.778 226 C 86.954 226, 89.415 228.746, 90.703 232.609 C 91.889 236.170, 94.915 237.041, 95.698 234.047 C 96.224 232.035, 96.355 232.011, 98.127 233.615 C 100.336 235.614, 100.543 237, 98.633 237 C 97.881 237, 96.075 238.800, 94.619 241 C 92.993 243.456, 91.198 245, 89.967 245 C 88.368 245, 88.080 245.471, 88.545 247.324 C 88.916 248.799, 88.557 250.123, 87.564 250.947 C 85.204 252.905, 85.658 255, 88.441 255 C 89.784 255, 91.165 255.457, 91.510 256.016 C 91.856 256.575, 92.528 256.792, 93.004 256.497 C 93.481 256.203, 94.012 257.366, 94.185 259.081 L 94.500 262.201 97.222 260.050 L 99.944 257.899 102.930 260.106 C 105.398 261.931, 106.473 262.154, 109.129 261.392 C 112.916 260.306, 113.678 258.821, 111.545 256.688 C 109.325 254.468, 109.635 253.697, 112.524 254.249 C 113.912 254.515, 115.270 254.372, 115.542 253.932 C 115.814 253.492, 117.603 253.386, 119.518 253.697 C 122.555 254.190, 123 253.997, 123 252.190 C 123 251.050, 123.450 249.840, 124 249.500 C 124.594 249.133, 125 250.300, 125 252.374 C 125 256.429, 127.155 257.652, 131.433 256.025 C 135.704 254.402, 136.853 254.733, 136.549 257.500 C 136.196 260.718, 139.417 260.957, 141.087 257.837 L 142.245 255.673 143.952 257.937 C 145.172 259.553, 146.689 260.200, 149.263 260.200 C 153.706 260.200, 155 259.456, 155 256.900 C 155 254.269, 158.967 249, 160.948 249 C 161.812 249, 163.096 249.925, 163.802 251.055 C 164.915 252.837, 164.796 253.345, 162.906 254.875 L 160.726 256.641 164.279 258.737 C 168.329 261.127, 169.847 260.602, 167.252 257.709 C 165.535 255.795, 165.585 255.770, 169.750 256.466 C 172.581 256.939, 174 256.812, 174 256.088 C 174 255.490, 173.395 255, 172.655 255 C 171.282 255, 168 251.919, 168 250.629 C 168 250.237, 169.952 251.060, 172.338 252.458 C 177.542 255.507, 181.563 255.896, 180.533 253.250 C 179.270 250.006, 179.491 249.501, 182.315 249.177 C 185.113 248.857, 190 251.242, 190 252.929 C 190 253.415, 189.120 253.583, 188.045 253.302 C 186.559 252.913, 185.930 253.432, 185.419 255.468 C 184.589 258.776, 186.254 260.864, 188.341 259.132 C 190.436 257.393, 190.825 259.090, 192.040 275.299 C 193.318 292.347, 194.300 296.643, 197.123 297.539 C 201.072 298.793, 201.221 296.865, 198.512 279.484 C 194.740 255.277, 194.411 250.733, 196.317 249.152 C 197.714 247.993, 197.759 248.179, 196.736 250.889 C 195.189 254.987, 196.255 255.667, 200.022 252.985 C 202.616 251.137, 203.573 250.940, 205.559 251.845 C 206.918 252.464, 207.739 253.516, 207.451 254.268 C 206.734 256.136, 211.725 260.675, 213.045 259.355 C 213.736 258.664, 213.194 257.467, 211.356 255.629 C 208.887 253.160, 208.788 252.783, 210.232 251.339 C 211.651 249.920, 212.038 249.913, 213.977 251.272 C 215.390 252.261, 215.707 252.931, 214.893 253.202 C 214.138 253.454, 213.968 254.139, 214.461 254.937 C 215.111 255.989, 215.462 255.926, 216.188 254.628 C 217.315 252.615, 219.872 252.504, 220.614 254.437 C 220.917 255.227, 221.758 255.646, 222.482 255.369 C 223.205 255.091, 224.095 255.344, 224.458 255.932 C 225.710 257.957, 227.150 256.993, 226.969 254.250 C 226.656 249.491, 226.948 249.397, 229.410 253.464 C 231.471 256.869, 232.329 257.446, 235.495 257.556 C 238.730 257.669, 239.495 257.209, 241.753 253.797 C 243.168 251.659, 244.599 250.351, 244.933 250.892 C 245.267 251.433, 246.804 252.355, 248.349 252.942 C 250.872 253.902, 251.086 254.339, 250.462 257.255 C 249.657 261.011, 248.914 262.027, 248.278 260.244 C 247.710 258.654, 246 259.641, 246 261.559 C 246 263.306, 249.137 263.463, 250.800 261.800 C 251.460 261.140, 252 259.763, 252 258.741 C 252 257.719, 252.390 257.123, 252.866 257.417 C 253.342 257.711, 253.502 259.153, 253.222 260.620 C 252.756 263.058, 252.942 263.244, 255.380 262.778 C 256.847 262.498, 258.318 262.706, 258.649 263.241 C 259.003 263.813, 259.604 263.655, 260.110 262.857 C 261.455 260.734, 261.151 259.728, 259.373 260.410 C 257.694 261.055, 255.091 258.560, 255.032 256.250 C 254.988 254.513, 257.493 254.684, 259.019 256.523 C 259.770 257.428, 261.062 257.798, 262.205 257.435 C 263.483 257.029, 264.067 257.273, 263.945 258.162 C 263.577 260.867, 264.036 262, 265.500 262 C 266.325 262, 267 262.450, 267 263 C 267 263.550, 266.288 264, 265.417 264 C 264.546 264, 263.995 264.484, 264.192 265.075 C 264.389 265.666, 264.876 266.116, 265.275 266.075 C 265.674 266.034, 268.298 266, 271.107 266 C 275.571 266, 276.126 265.780, 275.514 264.250 C 274.432 261.544, 273.626 251, 274.501 251 C 274.929 251, 275.877 251.787, 276.608 252.750 C 277.838 254.371, 277.939 254.334, 277.968 252.250 C 277.986 251.012, 278.450 250, 279 250 C 279.550 250, 280 250.675, 280 251.500 C 280 252.512, 281.013 253, 283.117 253 C 285.741 253, 286.151 253.316, 285.710 255 C 285.331 256.449, 285.680 257, 286.975 257 C 288.259 257, 289.082 255.733, 289.896 252.500 C 290.519 250.025, 291.419 248, 291.897 248 C 293.092 248, 300.657 255.663, 301.417 257.644 C 301.757 258.529, 301.526 259.866, 300.905 260.615 C 300.034 261.664, 300.180 262.132, 301.545 262.656 C 303.442 263.384, 308 259.074, 308 256.551 C 308 254.861, 305.783 253.982, 303.213 254.654 C 301.020 255.228, 298 251.823, 298 248.777 C 298 246.218, 300.650 246.586, 301.401 249.250 C 302.010 251.410, 302.159 251.350, 305.115 247.750 C 308.170 244.029, 312.528 242.459, 311.362 245.500 C 311.005 246.429, 311.366 247, 312.310 247 C 313.148 247, 314.248 245.762, 314.755 244.250 L 315.678 241.500 317.466 245 C 318.450 246.925, 319.447 248.712, 319.682 248.971 C 320.496 249.869, 321.970 246.485, 322.064 243.500 C 322.115 241.850, 322.385 241.063, 322.662 241.750 C 323.934 244.901, 328 241.595, 328 237.411 C 328 235.807, 327.876 235.803, 326.171 237.345 C 323.884 239.415, 323.116 239.415, 320.829 237.345 C 319.823 236.435, 319 236.168, 319 236.751 C 319 237.335, 318.146 237.589, 317.102 237.316 C 316.058 237.043, 314.065 237.566, 312.674 238.478 C 310.258 240.061, 310.091 240.039, 308.995 237.991 C 308.363 236.810, 307.238 236.079, 306.493 236.364 C 305.749 236.650, 302.737 235.582, 299.799 233.991 C 296.334 232.114, 293.975 231.397, 293.081 231.950 C 292.135 232.535, 290.968 231.927, 289.352 230.006 C 288.058 228.469, 287.007 226.826, 287.015 226.356 C 287.024 225.885, 287.417 226.111, 287.890 226.857 C 288.397 227.656, 288.997 227.814, 289.351 227.240 C 289.682 226.705, 289.027 225.429, 287.894 224.404 C 285.946 222.642, 285.783 222.636, 284.857 224.292 C 284.318 225.254, 283.433 225.768, 282.890 225.432 C 282.250 225.036, 282.274 224.374, 282.960 223.548 C 283.782 222.558, 282.981 222.132, 279.369 221.637 C 276.813 221.287, 272.534 221, 269.860 221 C 265.925 221, 264.987 221.333, 264.930 222.750 C 264.870 224.236, 264.738 224.199, 264.053 222.500 C 263.610 221.400, 263.581 220.050, 263.990 219.500 C 264.398 218.950, 263.938 217.216, 262.967 215.646 C 261.252 212.874, 261.181 212.854, 260.514 214.956 C 259.946 216.746, 259.322 217.010, 256.913 216.481 C 254.888 216.036, 254 216.229, 254 217.112 C 254 217.835, 253.367 217.546, 252.532 216.441 C 250.465 213.708, 250.647 213, 253.418 213 C 258.971 213, 260.538 210.702, 257.104 207.594 C 255.640 206.269, 255.101 206.177, 254.741 207.189 C 254.484 207.910, 253.942 208.192, 253.537 207.817 C 252.384 206.747, 253.918 205, 256.009 205 C 257.050 205, 258.399 204.213, 259.008 203.250 C 259.831 201.951, 260.255 201.833, 260.655 202.792 C 261.566 204.972, 264 202.124, 264 198.878 C 264 196.815, 264.496 195.991, 265.750 195.970 C 267.367 195.941, 267.361 195.858, 265.667 194.873 C 264.214 194.029, 263.340 194.271, 261.456 196.041 C 259.337 198.032, 258.755 198.141, 256.100 197.041 C 254.461 196.363, 252.695 196.071, 252.174 196.392 C 251.653 196.714, 250.985 196.049, 250.688 194.915 C 250.391 193.780, 249.215 192.607, 248.074 192.309 C 245.256 191.572, 245.465 190.154, 248.565 188.975 C 252.029 187.658, 252 187.644, 252 190.617 C 252 192.819, 252.348 193.142, 254.198 192.658 C 255.407 192.342, 256.962 192.554, 257.654 193.128 C 259.431 194.603, 261.274 193.155, 260.651 190.773 C 260.141 188.823, 260.186 188.826, 262.371 190.879 C 264.108 192.511, 264.883 192.717, 265.807 191.793 C 266.731 190.869, 267 190.878, 267 191.832 C 267 193.598, 271.220 194.995, 272.773 193.744 C 273.793 192.921, 273.739 192.250, 272.499 190.359 C 271.649 189.061, 271.388 188, 271.918 188 C 272.448 188, 273.165 188.457, 273.510 189.016 C 273.856 189.575, 274.506 189.806, 274.955 189.528 C 275.404 189.250, 276.007 190.254, 276.294 191.759 C 276.582 193.264, 276.351 194.783, 275.781 195.136 C 274.267 196.071, 275.803 198.013, 277.532 197.349 C 278.339 197.040, 279 196.143, 279 195.358 C 279 194.256, 279.442 194.166, 280.934 194.965 C 283.724 196.458, 284.300 196.257, 283.709 193.996 C 283.317 192.498, 283.782 191.842, 285.550 191.398 C 286.850 191.072, 288.496 191.001, 289.207 191.240 C 289.918 191.480, 290.985 191.018, 291.577 190.214 C 292.463 189.012, 292.885 189.308, 293.949 191.876 C 295.508 195.640, 296.668 195.823, 298.163 192.541 C 299.079 190.531, 298.938 189.572, 297.392 187.291 C 296.351 185.756, 294.994 183.150, 294.375 181.500 L 293.250 178.500 292.495 182.349 C 292.080 184.466, 291.460 185.744, 291.117 185.189 C 290.774 184.634, 289.145 184.027, 287.497 183.840 C 285.067 183.564, 284.545 183.074, 284.738 181.250 C 284.950 179.253, 284.528 179, 280.988 179 C 278.214 179, 277 178.569, 277 177.583 C 277 176.804, 277.563 175.960, 278.250 175.708 C 279.199 175.360, 279.221 174.953, 278.343 174.018 C 277.436 173.053, 276.941 173.242, 276.057 174.893 C 275.437 176.052, 273.967 177, 272.791 177 L 270.651 177 272.952 174.551 C 274.279 173.139, 275.001 171.445, 274.658 170.551 C 273.806 168.330, 272 168.635, 272 171 C 272 172.170, 271.333 173, 270.393 173 C 269.361 173, 269.003 172.463, 269.393 171.500 C 269.727 170.675, 270.273 169.325, 270.607 168.500 C 270.967 167.611, 270.661 166.986, 269.857 166.967 C 269.010 166.946, 269.338 166.234, 270.729 165.074 L 272.957 163.214 269.337 162.791 C 266.428 162.452, 265.620 162.737, 265.225 164.246 C 264.853 165.670, 263.983 166.048, 261.618 165.811 C 258.844 165.534, 258.370 165.885, 257.307 169 C 256.650 170.925, 256.073 171.825, 256.025 171 C 255.956 169.830, 255.620 169.918, 254.496 171.403 C 253.197 173.120, 252.993 173.144, 252.421 171.653 C 251.534 169.343, 250.348 169.594, 249.600 172.250 C 249.012 174.341, 248.873 174.378, 247.635 172.766 C 246.902 171.812, 246.039 171.294, 245.718 171.616 C 245.396 171.937, 244.541 171.830, 243.817 171.378 C 241.187 169.736, 239.905 170.223, 239.334 173.082 C 238.633 176.584, 237.447 176.766, 234.981 173.750 C 233.506 171.945, 232.891 171.747, 231.871 172.750 C 230.073 174.519, 228.499 174.308, 230 172.500 C 230.916 171.396, 230.953 170.648, 230.139 169.668 C 229.319 168.680, 229.408 167.841, 230.485 166.418 C 232.703 163.488, 232.295 162.691, 228.923 163.365 C 225.938 163.962, 225.865 163.891, 226.502 160.990 C 227.217 157.737, 226.863 157.468, 223.934 159.035 C 222.570 159.765, 222 159.748, 222 158.976 C 222 156.788, 220.242 159.038, 219.654 161.979 C 218.821 166.143, 216.993 165.818, 217.673 161.627 C 218.417 157.044, 216.793 156.389, 212.286 159.452 C 207.591 162.642, 206.358 162.651, 205.755 159.500 C 205.492 158.125, 205.720 157, 206.261 157 C 206.802 157, 206.685 156.325, 206 155.500 C 204.040 153.139, 202.505 153.718, 200.701 157.500 C 199.783 159.425, 198.545 161, 197.950 161 C 195.903 161, 193 158.927, 193 157.465 C 193 155.795, 194.575 155.503, 195.500 157 C 196.624 158.819, 198 158.039, 198 155.583 C 198 154.254, 198.563 152.977, 199.250 152.746 C 200.225 152.418, 200.198 151.959, 199.128 150.663 C 197.288 148.435, 194.704 148.565, 192.503 150.996 C 190.421 153.297, 188.816 152.478, 186.455 147.913 C 185.533 146.131, 183.567 144.689, 180.799 143.766 C 177.875 142.792, 176.391 141.659, 176.028 140.125 C 175.605 138.343, 175.250 138.148, 174.250 139.149 M 180.500 148 C 180.840 148.550, 181.793 149, 182.618 149 C 183.443 149, 183.840 148.550, 183.500 148 C 183.160 147.450, 182.207 147, 181.382 147 C 180.557 147, 180.160 147.450, 180.500 148 M 145 150.639 C 145 151.387, 145.873 152, 146.941 152 C 149.895 152, 150.311 150.293, 147.488 149.753 C 145.823 149.435, 145 149.728, 145 150.639 M 180.345 152.543 C 180.019 153.392, 179.969 154.302, 180.233 154.567 C 181.124 155.458, 184 153.798, 184 152.393 C 184 150.501, 181.083 150.620, 180.345 152.543 M 143 153.933 C 143 154.446, 142.027 155.174, 140.837 155.552 C 138.992 156.137, 138.906 156.368, 140.251 157.121 C 141.118 157.606, 142.542 157.729, 143.414 157.395 C 145.136 156.734, 145.633 153, 144 153 C 143.450 153, 143 153.420, 143 153.933 M 150.727 156.019 C 151.733 157.819, 153.555 159.661, 154.778 160.113 C 156.748 160.842, 157 160.611, 157 158.076 C 157 155.890, 156.434 155.075, 154.593 154.613 C 153.269 154.280, 151.446 153.725, 150.543 153.378 C 149.085 152.819, 149.106 153.116, 150.727 156.019 M 158.459 156.067 C 158.096 156.653, 158.040 157.373, 158.333 157.667 C 159.050 158.383, 161 157.121, 161 155.941 C 161 154.663, 159.274 154.748, 158.459 156.067 M 138 160 C 137.207 160.490, 136.890 161.223, 137.296 161.629 C 137.701 162.035, 138.558 161.842, 139.200 161.200 C 140.711 159.689, 139.868 158.846, 138 160 M 163.250 160.250 C 163.479 160.938, 164.267 161.500, 165 161.500 C 165.733 161.500, 166.521 160.938, 166.750 160.250 C 166.998 159.506, 166.289 159, 165 159 C 163.711 159, 163.002 159.506, 163.250 160.250 M 203 164 C 203 164.550, 204.152 165, 205.559 165 C 207.010 165, 207.851 164.567, 207.500 164 C 207.160 163.450, 206.009 163, 204.941 163 C 203.873 163, 203 163.450, 203 164 M 209 166.500 C 209 167.325, 209.450 168, 210 168 C 210.550 168, 211 167.325, 211 166.500 C 211 165.675, 210.550 165, 210 165 C 209.450 165, 209 165.675, 209 166.500 M 192 167.080 C 192 168.525, 193.951 169.127, 195.617 168.195 C 196.979 167.432, 196.815 167.198, 194.625 166.779 C 193.181 166.503, 192 166.638, 192 167.080 M 151.550 167.783 C 151.257 168.076, 151.519 168.920, 152.131 169.658 C 153.470 171.272, 156.413 171.477, 155.431 169.888 C 155.053 169.277, 155.299 168.433, 155.979 168.013 C 156.745 167.540, 156.240 167.250, 154.648 167.250 C 153.238 167.250, 151.843 167.490, 151.550 167.783 M 215.623 169.499 L 214.837 172.498 213.543 170.081 C 212.253 167.670, 212.248 167.669, 211.126 169.764 C 210.508 170.920, 209.125 172.143, 208.052 172.483 C 206.980 172.824, 205.814 174.012, 205.461 175.123 C 205.108 176.235, 204.260 176.930, 203.576 176.668 C 202.893 176.405, 202.333 176.842, 202.333 177.638 C 202.333 178.577, 202.890 178.848, 203.917 178.410 C 204.787 178.037, 206.320 177.768, 207.322 177.810 C 208.475 177.858, 209.520 176.807, 210.170 174.943 C 211.342 171.580, 213 171.028, 213 174 C 213 175.100, 213.267 176, 213.592 176 C 213.918 176, 215.329 175.100, 216.727 174 C 219.908 171.498, 221 171.474, 221 173.906 C 221 175.578, 221.303 175.670, 223.467 174.656 C 224.824 174.020, 225.472 173.341, 224.906 173.146 C 224.328 172.948, 224.654 171.934, 225.650 170.834 C 227.394 168.907, 227.340 168.886, 222.307 169.554 C 217.813 170.150, 217.144 170.006, 216.800 168.366 C 216.506 166.966, 216.212 167.250, 215.623 169.499 M 264 168 C 264 168.550, 264.675 169, 265.500 169 C 266.325 169, 267 168.550, 267 168 C 267 167.450, 266.325 167, 265.500 167 C 264.675 167, 264 167.450, 264 168 M 260.409 169.376 C 259.562 171.584, 260.689 172.711, 262.217 171.183 C 263.119 170.281, 263.122 169.722, 262.233 168.833 C 261.343 167.943, 260.909 168.072, 260.409 169.376 M 164.250 175.089 C 161.870 175.984, 161.330 177.468, 163.008 178.505 C 164.166 179.221, 167.326 176.417, 166.830 175.113 C 166.646 174.628, 165.503 174.618, 164.250 175.089 M 233.878 177.101 C 235.118 178.256, 236.407 178.926, 236.743 178.590 C 237.079 178.254, 236.487 177.323, 235.427 176.521 C 232.483 174.294, 231.328 174.726, 233.878 177.101 M 148.344 185.519 C 146.531 187.218, 146.390 187.813, 147.455 189.269 C 150.002 192.753, 152.209 191.093, 151.170 186.475 L 150.500 183.500 148.344 185.519 M 198 184.559 C 198 185.416, 198.450 185.840, 199 185.500 C 199.550 185.160, 200 184.459, 200 183.941 C 200 183.423, 199.550 183, 199 183 C 198.450 183, 198 183.702, 198 184.559 M 220.446 186.087 C 220.077 186.685, 220.275 187.675, 220.887 188.287 C 221.704 189.104, 222 188.815, 222 187.200 C 222 184.785, 221.481 184.413, 220.446 186.087 M 190 189.727 C 190 193.534, 191.543 194.856, 192.357 191.745 C 192.704 190.417, 192.344 188.916, 191.470 188.042 C 190.177 186.748, 190 186.950, 190 189.727 M 268.500 191 C 268.840 191.550, 269.541 192, 270.059 192 C 270.577 192, 271 191.550, 271 191 C 271 190.450, 270.298 190, 269.441 190 C 268.584 190, 268.160 190.450, 268.500 191 M 175 193 C 175 193.550, 175.423 194, 175.941 194 C 176.459 194, 177.160 193.550, 177.500 193 C 177.840 192.450, 177.416 192, 176.559 192 C 175.702 192, 175 192.450, 175 193 M 150.446 195.087 C 150.077 195.685, 150.275 196.675, 150.887 197.287 C 151.704 198.104, 152 197.815, 152 196.200 C 152 193.785, 151.481 193.413, 150.446 195.087 M 142.500 196 C 142.840 196.550, 143.541 197, 144.059 197 C 144.577 197, 145 196.550, 145 196 C 145 195.450, 144.298 195, 143.441 195 C 142.584 195, 142.160 195.450, 142.500 196 M 244.208 195.726 L 240.917 196.133 244.251 198.396 C 248.387 201.202, 252 202.244, 252 200.629 C 252 199.110, 249.104 194.950, 248.193 195.160 C 247.812 195.248, 246.019 195.503, 244.208 195.726 M 177 204 C 177 204.550, 177.702 205, 178.559 205 C 179.416 205, 179.840 204.550, 179.500 204 C 179.160 203.450, 178.459 203, 177.941 203 C 177.423 203, 177 203.450, 177 204 M 204.658 205.551 C 205.265 207.133, 207 207.545, 207 206.107 C 207 205.616, 206.348 204.964, 205.551 204.658 C 204.582 204.286, 204.286 204.582, 204.658 205.551 M 152.500 206 C 152.840 206.550, 153.541 207, 154.059 207 C 154.577 207, 155 206.550, 155 206 C 155 205.450, 154.298 205, 153.441 205 C 152.584 205, 152.160 205.450, 152.500 206 M 248.262 207.690 C 249.192 208.620, 250.288 209.046, 250.697 208.636 C 251.107 208.226, 250.780 207.473, 249.971 206.961 C 247.536 205.421, 246.455 205.883, 248.262 207.690 M 392.694 207.639 C 391.761 208.573, 392.888 210, 394.559 210 C 395.352 210, 396 209.325, 396 208.500 C 396 206.994, 393.889 206.444, 392.694 207.639 M 198.574 213.667 C 198.222 214.584, 198.399 215.799, 198.967 216.367 C 199.678 217.078, 200 216.557, 200 214.700 C 200 211.615, 199.501 211.253, 198.574 213.667 M 234.625 212.798 C 234.354 213.237, 234.534 214.245, 235.024 215.039 C 235.515 215.834, 235.647 217.558, 235.317 218.872 C 234.875 220.636, 235.081 221.140, 236.109 220.798 C 237.800 220.234, 238.386 217.676, 237.570 214.421 C 236.968 212.024, 235.577 211.257, 234.625 212.798 M 230 213.819 C 230 215.027, 231.897 216.436, 232.591 215.743 C 232.842 215.491, 232.362 214.716, 231.524 214.020 C 230.574 213.231, 230 213.155, 230 213.819 M 169 219.382 C 169 222.637, 170.516 223.574, 170.773 220.477 C 170.881 219.169, 170.526 217.825, 169.985 217.491 C 169.439 217.153, 169 217.996, 169 219.382 M 188 219.607 C 188 220.662, 188.544 221.005, 189.582 220.607 C 190.452 220.273, 191.603 220, 192.141 220 C 192.678 220, 192.840 219.550, 192.500 219 C 191.493 217.370, 188 217.841, 188 219.607 M 243.798 222 C 243.192 225.786, 243.736 227.674, 245.046 226.337 C 245.498 225.877, 245.528 223.925, 245.113 222 L 244.359 218.500 243.798 222 M 228.250 223.080 C 229.439 223.772, 230.561 223.772, 231.750 223.080 C 233.178 222.249, 232.855 222.061, 230 222.061 C 227.145 222.061, 226.822 222.249, 228.250 223.080 M 227.190 226.618 C 228.080 227.508, 229.309 227.927, 229.920 227.549 C 231.548 226.543, 230.220 225, 227.727 225 C 225.741 225, 225.699 225.127, 227.190 226.618 M 101.538 228.348 C 99.430 229.890, 100.238 232, 102.937 232 C 105.140 232, 107.420 229.488, 106.527 228.044 C 105.646 226.618, 103.746 226.734, 101.538 228.348 M 191.500 228 C 191.840 228.550, 192.766 229, 193.559 229 C 194.352 229, 195 228.550, 195 228 C 195 227.450, 194.073 227, 192.941 227 C 191.809 227, 191.160 227.450, 191.500 228 M 209 229 C 208.146 230.596, 208.240 231, 209.465 231 C 210.309 231, 211 230.355, 211 229.566 C 211 228.770, 212.223 227.948, 213.750 227.716 C 216.337 227.324, 216.310 227.291, 213.285 227.150 C 210.994 227.043, 209.763 227.575, 209 229 M 232 229.559 C 232 230.416, 232.450 230.840, 233 230.500 C 233.550 230.160, 234 229.459, 234 228.941 C 234 228.423, 233.550 228, 233 228 C 232.450 228, 232 228.702, 232 229.559 M 92 230.559 C 92 231.416, 92.450 231.840, 93 231.500 C 93.550 231.160, 94 230.459, 94 229.941 C 94 229.423, 93.550 229, 93 229 C 92.450 229, 92 229.702, 92 230.559 M 214.084 229.948 C 212.238 231.089, 211.642 239.351, 213.456 238.655 C 214.353 238.311, 214.613 238.764, 214.270 240.075 C 213.623 242.548, 215.198 242.544, 217.439 240.067 C 218.401 239.005, 219.821 238.378, 220.594 238.674 C 221.367 238.971, 222 238.716, 222 238.107 C 222 237.498, 221.325 237, 220.500 237 C 219.576 237, 219 236.062, 219 234.559 C 219 230.977, 220.170 230.851, 223.142 234.114 C 224.595 235.710, 225.383 237.264, 224.892 237.567 C 224.401 237.870, 224 238.724, 224 239.465 C 224 240.540, 224.700 240.598, 227.452 239.753 C 231.987 238.361, 232.979 236, 229.028 236 C 225.381 236, 224.220 234.294, 226.650 232.505 C 228.197 231.366, 228.254 231.061, 227 230.646 C 223.665 229.540, 219.027 229.418, 218.687 230.427 C 218.439 231.162, 217.870 231.125, 216.879 230.307 C 216.031 229.608, 214.875 229.459, 214.084 229.948 M 232.522 231.913 C 230.610 232.660, 230.620 232.726, 232.824 233.906 C 235.841 235.520, 239.397 234.932, 239.813 232.750 C 240.069 231.406, 239.492 231.016, 237.323 231.070 C 235.770 231.109, 233.610 231.488, 232.522 231.913 M 269.250 231.662 C 267.820 232.239, 267.551 234, 268.893 234 C 269.384 234, 270.045 233.325, 270.362 232.500 C 270.678 231.675, 270.839 231.036, 270.719 231.079 C 270.598 231.122, 269.938 231.385, 269.250 231.662 M 175.543 233.931 C 174.521 235.584, 176.648 235.979, 178.603 234.500 C 180.438 233.111, 180.428 233.063, 178.309 233.032 C 177.104 233.014, 175.859 233.419, 175.543 233.931 M 183.020 235.476 C 182.231 236.426, 182.155 237, 182.819 237 C 184.027 237, 185.436 235.103, 184.743 234.409 C 184.491 234.158, 183.716 234.638, 183.020 235.476 M 103.543 236.931 C 102.803 238.128, 104.684 239.313, 106.016 238.490 C 107.135 237.799, 106.400 236, 105 236 C 104.515 236, 103.859 236.419, 103.543 236.931 M 112.500 237 C 112.840 237.550, 113.541 238, 114.059 238 C 114.577 238, 115 237.550, 115 237 C 115 236.450, 114.298 236, 113.441 236 C 112.584 236, 112.160 236.450, 112.500 237 M 147.432 239.250 C 146.398 240.488, 146.158 240.973, 146.898 240.328 C 147.638 239.684, 148.864 239.394, 149.622 239.685 C 150.440 239.999, 151 239.561, 151 238.607 C 151 236.360, 149.640 236.605, 147.432 239.250 M 236.446 238.087 C 236.077 238.685, 236.215 239.615, 236.753 240.153 C 237.392 240.792, 237.920 240.414, 238.272 239.066 C 238.840 236.895, 237.595 236.228, 236.446 238.087 M 179.250 238.662 C 177.834 239.234, 177.530 242, 178.883 242 C 179.369 242, 180.002 241.100, 180.290 240 C 180.577 238.900, 180.742 238.036, 180.656 238.079 C 180.570 238.122, 179.938 238.385, 179.250 238.662 M 294 239.573 C 294 240.505, 294.680 241.015, 295.667 240.823 C 298.176 240.337, 298.520 238, 296.083 238 C 294.855 238, 294 238.646, 294 239.573 M 305 241.622 C 305 243.840, 305.232 244.053, 306.500 243 C 307.325 242.315, 308 241.135, 308 240.378 C 308 239.620, 307.325 239, 306.500 239 C 305.548 239, 305 239.958, 305 241.622 M 167 241.023 C 167 241.595, 167.694 242.329, 168.543 242.655 C 170.889 243.555, 171.164 242.583, 168.955 241.204 C 167.717 240.431, 167 240.365, 167 241.023 M 242 241 C 242 241.550, 242.423 242, 242.941 242 C 243.459 242, 244.160 241.550, 244.500 241 C 244.840 240.450, 244.416 240, 243.559 240 C 242.702 240, 242 240.450, 242 241 M 139.513 241.979 C 139.181 242.517, 139.890 244.284, 141.089 245.906 C 143.387 249.015, 143.114 252, 140.531 252 C 139.689 252, 139 252.450, 139 253 C 139 253.550, 140.800 254, 143 254 C 146.797 254, 148.180 252.847, 146 251.500 C 145.450 251.160, 145 249.559, 145 247.941 C 145 245.562, 144.570 244.997, 142.750 244.985 C 141.080 244.973, 140.855 244.744, 141.878 244.096 C 142.636 243.616, 142.947 242.723, 142.569 242.112 C 141.720 240.738, 140.318 240.677, 139.513 241.979 M 194.983 242.813 C 193.632 243.907, 192.987 245.170, 193.421 245.872 C 193.933 246.701, 194.782 246.276, 196.194 244.481 C 198.726 241.262, 198.049 240.330, 194.983 242.813 M 319 242.441 C 319 243.298, 319.450 244, 320 244 C 320.550 244, 321 243.577, 321 243.059 C 321 242.541, 320.550 241.840, 320 241.500 C 319.450 241.160, 319 241.584, 319 242.441 M 226.261 243.954 C 225.493 245.184, 225.404 246.131, 226.020 246.513 C 227.496 247.425, 229 246.127, 229 243.941 C 229 241.455, 227.818 241.460, 226.261 243.954 M 14 243.801 C 14 245.640, 16.590 249.985, 17.691 249.992 C 19.909 250.007, 19.826 248.499, 17.456 245.744 C 15.056 242.954, 14 242.360, 14 243.801 M 233.493 245.023 C 232.618 247.778, 233.215 248.294, 235.413 246.687 C 236.975 245.545, 237.005 245.249, 235.674 244.145 C 234.425 243.108, 234.053 243.257, 233.493 245.023 M 248.583 243.866 C 248.152 244.563, 248.070 245.403, 248.400 245.733 C 249.295 246.628, 250.271 245.312, 249.787 243.862 C 249.449 242.846, 249.213 242.846, 248.583 243.866 M 148.707 246.771 C 147.065 248.585, 147.101 248.725, 149.493 249.815 C 152.190 251.044, 152.575 250.315, 151.144 246.685 C 150.458 244.945, 150.356 244.949, 148.707 246.771 M 169.655 246.542 C 170.310 248.249, 172.154 248.039, 172.771 246.188 C 172.991 245.528, 172.254 245, 171.115 245 C 169.677 245, 169.240 245.461, 169.655 246.542 M 265.459 246.067 C 264.383 247.808, 265.608 248.177, 266.980 246.524 C 267.769 245.574, 267.845 245, 267.181 245 C 266.597 245, 265.821 245.480, 265.459 246.067 M 273.738 245.692 C 272.769 245.945, 272.233 246.567, 272.547 247.076 C 273.402 248.460, 274.713 248.192, 275.362 246.500 C 275.678 245.675, 275.839 245.052, 275.719 245.116 C 275.598 245.180, 274.707 245.439, 273.738 245.692 M 223.032 247.191 C 223.014 248.121, 223.480 249.179, 224.067 249.541 C 225.829 250.630, 226.076 249.482, 224.521 247.427 C 223.241 245.735, 223.060 245.706, 223.032 247.191 M 129 249.917 C 129 251.521, 128.438 253.060, 127.750 253.338 C 127.063 253.615, 127.480 253.878, 128.677 253.921 C 130.938 254.003, 131.945 251.928, 131.185 248.750 C 130.511 245.932, 129 246.739, 129 249.917 M 204.389 248.570 C 204.725 249.447, 205 250.378, 205 250.641 C 205 250.903, 205.450 250.840, 206 250.500 C 207.484 249.583, 207.213 248.296, 205.389 247.596 C 204.209 247.143, 203.941 247.404, 204.389 248.570 M 240.447 248.278 C 240.083 249.225, 239.159 250, 238.393 250 C 237.627 250, 237 250.450, 237 251 C 237 251.550, 237.675 252, 238.500 252 C 239.325 252, 240 251.583, 240 251.073 C 240 250.564, 240.663 250.001, 241.474 249.823 C 242.503 249.598, 242.670 249.056, 242.027 248.028 C 241.240 246.768, 241.012 246.804, 240.447 248.278 M 250.985 249.518 C 250.070 250.620, 249.999 251.399, 250.743 252.143 C 251.487 252.887, 252.006 252.556, 252.492 251.025 C 253.377 248.236, 252.652 247.510, 250.985 249.518 M 91.496 250.007 C 90.711 251.276, 93.511 252.420, 95.059 251.464 C 95.901 250.943, 95.847 250.518, 94.857 249.890 C 93.069 248.758, 92.250 248.786, 91.496 250.007 M 233 251.941 C 233 252.459, 233.450 253.160, 234 253.500 C 234.550 253.840, 235 253.416, 235 252.559 C 235 251.702, 234.550 251, 234 251 C 233.450 251, 233 251.423, 233 251.941 M 150 255.441 C 150 256.234, 150.450 257.160, 151 257.500 C 151.550 257.840, 152 257.191, 152 256.059 C 152 254.927, 151.550 254, 151 254 C 150.450 254, 150 254.648, 150 255.441 M 104 255.878 C 104 256.360, 104.675 257.315, 105.500 258 C 107.128 259.351, 107.332 259.028, 106.393 256.582 C 105.750 254.907, 104 254.392, 104 255.878 M 268 258.622 C 268 259.951, 268.271 260.020, 269.500 259 C 270.325 258.315, 271 257.585, 271 257.378 C 271 257.170, 270.325 257, 269.500 257 C 268.675 257, 268 257.730, 268 258.622 M 254 260.441 C 254 261.298, 254.450 262, 255 262 C 255.550 262, 256 261.577, 256 261.059 C 256 260.541, 255.550 259.840, 255 259.500 C 254.450 259.160, 254 259.584, 254 260.441 M 80 347.583 C 80 349.349, 82.153 349.042, 82.771 347.188 C 82.989 346.534, 82.454 346, 81.583 346 C 80.713 346, 80 346.712, 80 347.583 M 115.688 366.645 C 114.921 367.412, 118.341 372.986, 119.583 372.994 C 121.616 373.006, 121.897 371.773, 120.388 369.469 C 118.837 367.102, 116.585 365.749, 115.688 366.645" stroke="none" fill="#fabb5c" fill-rule="evenodd"/></svg>