<svg width="19" height="24" viewBox="0 0 19 24" fill="none" xmlns="http://www.w3.org/2000/svg">
<g clip-path="url(#clip0_2_29)">
<path d="M18.1444 23.2869H0.376383C0.325496 23.2868 0.275152 23.2771 0.228385 23.2583C0.181618 23.2395 0.139396 23.212 0.104263 23.1774C0.0691311 23.1429 0.0418152 23.102 0.0239622 23.0573C0.00610918 23.0126 -0.0019112 22.9649 0.000383539 22.9173L0.846383 6.24606C0.851012 6.15545 0.89266 6.07 0.962678 6.00745C1.0327 5.94489 1.1257 5.91005 1.22238 5.91016H17.2984C17.3951 5.91005 17.4881 5.94489 17.5581 6.00745C17.6281 6.07 17.6698 6.15545 17.6744 6.24606L18.5204 22.9163C18.5227 22.964 18.5147 23.0116 18.4968 23.0564C18.479 23.1011 18.4516 23.142 18.4165 23.1765C18.3814 23.211 18.3391 23.2385 18.2924 23.2574C18.2456 23.2761 18.1953 23.2859 18.1444 23.286V23.2869ZM0.770384 22.5814H17.7494L16.9394 6.61574H1.58038L0.770384 22.5814Z" fill="white"/>
<path d="M13.3244 8.02691C13.2246 8.02691 13.129 7.98975 13.0585 7.92358C12.988 7.85742 12.9484 7.76769 12.9484 7.67412V4.16686C12.9484 3.24888 12.5597 2.36848 11.8679 1.71936C11.1761 1.07025 10.2377 0.70558 9.25936 0.70558C8.28098 0.70558 7.34266 1.07025 6.65084 1.71936C5.95902 2.36848 5.57036 3.24888 5.57036 4.16686V7.67412C5.57036 7.76769 5.53075 7.85742 5.46023 7.92358C5.38972 7.98975 5.29408 8.02691 5.19436 8.02691C5.09464 8.02691 4.999 7.98975 4.92849 7.92358C4.85797 7.85742 4.81836 7.76769 4.81836 7.67412V4.16686C4.81836 3.06174 5.28625 2.00189 6.1191 1.22045C6.95195 0.439008 8.08153 0 9.25936 0C10.4372 0 11.5668 0.439008 12.3996 1.22045C13.2325 2.00189 13.7004 3.06174 13.7004 4.16686V7.67412C13.7004 7.76769 13.6607 7.85742 13.5902 7.92358C13.5197 7.98975 13.4241 8.02691 13.3244 8.02691Z" fill="white"/>
</g>
<defs>
<clipPath id="clip0_2_29">
<rect width="19" height="23.4568" fill="white"/>
</clipPath>
</defs>
</svg>
