<svg xmlns="http://www.w3.org/2000/svg" width="418" height="418" viewBox="0 0 418 418" version="1.1"><path d="M 223.638 146.500 C 223.322 147.325, 222.389 148, 221.567 148 C 220.744 148, 219.587 148.904, 218.995 150.009 C 218.192 151.511, 217.299 151.862, 215.460 151.401 C 213.438 150.893, 213 151.153, 213 152.860 C 213 154.387, 213.441 154.768, 214.664 154.299 C 215.783 153.869, 216.091 154.043, 215.605 154.830 C 214.589 156.474, 212.324 156.286, 211.638 154.500 C 210.783 152.270, 209 152.685, 209 155.115 C 209 157.131, 208.885 157.154, 206.546 155.622 C 204.271 154.132, 204.017 154.142, 203.076 155.757 C 202.510 156.729, 202.047 156.947, 202.030 156.250 C 201.986 154.416, 199 154.721, 199 156.559 C 199 157.418, 198.516 157.819, 197.923 157.453 C 197.210 157.012, 197.008 157.812, 197.325 159.824 C 197.712 162.278, 197.503 162.746, 196.238 162.261 C 195.324 161.910, 194.930 162.078, 195.292 162.663 C 195.633 163.215, 195.276 163.667, 194.499 163.667 C 193.722 163.667, 192.848 163.047, 192.558 162.290 C 192.169 161.278, 191.537 161.177, 190.168 161.910 C 188.880 162.599, 187.951 162.551, 187.153 161.753 C 186.519 161.119, 186 160.985, 186 161.455 C 186 161.925, 185.117 161.511, 184.037 160.534 C 182.958 159.557, 181.406 159.014, 180.588 159.328 C 179.582 159.714, 179.282 159.430, 179.658 158.449 C 180.027 157.486, 179.554 157, 178.246 157 C 176.658 157, 176.362 157.533, 176.717 159.750 C 177.076 161.993, 176.942 162.224, 175.992 161 C 175.020 159.749, 174.905 159.862, 175.300 161.675 C 175.645 163.260, 175.386 163.702, 174.346 163.303 C 173.479 162.970, 173.033 163.294, 173.209 164.127 C 173.378 164.923, 172.813 165.388, 171.864 165.232 C 170.964 165.085, 169.965 165.648, 169.645 166.482 C 168.958 168.272, 166 168.537, 166 166.809 C 166 164.917, 163.067 169.306, 163.032 171.250 C 163.014 172.213, 163.450 173, 164 173 C 164.550 173, 165 172.553, 165 172.006 C 165 171.460, 166.012 171.201, 167.250 171.432 C 168.488 171.663, 169.864 171.885, 170.309 171.926 C 170.754 171.967, 170.793 172.526, 170.395 173.170 C 169.909 173.957, 170.217 174.131, 171.336 173.701 C 172.251 173.350, 173 173.499, 173 174.031 C 173 174.564, 173.480 175, 174.067 175 C 174.680 175, 174.864 174.147, 174.500 173 C 174.136 171.853, 174.320 171, 174.933 171 C 175.520 171, 176 171.450, 176 172 C 176 172.550, 176.477 173, 177.059 173 C 177.641 173, 177.858 172.579, 177.540 172.064 C 177.181 171.483, 178.198 171.483, 180.224 172.064 C 182.019 172.579, 183.570 173, 183.672 173 C 183.774 173, 184.561 172.296, 185.421 171.436 C 186.281 170.576, 187.488 170.184, 188.104 170.564 C 188.798 170.993, 188.017 172.020, 186.049 173.266 C 183.677 174.768, 182.588 174.988, 181.738 174.138 C 179.893 172.293, 179.002 172.831, 179.897 175.250 C 180.355 176.488, 181.353 177.502, 182.115 177.505 C 182.907 177.508, 183.500 178.532, 183.500 179.899 C 183.500 181.334, 184.299 182.633, 185.500 183.152 C 187.026 183.811, 186.698 183.931, 184.116 183.661 C 181.584 183.396, 180.621 183.733, 180.290 185 C 179.993 186.136, 179.113 186.553, 177.619 186.267 C 174.631 185.696, 168.500 187.352, 168.500 188.730 C 168.500 190.443, 167.390 191.192, 162.084 193.060 C 159.377 194.014, 155.101 194.707, 152.581 194.602 C 150.062 194.497, 148.015 194.655, 148.033 194.955 C 148.052 195.255, 148.995 196.616, 150.129 197.979 C 151.999 200.227, 152.305 200.304, 153.400 198.806 C 154.522 197.272, 154.695 197.273, 155.841 198.827 C 156.519 199.747, 156.806 199.938, 156.478 199.250 C 156.130 198.519, 156.554 198, 157.500 198 C 158.390 198, 158.840 197.550, 158.500 197 C 158.160 196.450, 158.407 196, 159.048 196 C 159.689 196, 159.982 196.603, 159.700 197.341 C 159.417 198.078, 159.593 199.316, 160.093 200.091 C 160.866 201.292, 161.145 201.279, 161.985 200 C 162.825 198.720, 162.972 198.760, 162.985 200.275 C 162.993 201.264, 161.875 202.477, 160.460 203.015 C 158.257 203.853, 158.069 204.260, 159.041 206.076 C 160.040 207.942, 161.500 207.982, 161.500 206.142 C 161.500 205.276, 165.611 200, 166.286 200 C 166.559 200, 167.088 201.214, 167.460 202.698 C 167.975 204.747, 168.346 205.058, 169.007 203.989 C 169.485 203.216, 171.070 202.519, 172.530 202.441 C 174.973 202.310, 175.153 202.565, 174.793 205.650 C 174.430 208.760, 174.606 209, 177.260 209 C 178.832 209, 179.859 208.581, 179.543 208.069 C 179.226 207.557, 179.432 206.851, 180 206.500 C 180.568 206.149, 180.755 205.413, 180.416 204.864 C 180.071 204.305, 180.613 204.006, 181.650 204.183 C 182.718 204.366, 183.394 203.972, 183.250 203.250 C 182.870 201.351, 183.799 201.755, 185.008 204.014 C 185.601 205.122, 185.729 205.969, 185.293 205.896 C 183.407 205.580, 182 206.077, 182 207.059 C 182 207.655, 182.547 207.777, 183.250 207.340 C 183.938 206.912, 185.625 206.649, 187 206.756 C 188.375 206.862, 188.938 206.698, 188.250 206.391 C 186.296 205.519, 186.778 203.376, 189.300 201.723 C 191.264 200.436, 191.959 200.414, 194.050 201.572 C 195.398 202.319, 196.133 202.945, 195.684 202.965 C 195.236 202.984, 193.998 202.534, 192.934 201.965 C 190.777 200.811, 190.155 202.354, 192.250 203.663 C 194.558 205.105, 196 204.838, 197.505 202.690 L 199 200.555 199 202.893 C 199 205.156, 199.079 205.178, 201.500 203.592 C 203.228 202.460, 204 202.329, 204 203.168 C 204 203.836, 204.606 203.553, 205.347 202.540 C 206.281 201.263, 206.913 201.051, 207.406 201.849 C 207.798 202.482, 207.641 203, 207.059 203 C 206.477 203, 206.015 203.787, 206.033 204.750 C 206.062 206.237, 206.353 206.157, 207.972 204.215 C 209.431 202.466, 210.489 202.085, 212.491 202.587 C 214.673 203.135, 215.021 203.678, 214.598 205.872 C 212.908 214.616, 211.820 224.153, 212.440 224.774 C 213.853 226.187, 216 221.548, 216.011 217.059 C 216.026 210.862, 217.080 204.931, 218.059 205.536 C 219.487 206.419, 220.210 203.958, 218.964 202.456 C 217.958 201.245, 218.191 201, 220.346 201 C 222.238 201, 222.782 201.405, 222.362 202.500 C 221.604 204.475, 222.975 204.399, 226.027 202.298 C 228.356 200.695, 228.420 200.695, 227.128 202.298 C 225.941 203.770, 225.982 204, 227.437 204 C 228.432 204, 228.833 204.461, 228.420 205.130 C 227.994 205.819, 228.263 206.069, 229.111 205.769 C 229.875 205.500, 230.387 204.284, 230.249 203.066 C 229.914 200.119, 233.117 200.640, 234.487 203.756 C 235.562 206.199, 238.856 206.744, 240.800 204.800 C 241.733 203.867, 242 203.867, 242 204.800 C 242 205.460, 242.450 206, 243 206 C 243.550 206, 244 205.403, 244 204.673 C 244 203.768, 244.953 203.486, 247 203.787 C 249.399 204.139, 250.016 203.854, 250.079 202.363 C 250.124 201.310, 250.377 201.044, 250.662 201.750 C 250.940 202.438, 252.465 203, 254.052 203 C 256.199 203, 256.791 203.382, 256.365 204.492 C 255.603 206.478, 258.614 207.565, 260.513 205.989 C 261.693 205.010, 262.310 205.012, 263.500 206 C 264.724 207.016, 265 206.959, 265 205.690 C 265 204.835, 265.877 203.856, 266.949 203.516 C 269.241 202.789, 268.786 200.867, 265.330 196.673 C 262.689 193.470, 262.157 191.055, 264.524 193.020 C 265.362 193.716, 266.150 194.108, 266.274 193.893 C 266.398 193.677, 266.982 192.627, 267.571 191.560 C 268.161 190.492, 269.286 189.445, 270.071 189.233 C 271.252 188.915, 271.245 189.025, 270.029 189.869 C 268.147 191.176, 269.070 192.195, 271.029 190.974 C 273.074 189.699, 271.072 186.614, 267.898 186.149 C 266.579 185.956, 265.169 185.281, 264.765 184.649 C 264.241 183.829, 264.026 183.874, 264.015 184.809 C 264.007 185.529, 263.550 185.840, 263 185.500 C 260.840 184.165, 262.131 182.066, 265.500 181.434 C 269.038 180.770, 270.484 178.899, 267.250 179.170 C 263.633 179.473, 262 178.954, 262 177.500 C 262 176.675, 261.550 176, 261 176 C 260.450 176, 260 176.637, 260 177.414 C 260 178.513, 258.438 178.795, 253 178.679 C 249.150 178.596, 246 178.185, 246 177.764 C 246 177.344, 246.450 177, 247 177 C 248.911 177, 247.986 174.951, 245.579 173.854 C 244.155 173.205, 243.376 172.185, 243.686 171.376 C 243.999 170.560, 243.560 170, 242.607 170 C 241.723 170, 241 169.561, 241 169.025 C 241 168.391, 241.898 168.391, 243.565 169.025 C 247.390 170.479, 248.154 170.223, 246.758 167.957 C 246.066 166.832, 244.770 166.101, 243.877 166.330 C 242.682 166.636, 242.355 166.185, 242.638 164.623 C 242.849 163.455, 242.755 163.063, 242.428 163.750 C 242.101 164.438, 240.746 165, 239.417 165 C 238.088 165, 237 165.408, 237 165.906 C 237 167.216, 233.228 166.037, 232.657 164.548 C 232.313 163.651, 233.306 163.357, 236.145 163.518 C 239.460 163.705, 240.004 163.474, 239.444 162.121 C 239.075 161.229, 238.664 159.825, 238.530 159 C 238.396 158.175, 238.482 158.068, 238.719 158.762 C 238.957 159.456, 239.602 159.746, 240.152 159.406 C 240.703 159.066, 242.036 159.735, 243.116 160.894 C 245.065 162.986, 246.222 163.416, 248.894 163.042 C 249.660 162.934, 250.560 163.218, 250.894 163.673 C 251.227 164.128, 252.512 165.066, 253.750 165.758 C 255.645 166.818, 256 166.779, 256 165.508 C 256 164.667, 255.116 164, 254 164 C 252.900 164, 252 163.582, 252 163.071 C 252 162.561, 251.277 161.420, 250.394 160.537 C 249.075 159.218, 248.513 159.159, 247.250 160.208 C 245.912 161.318, 245.814 161.161, 246.500 159 C 247.184 156.846, 247.085 156.684, 245.761 157.783 C 244.507 158.824, 244.125 158.768, 243.628 157.474 C 243.279 156.564, 243.441 156.155, 244.011 156.507 C 244.555 156.843, 245 156.684, 245 156.153 C 245 155.622, 245.900 155.423, 247 155.710 C 248.391 156.074, 249 155.741, 249 154.617 C 249 153.727, 249.034 152.674, 249.075 152.275 C 249.116 151.876, 248.619 151.373, 247.970 151.157 C 247.194 150.898, 247.011 151.460, 247.436 152.799 C 247.976 154.501, 247.734 154.743, 245.957 154.278 C 244.339 153.855, 244.150 153.517, 245.165 152.861 C 246.268 152.149, 246.255 151.843, 245.091 151.093 C 244.316 150.593, 243.124 150.399, 242.442 150.661 C 241.760 150.922, 240.901 150.648, 240.532 150.052 C 240.163 149.455, 239.443 149.226, 238.931 149.543 C 238.419 149.859, 238 149.716, 238 149.226 C 238 148.176, 234.728 147.987, 234 148.994 C 233.725 149.374, 232.075 149.963, 230.333 150.301 C 227.491 150.854, 227.061 150.613, 226.135 147.958 C 224.974 144.627, 224.470 144.333, 223.638 146.500 M 221 150 C 221 150.733, 221.300 151.033, 221.667 150.667 C 222.033 150.300, 222.033 149.700, 221.667 149.333 C 221.300 148.967, 221 149.267, 221 150 M 234.612 150.819 C 234.287 151.344, 234.579 151.754, 235.261 151.730 C 238.599 151.609, 240 152.133, 240 153.500 C 240 154.325, 240.466 155, 241.035 155 C 241.737 155, 241.726 154.356, 241 153 C 240.411 151.900, 239.532 151, 239.047 151 C 238.561 151, 237.497 150.744, 236.683 150.432 C 235.869 150.119, 234.937 150.294, 234.612 150.819 M 220.333 152.667 C 220.700 153.033, 221.300 153.033, 221.667 152.667 C 222.033 152.300, 221.733 152, 221 152 C 220.267 152, 219.967 152.300, 220.333 152.667 M 232 154 C 232 154.733, 232.300 155.033, 232.667 154.667 C 233.033 154.300, 233.033 153.700, 232.667 153.333 C 232.300 152.967, 232 153.267, 232 154 M 234 154.583 C 234 156.349, 236.153 156.042, 236.771 154.188 C 236.989 153.534, 236.454 153, 235.583 153 C 234.713 153, 234 153.713, 234 154.583 M 229.333 156.667 C 229.700 157.033, 230.300 157.033, 230.667 156.667 C 231.033 156.300, 230.733 156, 230 156 C 229.267 156, 228.967 156.300, 229.333 156.667 M 232 156.500 C 232 156.775, 232.225 157, 232.500 157 C 232.775 157, 233 156.775, 233 156.500 C 233 156.225, 232.775 156, 232.500 156 C 232.225 156, 232 156.225, 232 156.500 M 213 157.500 C 213 157.775, 213.225 158, 213.500 158 C 213.775 158, 214 157.775, 214 157.500 C 214 157.225, 213.775 157, 213.500 157 C 213.225 157, 213 157.225, 213 157.500 M 203 158.500 C 203 158.775, 203.225 159, 203.500 159 C 203.775 159, 204 158.775, 204 158.500 C 204 158.225, 203.775 158, 203.500 158 C 203.225 158, 203 158.225, 203 158.500 M 207 159.500 C 206.315 160.325, 204.460 161, 202.878 161 C 201.295 161, 200 161.498, 200 162.107 C 200 162.718, 200.728 162.935, 201.627 162.590 C 202.521 162.246, 203.834 162.447, 204.543 163.035 C 205.512 163.840, 205.999 163.580, 206.504 161.988 C 206.873 160.823, 208.149 159.478, 209.338 158.999 C 210.859 158.385, 211.018 158.108, 209.872 158.063 C 208.977 158.029, 207.685 158.675, 207 159.500 M 215 159.500 C 215 159.775, 215.225 160, 215.500 160 C 215.775 160, 216 159.775, 216 159.500 C 216 159.225, 215.775 159, 215.500 159 C 215.225 159, 215 159.225, 215 159.500 M 181 161 C 181 161.733, 181.300 162.033, 181.667 161.667 C 182.033 161.300, 182.033 160.700, 181.667 160.333 C 181.300 159.967, 181 160.267, 181 161 M 235.333 160.667 C 235.700 161.033, 236.300 161.033, 236.667 160.667 C 237.033 160.300, 236.733 160, 236 160 C 235.267 160, 234.967 160.300, 235.333 160.667 M 207.188 163.063 C 207.428 163.784, 208.216 164.572, 208.938 164.813 C 209.688 165.063, 210.063 164.688, 209.813 163.938 C 209.572 163.216, 208.784 162.428, 208.063 162.188 C 207.313 161.938, 206.938 162.313, 207.188 163.063 M 229.500 164 C 229.840 164.550, 230.343 165, 230.618 165 C 230.893 165, 230.840 164.550, 230.500 164 C 230.160 163.450, 229.657 163, 229.382 163 C 229.107 163, 229.160 163.450, 229.500 164 M 200 166.500 C 200 166.775, 200.225 167, 200.500 167 C 200.775 167, 201 166.775, 201 166.500 C 201 166.225, 200.775 166, 200.500 166 C 200.225 166, 200 166.225, 200 166.500 M 196 168.500 C 196 168.775, 196.225 169, 196.500 169 C 196.775 169, 197 168.775, 197 168.500 C 197 168.225, 196.775 168, 196.500 168 C 196.225 168, 196 168.225, 196 168.500 M 236.636 169.506 C 236.321 170.328, 236.472 171, 236.972 171 C 238.328 171, 239.170 169.223, 238.121 168.575 C 237.620 168.265, 236.952 168.684, 236.636 169.506 M 201 169.500 C 201 169.775, 201.225 170, 201.500 170 C 201.775 170, 202 169.775, 202 169.500 C 202 169.225, 201.775 169, 201.500 169 C 201.225 169, 201 169.225, 201 169.500 M 216.079 171.583 C 216.127 172.748, 216.364 172.985, 216.683 172.188 C 216.972 171.466, 216.936 170.603, 216.604 170.271 C 216.272 169.939, 216.036 170.529, 216.079 171.583 M 231 170.500 C 231 170.775, 231.225 171, 231.500 171 C 231.775 171, 232 170.775, 232 170.500 C 232 170.225, 231.775 170, 231.500 170 C 231.225 170, 231 170.225, 231 170.500 M 224 172.500 C 224 172.775, 224.225 173, 224.500 173 C 224.775 173, 225 172.775, 225 172.500 C 225 172.225, 224.775 172, 224.500 172 C 224.225 172, 224 172.225, 224 172.500 M 187.598 173.736 C 186.525 174.809, 186.968 176, 188.441 176 C 189.234 176, 190.131 175.597, 190.435 175.105 C 191.071 174.075, 188.499 172.834, 187.598 173.736 M 236 174 C 236 174.733, 236.300 175.033, 236.667 174.667 C 237.033 174.300, 237.033 173.700, 236.667 173.333 C 236.300 172.967, 236 173.267, 236 174 M 240 173.500 C 240 173.775, 240.225 174, 240.500 174 C 240.775 174, 241 173.775, 241 173.500 C 241 173.225, 240.775 173, 240.500 173 C 240.225 173, 240 173.225, 240 173.500 M 244 176.500 C 244 176.775, 244.225 177, 244.500 177 C 244.775 177, 245 176.775, 245 176.500 C 245 176.225, 244.775 176, 244.500 176 C 244.225 176, 244 176.225, 244 176.500 M 209 178.500 C 209 178.775, 209.225 179, 209.500 179 C 209.775 179, 210 178.775, 210 178.500 C 210 178.225, 209.775 178, 209.500 178 C 209.225 178, 209 178.225, 209 178.500 M 235 178.500 C 235 178.775, 235.225 179, 235.500 179 C 235.775 179, 236 178.775, 236 178.500 C 236 178.225, 235.775 178, 235.500 178 C 235.225 178, 235 178.225, 235 178.500 M 185 179.500 C 185 179.775, 185.225 180, 185.500 180 C 185.775 180, 186 179.775, 186 179.500 C 186 179.225, 185.775 179, 185.500 179 C 185.225 179, 185 179.225, 185 179.500 M 187.333 179.667 C 187.700 180.033, 188.300 180.033, 188.667 179.667 C 189.033 179.300, 188.733 179, 188 179 C 187.267 179, 186.967 179.300, 187.333 179.667 M 193.667 182.667 C 192.742 183.591, 192.829 186, 193.787 186 C 194.220 186, 194.642 185.100, 194.725 184 C 194.887 181.851, 194.708 181.625, 193.667 182.667 M 205 182.500 C 205 182.775, 205.225 183, 205.500 183 C 205.775 183, 206 182.775, 206 182.500 C 206 182.225, 205.775 182, 205.500 182 C 205.225 182, 205 182.225, 205 182.500 M 212 183 C 212 183.733, 212.300 184.033, 212.667 183.667 C 213.033 183.300, 213.033 182.700, 212.667 182.333 C 212.300 181.967, 212 182.267, 212 183 M 234 182.500 C 234 182.775, 234.225 183, 234.500 183 C 234.775 183, 235 182.775, 235 182.500 C 235 182.225, 234.775 182, 234.500 182 C 234.225 182, 234 182.225, 234 182.500 M 196 183.500 C 196 183.775, 196.225 184, 196.500 184 C 196.775 184, 197 183.775, 197 183.500 C 197 183.225, 196.775 183, 196.500 183 C 196.225 183, 196 183.225, 196 183.500 M 216.333 185.667 C 216.700 186.033, 217.300 186.033, 217.667 185.667 C 218.033 185.300, 217.733 185, 217 185 C 216.267 185, 215.967 185.300, 216.333 185.667 M 227 186 C 227 186.733, 227.300 187.033, 227.667 186.667 C 228.033 186.300, 228.033 185.700, 227.667 185.333 C 227.300 184.967, 227 185.267, 227 186 M 202 186.500 C 202 186.775, 202.225 187, 202.500 187 C 202.775 187, 203 186.775, 203 186.500 C 203 186.225, 202.775 186, 202.500 186 C 202.225 186, 202 186.225, 202 186.500 M 211 186.500 C 211 186.775, 211.225 187, 211.500 187 C 211.775 187, 212 186.775, 212 186.500 C 212 186.225, 211.775 186, 211.500 186 C 211.225 186, 211 186.225, 211 186.500 M 196.333 187.667 C 196.700 188.033, 197.300 188.033, 197.667 187.667 C 198.033 187.300, 197.733 187, 197 187 C 196.267 187, 195.967 187.300, 196.333 187.667 M 170 188.500 C 170 188.775, 170.225 189, 170.500 189 C 170.775 189, 171 188.775, 171 188.500 C 171 188.225, 170.775 188, 170.500 188 C 170.225 188, 170 188.225, 170 188.500 M 172 188.500 C 172 188.775, 172.225 189, 172.500 189 C 172.775 189, 173 188.775, 173 188.500 C 173 188.225, 172.775 188, 172.500 188 C 172.225 188, 172 188.225, 172 188.500 M 189.333 188.667 C 189.700 189.033, 190.300 189.033, 190.667 188.667 C 191.033 188.300, 190.733 188, 190 188 C 189.267 188, 188.967 188.300, 189.333 188.667 M 218 188.500 C 218 188.775, 218.225 189, 218.500 189 C 218.775 189, 219 188.775, 219 188.500 C 219 188.225, 218.775 188, 218.500 188 C 218.225 188, 218 188.225, 218 188.500 M 175 189.500 C 175 189.775, 175.225 190, 175.500 190 C 175.775 190, 176 189.775, 176 189.500 C 176 189.225, 175.775 189, 175.500 189 C 175.225 189, 175 189.225, 175 189.500 M 197.333 189.667 C 197.700 190.033, 198.300 190.033, 198.667 189.667 C 199.033 189.300, 198.733 189, 198 189 C 197.267 189, 196.967 189.300, 197.333 189.667 M 215.333 189.667 C 215.700 190.033, 216.300 190.033, 216.667 189.667 C 217.033 189.300, 216.733 189, 216 189 C 215.267 189, 214.967 189.300, 215.333 189.667 M 194.250 190.662 C 192.589 191.333, 192.648 193, 194.333 193 C 195.067 193, 195.667 192.325, 195.667 191.500 C 195.667 190.675, 195.629 190.036, 195.583 190.079 C 195.537 190.122, 194.938 190.385, 194.250 190.662 M 207 190.500 C 207 190.775, 207.225 191, 207.500 191 C 207.775 191, 208 190.775, 208 190.500 C 208 190.225, 207.775 190, 207.500 190 C 207.225 190, 207 190.225, 207 190.500 M 259.500 191 C 259.840 191.550, 260.541 192, 261.059 192 C 261.577 192, 262 191.550, 262 191 C 262 190.450, 261.298 190, 260.441 190 C 259.584 190, 259.160 190.450, 259.500 191 M 199.473 191.956 C 199.798 192.482, 200.803 192.629, 201.706 192.283 C 202.918 191.817, 203.187 192.071, 202.733 193.253 C 202.395 194.134, 202.715 195.348, 203.443 195.952 C 204.437 196.778, 204.920 196.651, 205.383 195.444 C 206.711 191.983, 206.060 191, 202.441 191 C 200.431 191, 199.139 191.416, 199.473 191.956 M 177 192.500 C 177 192.775, 177.225 193, 177.500 193 C 177.775 193, 178 192.775, 178 192.500 C 178 192.225, 177.775 192, 177.500 192 C 177.225 192, 177 192.225, 177 192.500 M 182 192.500 C 182 192.775, 182.225 193, 182.500 193 C 182.775 193, 183 192.775, 183 192.500 C 183 192.225, 182.775 192, 182.500 192 C 182.225 192, 182 192.225, 182 192.500 M 167 193.500 C 167 193.775, 167.225 194, 167.500 194 C 167.775 194, 168 193.775, 168 193.500 C 168 193.225, 167.775 193, 167.500 193 C 167.225 193, 167 193.225, 167 193.500 M 220 193.500 C 220 193.775, 220.225 194, 220.500 194 C 220.775 194, 221 193.775, 221 193.500 C 221 193.225, 220.775 193, 220.500 193 C 220.225 193, 220 193.225, 220 193.500 M 223 193.393 C 223 193.609, 223.698 194.054, 224.552 194.382 C 225.442 194.723, 225.843 194.555, 225.493 193.989 C 224.906 193.038, 223 192.583, 223 193.393 M 251 193.500 C 251 193.775, 251.225 194, 251.500 194 C 251.775 194, 252 193.775, 252 193.500 C 252 193.225, 251.775 193, 251.500 193 C 251.225 193, 251 193.225, 251 193.500 M 255 194 C 255 194.733, 255.300 195.033, 255.667 194.667 C 256.033 194.300, 256.033 193.700, 255.667 193.333 C 255.300 192.967, 255 193.267, 255 194 M 197.500 195 C 197.840 195.550, 198.541 196, 199.059 196 C 199.577 196, 200 195.550, 200 195 C 200 194.450, 199.298 194, 198.441 194 C 197.584 194, 197.160 194.450, 197.500 195 M 259.333 194.667 C 259.700 195.033, 260.300 195.033, 260.667 194.667 C 261.033 194.300, 260.733 194, 260 194 C 259.267 194, 258.967 194.300, 259.333 194.667 M 163.333 195.667 C 163.700 196.033, 164.300 196.033, 164.667 195.667 C 165.033 195.300, 164.733 195, 164 195 C 163.267 195, 162.967 195.300, 163.333 195.667 M 193 195.500 C 193 195.775, 193.225 196, 193.500 196 C 193.775 196, 194 195.775, 194 195.500 C 194 195.225, 193.775 195, 193.500 195 C 193.225 195, 193 195.225, 193 195.500 M 209 195.500 C 209 195.775, 209.225 196, 209.500 196 C 209.775 196, 210 195.775, 210 195.500 C 210 195.225, 209.775 195, 209.500 195 C 209.225 195, 209 195.225, 209 195.500 M 237 195.500 C 237 195.775, 237.225 196, 237.500 196 C 237.775 196, 238 195.775, 238 195.500 C 238 195.225, 237.775 195, 237.500 195 C 237.225 195, 237 195.225, 237 195.500 M 190 196.500 C 190 196.775, 190.225 197, 190.500 197 C 190.775 197, 191 196.775, 191 196.500 C 191 196.225, 190.775 196, 190.500 196 C 190.225 196, 190 196.225, 190 196.500 M 196 196.500 C 196 196.775, 196.225 197, 196.500 197 C 196.775 197, 197 196.775, 197 196.500 C 197 196.225, 196.775 196, 196.500 196 C 196.225 196, 196 196.225, 196 196.500 M 222 196.500 C 222 196.775, 222.225 197, 222.500 197 C 222.775 197, 223 196.775, 223 196.500 C 223 196.225, 222.775 196, 222.500 196 C 222.225 196, 222 196.225, 222 196.500 M 228 196.500 C 228 196.775, 228.225 197, 228.500 197 C 228.775 197, 229 196.775, 229 196.500 C 229 196.225, 228.775 196, 228.500 196 C 228.225 196, 228 196.225, 228 196.500 M 256 196.500 C 256 196.775, 256.225 197, 256.500 197 C 256.775 197, 257 196.775, 257 196.500 C 257 196.225, 256.775 196, 256.500 196 C 256.225 196, 256 196.225, 256 196.500 M 152 197.500 C 152 197.775, 152.225 198, 152.500 198 C 152.775 198, 153 197.775, 153 197.500 C 153 197.225, 152.775 197, 152.500 197 C 152.225 197, 152 197.225, 152 197.500 M 198 198 C 198 198.733, 198.300 199.033, 198.667 198.667 C 199.033 198.300, 199.033 197.700, 198.667 197.333 C 198.300 196.967, 198 197.267, 198 198 M 208 197.500 C 208 197.775, 208.225 198, 208.500 198 C 208.775 198, 209 197.775, 209 197.500 C 209 197.225, 208.775 197, 208.500 197 C 208.225 197, 208 197.225, 208 197.500 M 211 197.500 C 211 197.775, 211.225 198, 211.500 198 C 211.775 198, 212 197.775, 212 197.500 C 212 197.225, 211.775 197, 211.500 197 C 211.225 197, 211 197.225, 211 197.500 M 214.500 198 C 214.840 198.550, 215.343 199, 215.618 199 C 215.893 199, 215.840 198.550, 215.500 198 C 215.160 197.450, 214.657 197, 214.382 197 C 214.107 197, 214.160 197.450, 214.500 198 M 240.150 200 C 239.194 202.742, 239.293 202.999, 241.302 202.985 C 243.080 202.972, 243.214 202.787, 242 202.015 C 240.760 201.226, 240.718 200.709, 241.758 199.031 C 242.451 197.914, 242.607 197, 242.106 197 C 241.605 197, 240.725 198.350, 240.150 200 M 179.405 199.155 C 178.962 199.870, 179.130 200.038, 179.845 199.595 C 180.480 199.203, 181 198.684, 181 198.441 C 181 197.607, 180.117 198.002, 179.405 199.155 M 187 198.500 C 187 198.775, 187.225 199, 187.500 199 C 187.775 199, 188 198.775, 188 198.500 C 188 198.225, 187.775 198, 187.500 198 C 187.225 198, 187 198.225, 187 198.500 M 194.500 199 C 194.840 199.550, 195.316 200, 195.559 200 C 195.802 200, 196 199.550, 196 199 C 196 198.450, 195.523 198, 194.941 198 C 194.359 198, 194.160 198.450, 194.500 199 M 175 199.500 C 175 199.775, 175.225 200, 175.500 200 C 175.775 200, 176 199.775, 176 199.500 C 176 199.225, 175.775 199, 175.500 199 C 175.225 199, 175 199.225, 175 199.500 M 182 199.500 C 182 199.775, 182.225 200, 182.500 200 C 182.775 200, 183 199.775, 183 199.500 C 183 199.225, 182.775 199, 182.500 199 C 182.225 199, 182 199.225, 182 199.500 M 200 199.500 C 200 199.775, 200.225 200, 200.500 200 C 200.775 200, 201 199.775, 201 199.500 C 201 199.225, 200.775 199, 200.500 199 C 200.225 199, 200 199.225, 200 199.500 M 226 199.500 C 226 199.775, 226.225 200, 226.500 200 C 226.775 200, 227 199.775, 227 199.500 C 227 199.225, 226.775 199, 226.500 199 C 226.225 199, 226 199.225, 226 199.500 M 233 199.500 C 233 199.775, 233.225 200, 233.500 200 C 233.775 200, 234 199.775, 234 199.500 C 234 199.225, 233.775 199, 233.500 199 C 233.225 199, 233 199.225, 233 199.500 M 236.500 200 C 236.160 200.550, 236.359 201, 236.941 201 C 237.523 201, 238 200.550, 238 200 C 238 199.450, 237.802 199, 237.559 199 C 237.316 199, 236.840 199.450, 236.500 200 M 247.158 201 C 247.158 202.375, 247.385 202.938, 247.662 202.250 C 247.940 201.563, 247.940 200.438, 247.662 199.750 C 247.385 199.063, 247.158 199.625, 247.158 201 M 186 201 C 186 201.733, 186.300 202.033, 186.667 201.667 C 187.033 201.300, 187.033 200.700, 186.667 200.333 C 186.300 199.967, 186 200.267, 186 201 M 209 200.500 C 209 200.775, 209.225 201, 209.500 201 C 209.775 201, 210 200.775, 210 200.500 C 210 200.225, 209.775 200, 209.500 200 C 209.225 200, 209 200.225, 209 200.500 M 214 201.500 C 214 201.775, 214.225 202, 214.500 202 C 214.775 202, 215 201.775, 215 201.500 C 215 201.225, 214.775 201, 214.500 201 C 214.225 201, 214 201.225, 214 201.500 M 264.405 202.155 C 263.962 202.870, 264.130 203.038, 264.845 202.595 C 265.480 202.203, 266 201.684, 266 201.441 C 266 200.607, 265.117 201.002, 264.405 202.155 M 176 202.500 C 176 202.775, 176.225 203, 176.500 203 C 176.775 203, 177 202.775, 177 202.500 C 177 202.225, 176.775 202, 176.500 202 C 176.225 202, 176 202.225, 176 202.500 M 179 202.500 C 179 202.775, 179.225 203, 179.500 203 C 179.775 203, 180 202.775, 180 202.500 C 180 202.225, 179.775 202, 179.500 202 C 179.225 202, 179 202.225, 179 202.500 M 236 204 C 236 204.733, 236.300 205.033, 236.667 204.667 C 237.033 204.300, 237.033 203.700, 236.667 203.333 C 236.300 202.967, 236 203.267, 236 204 M 261 203.500 C 261 203.775, 261.225 204, 261.500 204 C 261.775 204, 262 203.775, 262 203.500 C 262 203.225, 261.775 203, 261.500 203 C 261.225 203, 261 203.225, 261 203.500 M 159 204.500 C 159 204.775, 159.225 205, 159.500 205 C 159.775 205, 160 204.775, 160 204.500 C 160 204.225, 159.775 204, 159.500 204 C 159.225 204, 159 204.225, 159 204.500 M 177 205 C 177 205.733, 177.300 206.033, 177.667 205.667 C 178.033 205.300, 178.033 204.700, 177.667 204.333 C 177.300 203.967, 177 204.267, 177 205 M 259 204.500 C 259 204.775, 259.225 205, 259.500 205 C 259.775 205, 260 204.775, 260 204.500 C 260 204.225, 259.775 204, 259.500 204 C 259.225 204, 259 204.225, 259 204.500 M 100 255.716 L 100 261.432 94.500 256 C 90.464 252.015, 89 251.058, 89 252.407 C 89 253.927, 88.741 254.030, 87.500 253 C 86.188 251.911, 86 252.774, 86 259.909 C 86 266.463, 86.314 268.183, 87.601 268.677 C 89.967 269.585, 91.143 267.068, 90.654 262.144 L 90.222 257.787 95.611 263.109 C 99.301 266.754, 101 267.891, 101 266.716 C 101 264.729, 102.596 264.411, 103.338 266.250 C 103.615 266.938, 103.878 263.563, 103.921 258.750 C 103.994 250.640, 103.854 250, 102 250 C 100.233 250, 100 250.667, 100 255.716 M 111 251.500 C 111 252.325, 110.325 253, 109.500 253 C 107.267 253, 107.494 258.721, 109.750 259.311 C 111.417 259.746, 111.417 259.774, 109.750 259.884 C 107.464 260.035, 107.221 266, 109.500 266 C 110.325 266, 111 266.675, 111 267.500 C 111 268.690, 112.444 269, 118 269 C 124.800 269, 125 268.929, 125 266.500 C 125 264.090, 124.767 264, 118.500 264 C 113.389 264, 112 263.679, 112 262.500 C 112 261.367, 113.222 261, 117 261 C 121.333 261, 122 260.733, 122 259 C 122 257.267, 121.333 257, 117 257 C 113.222 257, 112 256.633, 112 255.500 C 112 254.321, 113.389 254, 118.500 254 C 124.333 254, 125 253.795, 125 252 C 125 250.190, 124.333 250, 118 250 C 112.444 250, 111 250.310, 111 251.500 M 132.380 254.418 C 134.371 256.848, 136 259.235, 136 259.722 C 136 260.209, 134.425 262.134, 132.500 264 C 128.390 267.984, 128.155 269, 131.345 269 C 134.224 269, 137 266.110, 137 263.112 C 137 261.880, 137.448 261.159, 138 261.500 C 138.550 261.840, 139 262.922, 139 263.904 C 139 266.273, 142.120 269, 144.829 269 C 147.841 269, 147.557 267.932, 143.500 264 C 141.575 262.134, 140 260.102, 140 259.484 C 140 258.866, 141.610 256.479, 143.578 254.180 L 147.156 250 144.438 250 C 141.537 250, 139.084 252.382, 139.032 255.250 C 138.989 257.598, 137 257.505, 137 255.155 C 137 252.694, 133.891 250, 131.051 250 C 128.862 250, 128.922 250.199, 132.380 254.418 M 151 252 C 151 253.619, 151.667 254, 154.500 254 L 158 254 158 261.500 C 158 268.333, 158.178 269, 160 269 C 161.822 269, 162 268.333, 162 261.500 L 162 254 165.500 254 C 168.333 254, 169 253.619, 169 252 C 169 250.333, 168.333 250, 165 250 C 162.111 250, 161 250.417, 161 251.500 C 161 252.325, 160.550 253, 160 253 C 159.450 253, 159 252.325, 159 251.500 C 159 250.417, 157.889 250, 155 250 C 151.667 250, 151 250.333, 151 252 M 186 252 C 186 253.549, 186.667 254, 188.956 254 L 191.912 254 192.206 261.239 C 192.445 267.123, 192.819 268.540, 194.205 268.804 C 195.665 269.083, 195.952 268.079, 196.205 261.815 L 196.500 254.500 199.750 254.187 C 202.190 253.951, 203 253.391, 203 251.937 C 203 250.350, 202.291 250, 199.073 250 C 196.175 250, 195.027 250.458, 194.689 251.750 C 194.254 253.417, 194.226 253.417, 194.116 251.750 C 194.026 250.394, 193.099 250, 190 250 C 186.667 250, 186 250.333, 186 252 M 209.923 252.923 C 206.614 256.232, 206.172 258.637, 208.750 259.311 C 210.417 259.746, 210.417 259.774, 208.750 259.884 C 204.610 260.158, 209.189 267.257, 214.340 268.549 C 217.656 269.382, 222.052 267.178, 223.964 263.725 C 225.327 261.262, 225.331 260.842, 224 259.990 C 223.002 259.352, 222.918 259.026, 223.750 259.015 C 226.090 258.987, 225.010 255.186, 221.923 252.589 C 217.756 249.082, 213.650 249.197, 209.923 252.923 M 242 253.950 C 242 256.658, 242.551 258.221, 243.750 258.920 C 245.402 259.882, 245.399 259.941, 243.693 259.970 C 242.188 259.995, 241.937 260.713, 242.193 264.250 C 242.444 267.731, 242.862 268.500, 244.500 268.500 C 246.103 268.500, 246.563 267.727, 246.819 264.609 L 247.138 260.719 251.444 264.945 C 254.404 267.850, 256.437 269.067, 257.946 268.836 C 260.036 268.516, 259.966 268.296, 256.493 264.250 C 254.367 261.774, 251.938 259.974, 250.672 259.937 C 248.574 259.875, 248.568 259.845, 250.500 259.034 C 251.600 258.572, 254.279 256.351, 256.453 254.097 L 260.406 250 257.453 250 C 255.277 250, 253.765 250.921, 251.707 253.500 C 248.181 257.920, 247 257.920, 247 253.500 C 247 250.433, 246.690 250, 244.500 250 C 242.255 250, 242 250.403, 242 253.950 M 264.212 259.239 C 264.457 267.107, 264.760 268.527, 266.250 268.812 C 267.818 269.112, 268 268.152, 268 259.573 C 268 250.608, 267.871 250, 265.962 250 C 264.039 250, 263.941 250.516, 264.212 259.239 M 275.758 251.976 C 272.531 254.514, 271.659 257.697, 273.843 258.972 C 275.361 259.858, 275.353 259.942, 273.750 259.970 C 271.622 260.007, 271.600 260.326, 273.483 263.966 C 275.265 267.413, 280.566 269.498, 284.106 268.145 C 288.496 266.466, 292.539 260.014, 289.219 259.985 C 287.846 259.972, 287.779 259.793, 288.885 259.092 C 291.065 257.712, 289.386 253.251, 286.035 251.518 C 282.061 249.463, 278.766 249.610, 275.758 251.976 M 294 252 C 294 253.619, 294.667 254, 297.500 254 L 301 254 301 261.500 C 301 268.333, 301.178 269, 303 269 C 304.822 269, 305 268.333, 305 261.500 L 305 254 308.500 254 C 311.333 254, 312 253.619, 312 252 C 312 250.333, 311.333 250, 308 250 C 305.111 250, 304 250.417, 304 251.500 C 304 252.325, 303.550 253, 303 253 C 302.450 253, 302 252.325, 302 251.500 C 302 250.417, 300.889 250, 298 250 C 294.667 250, 294 250.333, 294 252 M 319.077 252.589 C 315.990 255.186, 314.910 258.987, 317.250 259.015 C 318.082 259.026, 317.998 259.352, 317 259.990 C 315.669 260.842, 315.673 261.262, 317.036 263.725 C 320.208 269.454, 326.827 270.264, 331.586 265.505 C 334.430 262.661, 334.696 260.329, 332.250 259.689 C 330.583 259.254, 330.583 259.226, 332.250 259.116 C 337.169 258.790, 330.326 250, 325.154 250 C 323.385 250, 320.891 251.063, 319.077 252.589 M 101 256.882 C 101 260.182, 101.450 263.160, 102 263.500 C 102.624 263.886, 103 261.863, 103 258.118 C 103 254.818, 102.550 251.840, 102 251.500 C 101.376 251.114, 101 253.137, 101 256.882 M 112 252 C 112 252.556, 114.667 253, 118 253 C 121.333 253, 124 252.556, 124 252 C 124 251.444, 121.333 251, 118 251 C 114.667 251, 112 251.444, 112 252 M 132 251.690 C 132 252.240, 132.900 253.505, 134 254.500 C 135.100 255.495, 136 255.860, 136 255.310 C 136 254.760, 135.100 253.495, 134 252.500 C 132.900 251.505, 132 251.140, 132 251.690 M 141.035 252.934 C 139.731 255.372, 139.716 256.294, 140.995 255.503 C 142.601 254.511, 144.219 251, 143.070 251 C 142.520 251, 141.605 251.870, 141.035 252.934 M 153 252 C 153 252.550, 154.125 253, 155.500 253 C 156.875 253, 158 252.550, 158 252 C 158 251.450, 156.875 251, 155.500 251 C 154.125 251, 153 251.450, 153 252 M 162 252 C 162 252.550, 163.125 253, 164.500 253 C 165.875 253, 167 252.550, 167 252 C 167 251.450, 165.875 251, 164.500 251 C 163.125 251, 162 251.450, 162 252 M 187 252 C 187 252.550, 188.125 253, 189.500 253 C 190.875 253, 192 252.550, 192 252 C 192 251.450, 190.875 251, 189.500 251 C 188.125 251, 187 251.450, 187 252 M 196.500 252 C 196.139 252.583, 197.156 253, 198.941 253 C 200.623 253, 202 252.550, 202 252 C 202 251.450, 200.902 251, 199.559 251 C 198.216 251, 196.840 251.450, 196.500 252 M 211.635 253.073 C 210.186 254.212, 209 255.595, 209 256.145 C 209 256.695, 210.186 256.212, 211.635 255.073 C 214.960 252.457, 218.175 252.431, 220.500 255 C 222.649 257.375, 224.176 257.623, 223.347 255.463 C 222.701 253.779, 217.930 251, 215.685 251 C 214.906 251, 213.084 251.933, 211.635 253.073 M 244.232 254 C 244.232 255.925, 244.438 256.712, 244.689 255.750 C 244.941 254.787, 244.941 253.213, 244.689 252.250 C 244.438 251.287, 244.232 252.075, 244.232 254 M 252.898 254.250 L 250.659 257.500 253.830 254.563 C 257.248 251.396, 257.497 251, 256.068 251 C 255.556 251, 254.129 252.463, 252.898 254.250 M 265.667 251.667 C 264.583 252.750, 264.893 267, 266 267 C 266.583 267, 267 263.667, 267 259 C 267 250.976, 266.901 250.432, 265.667 251.667 M 278.465 251.952 C 276.070 252.923, 273.473 255.807, 274.274 256.607 C 274.582 256.915, 275.771 256.229, 276.917 255.083 C 279.549 252.451, 283.161 252.416, 285.500 255 C 287.649 257.375, 289.176 257.623, 288.347 255.463 C 287.775 253.971, 282.913 250.936, 281.300 251.063 C 280.860 251.098, 279.584 251.498, 278.465 251.952 M 296 252 C 296 252.550, 297.125 253, 298.500 253 C 299.875 253, 301 252.550, 301 252 C 301 251.450, 299.875 251, 298.500 251 C 297.125 251, 296 251.450, 296 252 M 305 252 C 305 252.550, 306.377 253, 308.059 253 C 309.844 253, 310.861 252.583, 310.500 252 C 310.160 251.450, 308.784 251, 307.441 251 C 306.098 251, 305 251.450, 305 252 M 320.869 252.510 C 319.421 253.296, 317.973 254.628, 317.650 255.470 C 316.823 257.624, 318.354 257.372, 320.500 255 C 322.825 252.431, 326.040 252.457, 329.365 255.073 C 330.814 256.212, 332 256.695, 332 256.145 C 332 254.693, 327.010 250.993, 325.115 251.040 C 324.227 251.062, 322.316 251.723, 320.869 252.510 M 90.886 255.750 C 91.411 256.712, 93.677 259.279, 95.921 261.453 C 101.347 266.712, 101.230 263.829, 95.792 258.288 C 91.436 253.849, 89.222 252.704, 90.886 255.750 M 109 255.441 C 109 256.298, 109.450 257, 110 257 C 110.550 257, 111 256.577, 111 256.059 C 111 255.541, 110.550 254.840, 110 254.500 C 109.450 254.160, 109 254.584, 109 255.441 M 159 260.500 C 159 264.167, 159.436 267, 160 267 C 160.564 267, 161 264.167, 161 260.500 C 161 256.833, 160.564 254, 160 254 C 159.436 254, 159 256.833, 159 260.500 M 194.328 260.500 C 194.333 264.350, 194.513 265.802, 194.730 263.728 C 194.946 261.653, 194.943 258.503, 194.722 256.728 C 194.501 254.952, 194.324 256.650, 194.328 260.500 M 213.250 254.662 C 210.644 255.714, 212.156 257, 216 257 C 220.041 257, 221.330 255.724, 218.418 254.607 C 216.618 253.916, 215.058 253.933, 213.250 254.662 M 278 255.500 C 276.922 256.799, 277.408 256.996, 281.628 256.968 C 286.129 256.939, 286.352 256.825, 284.559 255.468 C 282.071 253.587, 279.578 253.599, 278 255.500 M 302.667 254.667 C 301.595 255.738, 301.899 267, 303 267 C 303.564 267, 304 264.167, 304 260.500 C 304 253.954, 303.885 253.449, 302.667 254.667 M 322.250 254.662 C 319.644 255.714, 321.156 257, 325 257 C 329.041 257, 330.330 255.724, 327.418 254.607 C 325.618 253.916, 324.058 253.933, 322.250 254.662 M 88.310 261.500 C 88.315 264.800, 88.502 266.029, 88.725 264.232 C 88.947 262.435, 88.943 259.735, 88.715 258.232 C 88.486 256.729, 88.304 258.200, 88.310 261.500 M 113.750 259.706 C 114.987 259.944, 117.013 259.944, 118.250 259.706 C 119.487 259.467, 118.475 259.272, 116 259.272 C 113.525 259.272, 112.513 259.467, 113.750 259.706 M 137.333 259.667 C 137.700 260.033, 138.300 260.033, 138.667 259.667 C 139.033 259.300, 138.733 259, 138 259 C 137.267 259, 136.967 259.300, 137.333 259.667 M 213.250 259.716 C 214.762 259.945, 217.238 259.945, 218.750 259.716 C 220.262 259.487, 219.025 259.300, 216 259.300 C 212.975 259.300, 211.738 259.487, 213.250 259.716 M 247 259.500 C 247 259.775, 247.225 260, 247.500 260 C 247.775 260, 248 259.775, 248 259.500 C 248 259.225, 247.775 259, 247.500 259 C 247.225 259, 247 259.225, 247 259.500 M 278.250 259.716 C 279.762 259.945, 282.238 259.945, 283.750 259.716 C 285.262 259.487, 284.025 259.300, 281 259.300 C 277.975 259.300, 276.738 259.487, 278.250 259.716 M 322.250 259.716 C 323.762 259.945, 326.238 259.945, 327.750 259.716 C 329.262 259.487, 328.025 259.300, 325 259.300 C 321.975 259.300, 320.738 259.487, 322.250 259.716 M 109 262.441 C 109 263.298, 109.450 264, 110 264 C 110.550 264, 111 263.577, 111 263.059 C 111 262.541, 110.550 261.840, 110 261.500 C 109.450 261.160, 109 261.584, 109 262.441 M 209.022 262.193 C 208.993 264.404, 212.762 267, 216 267 C 219.144 267, 223 264.429, 223 262.333 C 223 261.189, 222.513 261.379, 221.156 263.056 C 218.591 266.223, 213.390 266.152, 210.902 262.917 C 209.433 261.005, 209.040 260.854, 209.022 262.193 M 212.250 262.250 C 212.479 262.938, 214.167 263.500, 216 263.500 C 217.833 263.500, 219.521 262.938, 219.750 262.250 C 220.039 261.383, 218.889 261, 216 261 C 213.111 261, 211.961 261.383, 212.250 262.250 M 244.232 264 C 244.232 265.925, 244.438 266.712, 244.689 265.750 C 244.941 264.788, 244.941 263.212, 244.689 262.250 C 244.438 261.288, 244.232 262.075, 244.232 264 M 251 261.639 C 251 262.925, 255.826 267.508, 256.486 266.848 C 256.757 266.576, 255.634 265.065, 253.990 263.490 C 252.345 261.915, 251 261.082, 251 261.639 M 274 261.872 C 274 263.829, 278.363 267, 281.054 267 C 283.817 267, 289 263.633, 289 261.839 C 289 261.280, 287.615 261.987, 285.923 263.411 C 284.231 264.835, 282.241 266, 281.500 266 C 280.759 266, 278.769 264.835, 277.077 263.411 C 275.385 261.987, 274 261.295, 274 261.872 M 278 262.500 C 278.685 263.325, 280.260 264, 281.500 264 C 282.740 264, 284.315 263.325, 285 262.500 C 286.077 261.203, 285.604 261, 281.500 261 C 277.396 261, 276.923 261.203, 278 262.500 M 318 262.333 C 318 264.429, 321.856 267, 325 267 C 328.238 267, 332.007 264.404, 331.978 262.193 C 331.960 260.854, 331.567 261.005, 330.098 262.917 C 327.610 266.152, 322.409 266.223, 319.844 263.056 C 318.487 261.379, 318 261.189, 318 262.333 M 321.250 262.250 C 321.479 262.938, 323.167 263.500, 325 263.500 C 326.833 263.500, 328.521 262.938, 328.750 262.250 C 329.039 261.383, 327.889 261, 325 261 C 322.111 261, 320.961 261.383, 321.250 262.250 M 133.506 264.994 C 132.507 266.097, 132.155 267, 132.723 267 C 133.981 267, 136.475 264.142, 135.803 263.470 C 135.538 263.205, 134.504 263.890, 133.506 264.994 M 140 263.723 C 140 264.981, 142.858 267.475, 143.530 266.803 C 143.795 266.538, 143.110 265.504, 142.006 264.506 C 140.903 263.507, 140 263.155, 140 263.723 M 114.750 266.723 C 116.537 266.945, 119.463 266.945, 121.250 266.723 C 123.037 266.502, 121.575 266.320, 118 266.320 C 114.425 266.320, 112.963 266.502, 114.750 266.723" stroke="none" fill="#54493e" fill-rule="evenodd"/><path d="M 187.378 16.975 C 186.895 17.432, 185.620 17.964, 184.544 18.158 C 183.440 18.357, 182.331 19.598, 182 21.005 C 181.489 23.170, 180.695 23.588, 175.993 24.167 C 171.090 24.770, 170.360 24.602, 168.319 22.400 C 166.367 20.292, 165.490 20.053, 161.782 20.611 C 155.991 21.483, 154.923 22.672, 157.905 24.925 L 160.310 26.743 156.704 27.933 C 154.045 28.810, 152.556 28.833, 151.034 28.018 C 148.854 26.851, 148.478 27.253, 147.800 31.472 C 147.587 32.801, 145.869 34.043, 142.524 35.285 C 138.053 36.945, 137.453 36.972, 136.422 35.563 C 135.794 34.703, 134.092 34, 132.640 34 C 130.272 34, 130 34.374, 130 37.625 C 130 41.119, 129.892 41.228, 127 40.650 C 124.894 40.229, 124 40.439, 124 41.353 C 124 42.594, 116.070 45, 111.980 45 C 110.954 45, 109.366 46.012, 108.453 47.250 C 107.341 48.757, 106.634 49.087, 106.313 48.250 C 106.049 47.562, 104.944 47, 103.858 47 C 102.771 47, 102.161 47.451, 102.501 48.002 C 103.301 49.296, 98.270 51.220, 95.983 50.495 C 94.805 50.121, 93.328 51.015, 91.484 53.219 C 89.973 55.024, 87.897 56.823, 86.869 57.218 C 85.841 57.613, 85 58.815, 85 59.890 C 85 60.965, 83.143 63.434, 80.873 65.377 C 78.603 67.319, 75.684 70.472, 74.386 72.383 C 73.087 74.294, 71.232 76.146, 70.262 76.499 C 67.228 77.605, 59.784 87.065, 60.324 89.130 C 60.593 90.159, 60.336 91, 59.753 91 C 58.332 91, 51 99.008, 51 100.559 C 51 101.234, 50.325 102.045, 49.500 102.362 C 48.675 102.678, 48 103.674, 48 104.574 C 48 105.474, 46.650 108.210, 45 110.655 C 43.350 113.100, 42 115.289, 42 115.520 C 42 115.752, 40.875 118.400, 39.500 121.406 C 38.125 124.412, 37 127.296, 37 127.813 C 37 128.331, 36.325 129.315, 35.500 130 C 34.675 130.685, 34 132.229, 34 133.431 C 34 134.634, 33.339 136.491, 32.532 137.559 C 31.724 138.626, 31.049 140.738, 31.032 142.250 C 31.014 143.762, 30.663 145, 30.250 145 C 29.837 145, 29.431 146.012, 29.346 147.250 C 29.261 148.488, 28.863 151.418, 28.462 153.762 C 27.884 157.143, 27.460 157.797, 26.411 156.926 C 24.451 155.299, 22.793 156.695, 24.134 158.842 C 24.934 160.125, 24.879 162.183, 23.925 166.546 C 23.210 169.821, 22.511 173.625, 22.372 175 C 22.233 176.375, 21.689 181.645, 21.164 186.711 C 20.639 191.777, 20.331 197.974, 20.479 200.482 C 20.664 203.607, 20.302 205.291, 19.328 205.836 C 18.191 206.473, 18.105 207.510, 18.896 211.033 C 19.499 213.715, 19.526 215.866, 18.966 216.541 C 18.461 217.149, 18.426 218.064, 18.888 218.574 C 19.601 219.359, 22 227.739, 22 229.443 C 22 229.749, 21.085 230, 19.966 230 C 18.368 230, 18.004 230.542, 18.270 232.526 C 18.456 233.916, 18.951 235.017, 19.370 234.975 C 21.289 234.779, 24.191 240.400, 24.634 245.174 C 24.898 248.013, 25.763 251.890, 26.557 253.790 C 27.351 255.690, 28 258.346, 28 259.694 C 28 261.041, 28.675 262.818, 29.500 263.643 C 30.325 264.468, 31 266.325, 31 267.770 C 31 270.356, 46.347 302.478, 48.100 303.562 C 48.595 303.868, 49 304.943, 49 305.952 C 49 306.961, 49.606 308.019, 50.346 308.303 C 51.658 308.806, 65 325.304, 65 326.423 C 65 328.744, 82.471 345.516, 90.088 350.507 C 92.612 352.160, 95.763 354.736, 97.089 356.230 C 98.415 357.724, 102.875 360.748, 107 362.949 C 111.125 365.151, 114.376 367.447, 114.225 368.052 C 114.062 368.701, 114.709 368.910, 115.806 368.562 C 117.253 368.102, 117.644 368.471, 117.581 370.236 C 117.513 372.146, 118.022 372.505, 120.839 372.533 C 122.929 372.554, 124.537 373.208, 125.138 374.283 C 125.667 375.227, 127.175 376, 128.491 376 C 129.806 376, 131.160 376.450, 131.500 377 C 131.840 377.550, 133.190 378, 134.500 378 C 135.810 378, 137.171 378.468, 137.525 379.041 C 137.879 379.613, 138.994 379.819, 140.004 379.499 C 141.261 379.100, 142.032 379.526, 142.453 380.853 C 143.026 382.657, 145.940 383.635, 152.500 384.225 C 153.600 384.324, 155.095 384.989, 155.821 385.702 C 156.548 386.416, 158.101 387, 159.271 387 C 160.927 387, 161.133 387.267, 160.200 388.200 C 158.540 389.860, 158.700 391, 160.594 391 C 161.470 391, 162.431 390.067, 162.730 388.926 C 163.166 387.255, 163.781 386.979, 165.884 387.507 C 169.269 388.357, 169.518 388.671, 168.130 390.343 C 167.238 391.418, 167.343 392.040, 168.592 393.076 C 169.953 394.206, 170.655 394.161, 173.047 392.788 C 175.378 391.450, 176.082 391.394, 176.980 392.476 C 178.128 393.859, 182.035 393.379, 183.132 391.720 C 183.486 391.185, 184.672 391.672, 185.826 392.826 C 188.263 395.263, 190.740 395.711, 206 396.475 C 218.560 397.104, 232.594 395.650, 235.023 393.469 C 236.041 392.555, 237.035 392.411, 238.023 393.035 C 240.558 394.639, 243.695 394.092, 245.230 391.780 C 246.624 389.681, 246.797 389.654, 248.423 391.280 C 250.344 393.201, 254.539 393.506, 258.474 392.010 C 260.538 391.225, 261.019 390.447, 260.789 388.260 C 260.556 386.034, 260.946 385.437, 262.805 385.173 C 264.073 384.994, 265.681 385.320, 266.379 385.899 C 267.821 387.096, 270 385.513, 270 383.269 C 270 381.091, 272.979 380.589, 274.396 382.527 C 276.039 384.774, 278 383.639, 278 380.441 C 278 377.910, 279.820 377.220, 281.655 379.055 C 283.197 380.597, 288 379.111, 288 377.092 C 288 375.314, 294.197 372.417, 297.097 372.841 C 297.975 372.969, 299.268 372.382, 299.969 371.537 C 300.671 370.692, 301.752 369.997, 302.372 369.994 C 302.993 369.990, 304.850 369.272, 306.500 368.397 C 308.150 367.523, 310.625 366.669, 312 366.499 C 317.010 365.882, 322.458 363.141, 327.166 358.869 C 329.814 356.466, 331.985 354.105, 331.990 353.622 C 332 352.777, 333.693 350.986, 349.774 334.815 C 353.775 330.792, 357.038 327.130, 357.024 326.679 C 357.011 326.227, 357.563 325.244, 358.250 324.494 C 358.938 323.744, 362.200 319.983, 365.500 316.135 C 368.800 312.287, 372.281 309.107, 373.237 309.069 C 376.012 308.959, 382.085 301.864, 381.518 299.395 C 381.222 298.105, 382.169 295.577, 383.967 292.864 C 386.700 288.737, 386.824 288.144, 385.795 284.090 C 384.988 280.912, 384.990 278.903, 385.802 276.621 C 386.414 274.905, 387.378 270.575, 387.945 267 C 389.057 259.996, 390.119 255.945, 391.878 252 C 393.241 248.945, 395.982 234.754, 396.857 226.229 C 397.211 222.781, 397.950 219.924, 398.500 219.881 C 399.050 219.838, 400.317 219.366, 401.315 218.832 C 402.756 218.060, 402.885 217.567, 401.942 216.430 C 401.289 215.644, 400.171 215, 399.457 215 C 398.743 215, 397.850 213.594, 397.473 211.875 C 396.763 208.646, 397.909 207.063, 401 207 C 402.108 206.977, 402.178 206.765, 401.268 206.187 C 400.590 205.756, 399.547 201.885, 398.948 197.584 C 398.350 193.283, 397.442 188.663, 396.930 187.317 C 395.726 184.150, 395.675 184.318, 398.040 183.700 C 399.688 183.269, 399.951 182.654, 399.410 180.499 C 399.042 179.032, 397.714 176.805, 396.459 175.550 C 394.848 173.939, 393.973 171.539, 393.483 167.384 C 393.101 164.148, 392.161 160.503, 391.394 159.285 C 390.627 158.067, 390 156.601, 390 156.027 C 390 154.433, 393.927 157.195, 394.579 159.248 C 395.386 161.791, 397 161.396, 397 158.655 C 397 156.243, 394.831 153.776, 391.750 152.683 C 390.788 152.342, 390 151.226, 390 150.204 C 390 149.181, 387.032 142.812, 383.405 136.049 C 379.778 129.286, 376.321 122.346, 375.723 120.627 C 373.951 115.527, 368.498 106.913, 362.983 100.500 C 360.145 97.200, 355.974 91.806, 353.714 88.514 C 351.454 85.222, 346.432 79.450, 342.553 75.688 C 332.442 65.880, 331.419 65, 330.145 65 C 327.993 65, 328.995 63.218, 331.500 62.589 C 332.875 62.244, 334 61.295, 334 60.481 C 334 58.430, 332.644 58.631, 330.500 61 C 329.505 62.100, 328.422 62.993, 328.095 62.985 C 327.768 62.976, 325.025 60.700, 322 57.927 C 318.975 55.154, 313.462 51.475, 309.750 49.751 C 306.038 48.028, 302.992 46.141, 302.983 45.559 C 302.973 44.976, 301.826 43.419, 300.434 42.098 C 298.603 40.361, 297.601 39.999, 296.810 40.790 C 296.018 41.582, 294.516 40.725, 291.375 37.692 C 288.987 35.386, 287.026 33.027, 287.017 32.450 C 286.990 30.738, 284.861 29.116, 283.385 29.682 C 282.487 30.027, 282.206 31.121, 282.569 32.854 C 283.077 35.274, 282.795 35.136, 279.274 31.238 C 276.481 28.145, 275.123 27.277, 274.328 28.072 C 272.517 29.883, 268.448 28.804, 268.825 26.614 C 269.079 25.139, 268.697 24.846, 267.075 25.270 C 265.720 25.624, 265 25.337, 265 24.442 C 265 22.430, 261.602 20.951, 257.911 21.355 C 253.803 21.805, 248.939 19.996, 249.256 18.137 C 249.390 17.351, 248.938 16.511, 248.250 16.270 C 247.563 16.030, 247 16.525, 247 17.371 C 247 18.946, 240.970 20.717, 239.243 19.650 C 238.756 19.349, 237.079 19.765, 235.518 20.575 C 232.912 21.927, 232.504 21.883, 230.544 20.041 C 228.774 18.379, 226.534 17.935, 217.454 17.450 C 200.953 16.567, 199.814 16.568, 195.591 17.458 C 193.113 17.981, 191.055 17.891, 189.969 17.213 C 189.027 16.625, 187.861 16.517, 187.378 16.975 M 141 30.941 C 141 32.903, 142.691 34.643, 143.658 33.675 C 144.443 32.890, 143.008 29, 141.933 29 C 141.420 29, 141 29.873, 141 30.941 M 115.638 40.500 C 115.955 41.325, 116.616 42, 117.107 42 C 117.598 42, 118 41.325, 118 40.500 C 118 39.675, 117.339 39, 116.531 39 C 115.637 39, 115.288 39.586, 115.638 40.500 M 41.070 106.869 C 39.914 109.029, 40.579 110.099, 42.598 109.324 C 44.166 108.722, 44.543 105, 43.035 105 C 42.505 105, 41.620 105.841, 41.070 106.869 M 35 120.500 C 34.477 121.875, 33.557 123, 32.955 123 C 31.598 123, 32.115 127.217, 33.529 127.681 C 34.865 128.120, 38 122.802, 38 120.096 C 38 117.212, 36.156 117.460, 35 120.500 M 223.638 146.500 C 223.322 147.325, 222.389 148, 221.567 148 C 220.744 148, 219.587 148.904, 218.995 150.009 C 218.192 151.511, 217.299 151.862, 215.460 151.401 C 213.438 150.893, 213 151.153, 213 152.860 C 213 154.387, 213.441 154.768, 214.664 154.299 C 215.783 153.869, 216.091 154.043, 215.605 154.830 C 214.589 156.474, 212.324 156.286, 211.638 154.500 C 210.783 152.270, 209 152.685, 209 155.115 C 209 157.131, 208.885 157.154, 206.546 155.622 C 204.271 154.132, 204.017 154.142, 203.076 155.757 C 202.510 156.729, 202.047 156.947, 202.030 156.250 C 201.986 154.416, 199 154.721, 199 156.559 C 199 157.418, 198.516 157.819, 197.923 157.453 C 197.210 157.012, 197.008 157.812, 197.325 159.824 C 197.712 162.278, 197.503 162.746, 196.238 162.261 C 195.324 161.910, 194.930 162.078, 195.292 162.663 C 195.633 163.215, 195.276 163.667, 194.499 163.667 C 193.722 163.667, 192.848 163.047, 192.558 162.290 C 192.169 161.278, 191.537 161.177, 190.168 161.910 C 188.880 162.599, 187.951 162.551, 187.153 161.753 C 186.519 161.119, 186 160.985, 186 161.455 C 186 161.925, 185.117 161.511, 184.037 160.534 C 182.958 159.557, 181.406 159.014, 180.588 159.328 C 179.582 159.714, 179.282 159.430, 179.658 158.449 C 180.027 157.486, 179.554 157, 178.246 157 C 176.658 157, 176.362 157.533, 176.717 159.750 C 177.076 161.993, 176.942 162.224, 175.992 161 C 175.020 159.749, 174.905 159.862, 175.300 161.675 C 175.645 163.260, 175.386 163.702, 174.346 163.303 C 173.479 162.970, 173.033 163.294, 173.209 164.127 C 173.378 164.923, 172.813 165.388, 171.864 165.232 C 170.964 165.085, 169.965 165.648, 169.645 166.482 C 168.958 168.272, 166 168.537, 166 166.809 C 166 164.917, 163.067 169.306, 163.032 171.250 C 163.014 172.213, 163.450 173, 164 173 C 164.550 173, 165 172.553, 165 172.006 C 165 171.460, 166.012 171.201, 167.250 171.432 C 168.488 171.663, 169.864 171.885, 170.309 171.926 C 170.754 171.967, 170.793 172.526, 170.395 173.170 C 169.909 173.957, 170.217 174.131, 171.336 173.701 C 172.251 173.350, 173 173.499, 173 174.031 C 173 174.564, 173.480 175, 174.067 175 C 174.680 175, 174.864 174.147, 174.500 173 C 174.136 171.853, 174.320 171, 174.933 171 C 175.520 171, 176 171.450, 176 172 C 176 172.550, 176.477 173, 177.059 173 C 177.641 173, 177.858 172.579, 177.540 172.064 C 177.181 171.483, 178.198 171.483, 180.224 172.064 C 182.019 172.579, 183.570 173, 183.672 173 C 183.774 173, 184.561 172.296, 185.421 171.436 C 186.281 170.576, 187.488 170.184, 188.104 170.564 C 188.798 170.993, 188.017 172.020, 186.049 173.266 C 183.677 174.768, 182.588 174.988, 181.738 174.138 C 179.893 172.293, 179.002 172.831, 179.897 175.250 C 180.355 176.488, 181.353 177.502, 182.115 177.505 C 182.907 177.508, 183.500 178.532, 183.500 179.899 C 183.500 181.334, 184.299 182.633, 185.500 183.152 C 187.026 183.811, 186.698 183.931, 184.116 183.661 C 181.584 183.396, 180.621 183.733, 180.290 185 C 179.993 186.136, 179.113 186.553, 177.619 186.267 C 174.631 185.696, 168.500 187.352, 168.500 188.730 C 168.500 190.443, 167.390 191.192, 162.084 193.060 C 159.377 194.014, 155.101 194.707, 152.581 194.602 C 150.062 194.497, 148.015 194.655, 148.033 194.955 C 148.052 195.255, 148.995 196.616, 150.129 197.979 C 151.999 200.227, 152.305 200.304, 153.400 198.806 C 154.522 197.272, 154.695 197.273, 155.841 198.827 C 156.519 199.747, 156.806 199.938, 156.478 199.250 C 156.130 198.519, 156.554 198, 157.500 198 C 158.390 198, 158.840 197.550, 158.500 197 C 158.160 196.450, 158.407 196, 159.048 196 C 159.689 196, 159.982 196.603, 159.700 197.341 C 159.417 198.078, 159.593 199.316, 160.093 200.091 C 160.866 201.292, 161.145 201.279, 161.985 200 C 162.825 198.720, 162.972 198.760, 162.985 200.275 C 162.993 201.264, 161.875 202.477, 160.460 203.015 C 158.257 203.853, 158.069 204.260, 159.041 206.076 C 160.040 207.942, 161.500 207.982, 161.500 206.142 C 161.500 205.276, 165.611 200, 166.286 200 C 166.559 200, 167.088 201.214, 167.460 202.698 C 167.975 204.747, 168.346 205.058, 169.007 203.989 C 169.485 203.216, 171.070 202.519, 172.530 202.441 C 174.973 202.310, 175.153 202.565, 174.793 205.650 C 174.430 208.760, 174.606 209, 177.260 209 C 178.832 209, 179.859 208.581, 179.543 208.069 C 179.226 207.557, 179.432 206.851, 180 206.500 C 180.568 206.149, 180.755 205.413, 180.416 204.864 C 180.071 204.305, 180.613 204.006, 181.650 204.183 C 182.718 204.366, 183.394 203.972, 183.250 203.250 C 182.870 201.351, 183.799 201.755, 185.008 204.014 C 185.601 205.122, 185.729 205.969, 185.293 205.896 C 183.407 205.580, 182 206.077, 182 207.059 C 182 207.655, 182.547 207.777, 183.250 207.340 C 183.938 206.912, 185.625 206.649, 187 206.756 C 188.375 206.862, 188.938 206.698, 188.250 206.391 C 186.296 205.519, 186.778 203.376, 189.300 201.723 C 191.264 200.436, 191.959 200.414, 194.050 201.572 C 195.398 202.319, 196.133 202.945, 195.684 202.965 C 195.236 202.984, 193.998 202.534, 192.934 201.965 C 190.777 200.811, 190.155 202.354, 192.250 203.663 C 194.558 205.105, 196 204.838, 197.505 202.690 L 199 200.555 199 202.893 C 199 205.156, 199.079 205.178, 201.500 203.592 C 203.228 202.460, 204 202.329, 204 203.168 C 204 203.836, 204.606 203.553, 205.347 202.540 C 206.281 201.263, 206.913 201.051, 207.406 201.849 C 207.798 202.482, 207.641 203, 207.059 203 C 206.477 203, 206.015 203.787, 206.033 204.750 C 206.062 206.237, 206.353 206.157, 207.972 204.215 C 209.431 202.466, 210.489 202.085, 212.491 202.587 C 214.673 203.135, 215.021 203.678, 214.598 205.872 C 212.908 214.616, 211.820 224.153, 212.440 224.774 C 213.853 226.187, 216 221.548, 216.011 217.059 C 216.026 210.862, 217.080 204.931, 218.059 205.536 C 219.487 206.419, 220.210 203.958, 218.964 202.456 C 217.958 201.245, 218.191 201, 220.346 201 C 222.238 201, 222.782 201.405, 222.362 202.500 C 221.604 204.475, 222.975 204.399, 226.027 202.298 C 228.356 200.695, 228.420 200.695, 227.128 202.298 C 225.941 203.770, 225.982 204, 227.437 204 C 228.432 204, 228.833 204.461, 228.420 205.130 C 227.994 205.819, 228.263 206.069, 229.111 205.769 C 229.875 205.500, 230.387 204.284, 230.249 203.066 C 229.914 200.119, 233.117 200.640, 234.487 203.756 C 235.562 206.199, 238.856 206.744, 240.800 204.800 C 241.733 203.867, 242 203.867, 242 204.800 C 242 205.460, 242.450 206, 243 206 C 243.550 206, 244 205.403, 244 204.673 C 244 203.768, 244.953 203.486, 247 203.787 C 249.399 204.139, 250.016 203.854, 250.079 202.363 C 250.124 201.310, 250.377 201.044, 250.662 201.750 C 250.940 202.438, 252.465 203, 254.052 203 C 256.199 203, 256.791 203.382, 256.365 204.492 C 255.603 206.478, 258.614 207.565, 260.513 205.989 C 261.693 205.010, 262.310 205.012, 263.500 206 C 264.724 207.016, 265 206.959, 265 205.690 C 265 204.835, 265.877 203.856, 266.949 203.516 C 269.241 202.789, 268.786 200.867, 265.330 196.673 C 262.689 193.470, 262.157 191.055, 264.524 193.020 C 265.362 193.716, 266.150 194.108, 266.274 193.893 C 266.398 193.677, 266.982 192.627, 267.571 191.560 C 268.161 190.492, 269.286 189.445, 270.071 189.233 C 271.252 188.915, 271.245 189.025, 270.029 189.869 C 268.147 191.176, 269.070 192.195, 271.029 190.974 C 273.074 189.699, 271.072 186.614, 267.898 186.149 C 266.579 185.956, 265.169 185.281, 264.765 184.649 C 264.241 183.829, 264.026 183.874, 264.015 184.809 C 264.007 185.529, 263.550 185.840, 263 185.500 C 260.840 184.165, 262.131 182.066, 265.500 181.434 C 269.038 180.770, 270.484 178.899, 267.250 179.170 C 263.633 179.473, 262 178.954, 262 177.500 C 262 176.675, 261.550 176, 261 176 C 260.450 176, 260 176.637, 260 177.414 C 260 178.513, 258.438 178.795, 253 178.679 C 249.150 178.596, 246 178.185, 246 177.764 C 246 177.344, 246.450 177, 247 177 C 248.911 177, 247.986 174.951, 245.579 173.854 C 244.155 173.205, 243.376 172.185, 243.686 171.376 C 243.999 170.560, 243.560 170, 242.607 170 C 241.723 170, 241 169.561, 241 169.025 C 241 168.391, 241.898 168.391, 243.565 169.025 C 247.390 170.479, 248.154 170.223, 246.758 167.957 C 246.066 166.832, 244.770 166.101, 243.877 166.330 C 242.682 166.636, 242.355 166.185, 242.638 164.623 C 242.849 163.455, 242.755 163.063, 242.428 163.750 C 242.101 164.438, 240.746 165, 239.417 165 C 238.088 165, 237 165.408, 237 165.906 C 237 167.216, 233.228 166.037, 232.657 164.548 C 232.313 163.651, 233.306 163.357, 236.145 163.518 C 239.460 163.705, 240.004 163.474, 239.444 162.121 C 239.075 161.229, 238.664 159.825, 238.530 159 C 238.396 158.175, 238.482 158.068, 238.719 158.762 C 238.957 159.456, 239.602 159.746, 240.152 159.406 C 240.703 159.066, 242.036 159.735, 243.116 160.894 C 245.065 162.986, 246.222 163.416, 248.894 163.042 C 249.660 162.934, 250.560 163.218, 250.894 163.673 C 251.227 164.128, 252.512 165.066, 253.750 165.758 C 255.645 166.818, 256 166.779, 256 165.508 C 256 164.667, 255.116 164, 254 164 C 252.900 164, 252 163.582, 252 163.071 C 252 162.561, 251.277 161.420, 250.394 160.537 C 249.075 159.218, 248.513 159.159, 247.250 160.208 C 245.912 161.318, 245.814 161.161, 246.500 159 C 247.184 156.846, 247.085 156.684, 245.761 157.783 C 244.507 158.824, 244.125 158.768, 243.628 157.474 C 243.279 156.564, 243.441 156.155, 244.011 156.507 C 244.555 156.843, 245 156.684, 245 156.153 C 245 155.622, 245.900 155.423, 247 155.710 C 248.391 156.074, 249 155.741, 249 154.617 C 249 153.727, 249.034 152.674, 249.075 152.275 C 249.116 151.876, 248.619 151.373, 247.970 151.157 C 247.194 150.898, 247.011 151.460, 247.436 152.799 C 247.976 154.501, 247.734 154.743, 245.957 154.278 C 244.339 153.855, 244.150 153.517, 245.165 152.861 C 246.268 152.149, 246.255 151.843, 245.091 151.093 C 244.316 150.593, 243.124 150.399, 242.442 150.661 C 241.760 150.922, 240.901 150.648, 240.532 150.052 C 240.163 149.455, 239.443 149.226, 238.931 149.543 C 238.419 149.859, 238 149.716, 238 149.226 C 238 148.176, 234.728 147.987, 234 148.994 C 233.725 149.374, 232.075 149.963, 230.333 150.301 C 227.491 150.854, 227.061 150.613, 226.135 147.958 C 224.974 144.627, 224.470 144.333, 223.638 146.500 M 221 150 C 221 150.733, 221.300 151.033, 221.667 150.667 C 222.033 150.300, 222.033 149.700, 221.667 149.333 C 221.300 148.967, 221 149.267, 221 150 M 234.612 150.819 C 234.287 151.344, 234.579 151.754, 235.261 151.730 C 238.599 151.609, 240 152.133, 240 153.500 C 240 154.325, 240.466 155, 241.035 155 C 241.737 155, 241.726 154.356, 241 153 C 240.411 151.900, 239.532 151, 239.047 151 C 238.561 151, 237.497 150.744, 236.683 150.432 C 235.869 150.119, 234.937 150.294, 234.612 150.819 M 220.333 152.667 C 220.700 153.033, 221.300 153.033, 221.667 152.667 C 222.033 152.300, 221.733 152, 221 152 C 220.267 152, 219.967 152.300, 220.333 152.667 M 232 154 C 232 154.733, 232.300 155.033, 232.667 154.667 C 233.033 154.300, 233.033 153.700, 232.667 153.333 C 232.300 152.967, 232 153.267, 232 154 M 234 154.583 C 234 156.349, 236.153 156.042, 236.771 154.188 C 236.989 153.534, 236.454 153, 235.583 153 C 234.713 153, 234 153.713, 234 154.583 M 229.333 156.667 C 229.700 157.033, 230.300 157.033, 230.667 156.667 C 231.033 156.300, 230.733 156, 230 156 C 229.267 156, 228.967 156.300, 229.333 156.667 M 232 156.500 C 232 156.775, 232.225 157, 232.500 157 C 232.775 157, 233 156.775, 233 156.500 C 233 156.225, 232.775 156, 232.500 156 C 232.225 156, 232 156.225, 232 156.500 M 213 157.500 C 213 157.775, 213.225 158, 213.500 158 C 213.775 158, 214 157.775, 214 157.500 C 214 157.225, 213.775 157, 213.500 157 C 213.225 157, 213 157.225, 213 157.500 M 203 158.500 C 203 158.775, 203.225 159, 203.500 159 C 203.775 159, 204 158.775, 204 158.500 C 204 158.225, 203.775 158, 203.500 158 C 203.225 158, 203 158.225, 203 158.500 M 207 159.500 C 206.315 160.325, 204.460 161, 202.878 161 C 201.295 161, 200 161.498, 200 162.107 C 200 162.718, 200.728 162.935, 201.627 162.590 C 202.521 162.246, 203.834 162.447, 204.543 163.035 C 205.512 163.840, 205.999 163.580, 206.504 161.988 C 206.873 160.823, 208.149 159.478, 209.338 158.999 C 210.859 158.385, 211.018 158.108, 209.872 158.063 C 208.977 158.029, 207.685 158.675, 207 159.500 M 215 159.500 C 215 159.775, 215.225 160, 215.500 160 C 215.775 160, 216 159.775, 216 159.500 C 216 159.225, 215.775 159, 215.500 159 C 215.225 159, 215 159.225, 215 159.500 M 181 161 C 181 161.733, 181.300 162.033, 181.667 161.667 C 182.033 161.300, 182.033 160.700, 181.667 160.333 C 181.300 159.967, 181 160.267, 181 161 M 235.333 160.667 C 235.700 161.033, 236.300 161.033, 236.667 160.667 C 237.033 160.300, 236.733 160, 236 160 C 235.267 160, 234.967 160.300, 235.333 160.667 M 207.188 163.063 C 207.428 163.784, 208.216 164.572, 208.938 164.813 C 209.688 165.063, 210.063 164.688, 209.813 163.938 C 209.572 163.216, 208.784 162.428, 208.063 162.188 C 207.313 161.938, 206.938 162.313, 207.188 163.063 M 229.500 164 C 229.840 164.550, 230.343 165, 230.618 165 C 230.893 165, 230.840 164.550, 230.500 164 C 230.160 163.450, 229.657 163, 229.382 163 C 229.107 163, 229.160 163.450, 229.500 164 M 200 166.500 C 200 166.775, 200.225 167, 200.500 167 C 200.775 167, 201 166.775, 201 166.500 C 201 166.225, 200.775 166, 200.500 166 C 200.225 166, 200 166.225, 200 166.500 M 196 168.500 C 196 168.775, 196.225 169, 196.500 169 C 196.775 169, 197 168.775, 197 168.500 C 197 168.225, 196.775 168, 196.500 168 C 196.225 168, 196 168.225, 196 168.500 M 236.636 169.506 C 236.321 170.328, 236.472 171, 236.972 171 C 238.328 171, 239.170 169.223, 238.121 168.575 C 237.620 168.265, 236.952 168.684, 236.636 169.506 M 201 169.500 C 201 169.775, 201.225 170, 201.500 170 C 201.775 170, 202 169.775, 202 169.500 C 202 169.225, 201.775 169, 201.500 169 C 201.225 169, 201 169.225, 201 169.500 M 216.079 171.583 C 216.127 172.748, 216.364 172.985, 216.683 172.188 C 216.972 171.466, 216.936 170.603, 216.604 170.271 C 216.272 169.939, 216.036 170.529, 216.079 171.583 M 231 170.500 C 231 170.775, 231.225 171, 231.500 171 C 231.775 171, 232 170.775, 232 170.500 C 232 170.225, 231.775 170, 231.500 170 C 231.225 170, 231 170.225, 231 170.500 M 224 172.500 C 224 172.775, 224.225 173, 224.500 173 C 224.775 173, 225 172.775, 225 172.500 C 225 172.225, 224.775 172, 224.500 172 C 224.225 172, 224 172.225, 224 172.500 M 187.598 173.736 C 186.525 174.809, 186.968 176, 188.441 176 C 189.234 176, 190.131 175.597, 190.435 175.105 C 191.071 174.075, 188.499 172.834, 187.598 173.736 M 236 174 C 236 174.733, 236.300 175.033, 236.667 174.667 C 237.033 174.300, 237.033 173.700, 236.667 173.333 C 236.300 172.967, 236 173.267, 236 174 M 240 173.500 C 240 173.775, 240.225 174, 240.500 174 C 240.775 174, 241 173.775, 241 173.500 C 241 173.225, 240.775 173, 240.500 173 C 240.225 173, 240 173.225, 240 173.500 M 244 176.500 C 244 176.775, 244.225 177, 244.500 177 C 244.775 177, 245 176.775, 245 176.500 C 245 176.225, 244.775 176, 244.500 176 C 244.225 176, 244 176.225, 244 176.500 M 209 178.500 C 209 178.775, 209.225 179, 209.500 179 C 209.775 179, 210 178.775, 210 178.500 C 210 178.225, 209.775 178, 209.500 178 C 209.225 178, 209 178.225, 209 178.500 M 235 178.500 C 235 178.775, 235.225 179, 235.500 179 C 235.775 179, 236 178.775, 236 178.500 C 236 178.225, 235.775 178, 235.500 178 C 235.225 178, 235 178.225, 235 178.500 M 185 179.500 C 185 179.775, 185.225 180, 185.500 180 C 185.775 180, 186 179.775, 186 179.500 C 186 179.225, 185.775 179, 185.500 179 C 185.225 179, 185 179.225, 185 179.500 M 187.333 179.667 C 187.700 180.033, 188.300 180.033, 188.667 179.667 C 189.033 179.300, 188.733 179, 188 179 C 187.267 179, 186.967 179.300, 187.333 179.667 M 193.667 182.667 C 192.742 183.591, 192.829 186, 193.787 186 C 194.220 186, 194.642 185.100, 194.725 184 C 194.887 181.851, 194.708 181.625, 193.667 182.667 M 205 182.500 C 205 182.775, 205.225 183, 205.500 183 C 205.775 183, 206 182.775, 206 182.500 C 206 182.225, 205.775 182, 205.500 182 C 205.225 182, 205 182.225, 205 182.500 M 212 183 C 212 183.733, 212.300 184.033, 212.667 183.667 C 213.033 183.300, 213.033 182.700, 212.667 182.333 C 212.300 181.967, 212 182.267, 212 183 M 234 182.500 C 234 182.775, 234.225 183, 234.500 183 C 234.775 183, 235 182.775, 235 182.500 C 235 182.225, 234.775 182, 234.500 182 C 234.225 182, 234 182.225, 234 182.500 M 196 183.500 C 196 183.775, 196.225 184, 196.500 184 C 196.775 184, 197 183.775, 197 183.500 C 197 183.225, 196.775 183, 196.500 183 C 196.225 183, 196 183.225, 196 183.500 M 216.333 185.667 C 216.700 186.033, 217.300 186.033, 217.667 185.667 C 218.033 185.300, 217.733 185, 217 185 C 216.267 185, 215.967 185.300, 216.333 185.667 M 227 186 C 227 186.733, 227.300 187.033, 227.667 186.667 C 228.033 186.300, 228.033 185.700, 227.667 185.333 C 227.300 184.967, 227 185.267, 227 186 M 202 186.500 C 202 186.775, 202.225 187, 202.500 187 C 202.775 187, 203 186.775, 203 186.500 C 203 186.225, 202.775 186, 202.500 186 C 202.225 186, 202 186.225, 202 186.500 M 211 186.500 C 211 186.775, 211.225 187, 211.500 187 C 211.775 187, 212 186.775, 212 186.500 C 212 186.225, 211.775 186, 211.500 186 C 211.225 186, 211 186.225, 211 186.500 M 196.333 187.667 C 196.700 188.033, 197.300 188.033, 197.667 187.667 C 198.033 187.300, 197.733 187, 197 187 C 196.267 187, 195.967 187.300, 196.333 187.667 M 170 188.500 C 170 188.775, 170.225 189, 170.500 189 C 170.775 189, 171 188.775, 171 188.500 C 171 188.225, 170.775 188, 170.500 188 C 170.225 188, 170 188.225, 170 188.500 M 172 188.500 C 172 188.775, 172.225 189, 172.500 189 C 172.775 189, 173 188.775, 173 188.500 C 173 188.225, 172.775 188, 172.500 188 C 172.225 188, 172 188.225, 172 188.500 M 189.333 188.667 C 189.700 189.033, 190.300 189.033, 190.667 188.667 C 191.033 188.300, 190.733 188, 190 188 C 189.267 188, 188.967 188.300, 189.333 188.667 M 218 188.500 C 218 188.775, 218.225 189, 218.500 189 C 218.775 189, 219 188.775, 219 188.500 C 219 188.225, 218.775 188, 218.500 188 C 218.225 188, 218 188.225, 218 188.500 M 175 189.500 C 175 189.775, 175.225 190, 175.500 190 C 175.775 190, 176 189.775, 176 189.500 C 176 189.225, 175.775 189, 175.500 189 C 175.225 189, 175 189.225, 175 189.500 M 197.333 189.667 C 197.700 190.033, 198.300 190.033, 198.667 189.667 C 199.033 189.300, 198.733 189, 198 189 C 197.267 189, 196.967 189.300, 197.333 189.667 M 215.333 189.667 C 215.700 190.033, 216.300 190.033, 216.667 189.667 C 217.033 189.300, 216.733 189, 216 189 C 215.267 189, 214.967 189.300, 215.333 189.667 M 194.250 190.662 C 192.589 191.333, 192.648 193, 194.333 193 C 195.067 193, 195.667 192.325, 195.667 191.500 C 195.667 190.675, 195.629 190.036, 195.583 190.079 C 195.537 190.122, 194.938 190.385, 194.250 190.662 M 207 190.500 C 207 190.775, 207.225 191, 207.500 191 C 207.775 191, 208 190.775, 208 190.500 C 208 190.225, 207.775 190, 207.500 190 C 207.225 190, 207 190.225, 207 190.500 M 259.500 191 C 259.840 191.550, 260.541 192, 261.059 192 C 261.577 192, 262 191.550, 262 191 C 262 190.450, 261.298 190, 260.441 190 C 259.584 190, 259.160 190.450, 259.500 191 M 199.473 191.956 C 199.798 192.482, 200.803 192.629, 201.706 192.283 C 202.918 191.817, 203.187 192.071, 202.733 193.253 C 202.395 194.134, 202.715 195.348, 203.443 195.952 C 204.437 196.778, 204.920 196.651, 205.383 195.444 C 206.711 191.983, 206.060 191, 202.441 191 C 200.431 191, 199.139 191.416, 199.473 191.956 M 177 192.500 C 177 192.775, 177.225 193, 177.500 193 C 177.775 193, 178 192.775, 178 192.500 C 178 192.225, 177.775 192, 177.500 192 C 177.225 192, 177 192.225, 177 192.500 M 182 192.500 C 182 192.775, 182.225 193, 182.500 193 C 182.775 193, 183 192.775, 183 192.500 C 183 192.225, 182.775 192, 182.500 192 C 182.225 192, 182 192.225, 182 192.500 M 167 193.500 C 167 193.775, 167.225 194, 167.500 194 C 167.775 194, 168 193.775, 168 193.500 C 168 193.225, 167.775 193, 167.500 193 C 167.225 193, 167 193.225, 167 193.500 M 220 193.500 C 220 193.775, 220.225 194, 220.500 194 C 220.775 194, 221 193.775, 221 193.500 C 221 193.225, 220.775 193, 220.500 193 C 220.225 193, 220 193.225, 220 193.500 M 223 193.393 C 223 193.609, 223.698 194.054, 224.552 194.382 C 225.442 194.723, 225.843 194.555, 225.493 193.989 C 224.906 193.038, 223 192.583, 223 193.393 M 251 193.500 C 251 193.775, 251.225 194, 251.500 194 C 251.775 194, 252 193.775, 252 193.500 C 252 193.225, 251.775 193, 251.500 193 C 251.225 193, 251 193.225, 251 193.500 M 255 194 C 255 194.733, 255.300 195.033, 255.667 194.667 C 256.033 194.300, 256.033 193.700, 255.667 193.333 C 255.300 192.967, 255 193.267, 255 194 M 197.500 195 C 197.840 195.550, 198.541 196, 199.059 196 C 199.577 196, 200 195.550, 200 195 C 200 194.450, 199.298 194, 198.441 194 C 197.584 194, 197.160 194.450, 197.500 195 M 259.333 194.667 C 259.700 195.033, 260.300 195.033, 260.667 194.667 C 261.033 194.300, 260.733 194, 260 194 C 259.267 194, 258.967 194.300, 259.333 194.667 M 163.333 195.667 C 163.700 196.033, 164.300 196.033, 164.667 195.667 C 165.033 195.300, 164.733 195, 164 195 C 163.267 195, 162.967 195.300, 163.333 195.667 M 193 195.500 C 193 195.775, 193.225 196, 193.500 196 C 193.775 196, 194 195.775, 194 195.500 C 194 195.225, 193.775 195, 193.500 195 C 193.225 195, 193 195.225, 193 195.500 M 209 195.500 C 209 195.775, 209.225 196, 209.500 196 C 209.775 196, 210 195.775, 210 195.500 C 210 195.225, 209.775 195, 209.500 195 C 209.225 195, 209 195.225, 209 195.500 M 237 195.500 C 237 195.775, 237.225 196, 237.500 196 C 237.775 196, 238 195.775, 238 195.500 C 238 195.225, 237.775 195, 237.500 195 C 237.225 195, 237 195.225, 237 195.500 M 190 196.500 C 190 196.775, 190.225 197, 190.500 197 C 190.775 197, 191 196.775, 191 196.500 C 191 196.225, 190.775 196, 190.500 196 C 190.225 196, 190 196.225, 190 196.500 M 196 196.500 C 196 196.775, 196.225 197, 196.500 197 C 196.775 197, 197 196.775, 197 196.500 C 197 196.225, 196.775 196, 196.500 196 C 196.225 196, 196 196.225, 196 196.500 M 222 196.500 C 222 196.775, 222.225 197, 222.500 197 C 222.775 197, 223 196.775, 223 196.500 C 223 196.225, 222.775 196, 222.500 196 C 222.225 196, 222 196.225, 222 196.500 M 228 196.500 C 228 196.775, 228.225 197, 228.500 197 C 228.775 197, 229 196.775, 229 196.500 C 229 196.225, 228.775 196, 228.500 196 C 228.225 196, 228 196.225, 228 196.500 M 256 196.500 C 256 196.775, 256.225 197, 256.500 197 C 256.775 197, 257 196.775, 257 196.500 C 257 196.225, 256.775 196, 256.500 196 C 256.225 196, 256 196.225, 256 196.500 M 152 197.500 C 152 197.775, 152.225 198, 152.500 198 C 152.775 198, 153 197.775, 153 197.500 C 153 197.225, 152.775 197, 152.500 197 C 152.225 197, 152 197.225, 152 197.500 M 198 198 C 198 198.733, 198.300 199.033, 198.667 198.667 C 199.033 198.300, 199.033 197.700, 198.667 197.333 C 198.300 196.967, 198 197.267, 198 198 M 208 197.500 C 208 197.775, 208.225 198, 208.500 198 C 208.775 198, 209 197.775, 209 197.500 C 209 197.225, 208.775 197, 208.500 197 C 208.225 197, 208 197.225, 208 197.500 M 211 197.500 C 211 197.775, 211.225 198, 211.500 198 C 211.775 198, 212 197.775, 212 197.500 C 212 197.225, 211.775 197, 211.500 197 C 211.225 197, 211 197.225, 211 197.500 M 214.500 198 C 214.840 198.550, 215.343 199, 215.618 199 C 215.893 199, 215.840 198.550, 215.500 198 C 215.160 197.450, 214.657 197, 214.382 197 C 214.107 197, 214.160 197.450, 214.500 198 M 240.150 200 C 239.194 202.742, 239.293 202.999, 241.302 202.985 C 243.080 202.972, 243.214 202.787, 242 202.015 C 240.760 201.226, 240.718 200.709, 241.758 199.031 C 242.451 197.914, 242.607 197, 242.106 197 C 241.605 197, 240.725 198.350, 240.150 200 M 179.405 199.155 C 178.962 199.870, 179.130 200.038, 179.845 199.595 C 180.480 199.203, 181 198.684, 181 198.441 C 181 197.607, 180.117 198.002, 179.405 199.155 M 187 198.500 C 187 198.775, 187.225 199, 187.500 199 C 187.775 199, 188 198.775, 188 198.500 C 188 198.225, 187.775 198, 187.500 198 C 187.225 198, 187 198.225, 187 198.500 M 194.500 199 C 194.840 199.550, 195.316 200, 195.559 200 C 195.802 200, 196 199.550, 196 199 C 196 198.450, 195.523 198, 194.941 198 C 194.359 198, 194.160 198.450, 194.500 199 M 175 199.500 C 175 199.775, 175.225 200, 175.500 200 C 175.775 200, 176 199.775, 176 199.500 C 176 199.225, 175.775 199, 175.500 199 C 175.225 199, 175 199.225, 175 199.500 M 182 199.500 C 182 199.775, 182.225 200, 182.500 200 C 182.775 200, 183 199.775, 183 199.500 C 183 199.225, 182.775 199, 182.500 199 C 182.225 199, 182 199.225, 182 199.500 M 200 199.500 C 200 199.775, 200.225 200, 200.500 200 C 200.775 200, 201 199.775, 201 199.500 C 201 199.225, 200.775 199, 200.500 199 C 200.225 199, 200 199.225, 200 199.500 M 226 199.500 C 226 199.775, 226.225 200, 226.500 200 C 226.775 200, 227 199.775, 227 199.500 C 227 199.225, 226.775 199, 226.500 199 C 226.225 199, 226 199.225, 226 199.500 M 233 199.500 C 233 199.775, 233.225 200, 233.500 200 C 233.775 200, 234 199.775, 234 199.500 C 234 199.225, 233.775 199, 233.500 199 C 233.225 199, 233 199.225, 233 199.500 M 236.500 200 C 236.160 200.550, 236.359 201, 236.941 201 C 237.523 201, 238 200.550, 238 200 C 238 199.450, 237.802 199, 237.559 199 C 237.316 199, 236.840 199.450, 236.500 200 M 247.158 201 C 247.158 202.375, 247.385 202.938, 247.662 202.250 C 247.940 201.563, 247.940 200.438, 247.662 199.750 C 247.385 199.063, 247.158 199.625, 247.158 201 M 186 201 C 186 201.733, 186.300 202.033, 186.667 201.667 C 187.033 201.300, 187.033 200.700, 186.667 200.333 C 186.300 199.967, 186 200.267, 186 201 M 209 200.500 C 209 200.775, 209.225 201, 209.500 201 C 209.775 201, 210 200.775, 210 200.500 C 210 200.225, 209.775 200, 209.500 200 C 209.225 200, 209 200.225, 209 200.500 M 214 201.500 C 214 201.775, 214.225 202, 214.500 202 C 214.775 202, 215 201.775, 215 201.500 C 215 201.225, 214.775 201, 214.500 201 C 214.225 201, 214 201.225, 214 201.500 M 264.405 202.155 C 263.962 202.870, 264.130 203.038, 264.845 202.595 C 265.480 202.203, 266 201.684, 266 201.441 C 266 200.607, 265.117 201.002, 264.405 202.155 M 176 202.500 C 176 202.775, 176.225 203, 176.500 203 C 176.775 203, 177 202.775, 177 202.500 C 177 202.225, 176.775 202, 176.500 202 C 176.225 202, 176 202.225, 176 202.500 M 179 202.500 C 179 202.775, 179.225 203, 179.500 203 C 179.775 203, 180 202.775, 180 202.500 C 180 202.225, 179.775 202, 179.500 202 C 179.225 202, 179 202.225, 179 202.500 M 236 204 C 236 204.733, 236.300 205.033, 236.667 204.667 C 237.033 204.300, 237.033 203.700, 236.667 203.333 C 236.300 202.967, 236 203.267, 236 204 M 261 203.500 C 261 203.775, 261.225 204, 261.500 204 C 261.775 204, 262 203.775, 262 203.500 C 262 203.225, 261.775 203, 261.500 203 C 261.225 203, 261 203.225, 261 203.500 M 159 204.500 C 159 204.775, 159.225 205, 159.500 205 C 159.775 205, 160 204.775, 160 204.500 C 160 204.225, 159.775 204, 159.500 204 C 159.225 204, 159 204.225, 159 204.500 M 177 205 C 177 205.733, 177.300 206.033, 177.667 205.667 C 178.033 205.300, 178.033 204.700, 177.667 204.333 C 177.300 203.967, 177 204.267, 177 205 M 259 204.500 C 259 204.775, 259.225 205, 259.500 205 C 259.775 205, 260 204.775, 260 204.500 C 260 204.225, 259.775 204, 259.500 204 C 259.225 204, 259 204.225, 259 204.500 M 100 255.716 L 100 261.432 94.500 256 C 90.464 252.015, 89 251.058, 89 252.407 C 89 253.927, 88.741 254.030, 87.500 253 C 86.188 251.911, 86 252.774, 86 259.909 C 86 266.463, 86.314 268.183, 87.601 268.677 C 89.967 269.585, 91.143 267.068, 90.654 262.144 L 90.222 257.787 95.611 263.109 C 99.301 266.754, 101 267.891, 101 266.716 C 101 264.729, 102.596 264.411, 103.338 266.250 C 103.615 266.938, 103.878 263.563, 103.921 258.750 C 103.994 250.640, 103.854 250, 102 250 C 100.233 250, 100 250.667, 100 255.716 M 111 251.500 C 111 252.325, 110.325 253, 109.500 253 C 107.267 253, 107.494 258.721, 109.750 259.311 C 111.417 259.746, 111.417 259.774, 109.750 259.884 C 107.464 260.035, 107.221 266, 109.500 266 C 110.325 266, 111 266.675, 111 267.500 C 111 268.690, 112.444 269, 118 269 C 124.800 269, 125 268.929, 125 266.500 C 125 264.090, 124.767 264, 118.500 264 C 113.389 264, 112 263.679, 112 262.500 C 112 261.367, 113.222 261, 117 261 C 121.333 261, 122 260.733, 122 259 C 122 257.267, 121.333 257, 117 257 C 113.222 257, 112 256.633, 112 255.500 C 112 254.321, 113.389 254, 118.500 254 C 124.333 254, 125 253.795, 125 252 C 125 250.190, 124.333 250, 118 250 C 112.444 250, 111 250.310, 111 251.500 M 132.380 254.418 C 134.371 256.848, 136 259.235, 136 259.722 C 136 260.209, 134.425 262.134, 132.500 264 C 128.390 267.984, 128.155 269, 131.345 269 C 134.224 269, 137 266.110, 137 263.112 C 137 261.880, 137.448 261.159, 138 261.500 C 138.550 261.840, 139 262.922, 139 263.904 C 139 266.273, 142.120 269, 144.829 269 C 147.841 269, 147.557 267.932, 143.500 264 C 141.575 262.134, 140 260.102, 140 259.484 C 140 258.866, 141.610 256.479, 143.578 254.180 L 147.156 250 144.438 250 C 141.537 250, 139.084 252.382, 139.032 255.250 C 138.989 257.598, 137 257.505, 137 255.155 C 137 252.694, 133.891 250, 131.051 250 C 128.862 250, 128.922 250.199, 132.380 254.418 M 151 252 C 151 253.619, 151.667 254, 154.500 254 L 158 254 158 261.500 C 158 268.333, 158.178 269, 160 269 C 161.822 269, 162 268.333, 162 261.500 L 162 254 165.500 254 C 168.333 254, 169 253.619, 169 252 C 169 250.333, 168.333 250, 165 250 C 162.111 250, 161 250.417, 161 251.500 C 161 252.325, 160.550 253, 160 253 C 159.450 253, 159 252.325, 159 251.500 C 159 250.417, 157.889 250, 155 250 C 151.667 250, 151 250.333, 151 252 M 186 252 C 186 253.549, 186.667 254, 188.956 254 L 191.912 254 192.206 261.239 C 192.445 267.123, 192.819 268.540, 194.205 268.804 C 195.665 269.083, 195.952 268.079, 196.205 261.815 L 196.500 254.500 199.750 254.187 C 202.190 253.951, 203 253.391, 203 251.937 C 203 250.350, 202.291 250, 199.073 250 C 196.175 250, 195.027 250.458, 194.689 251.750 C 194.254 253.417, 194.226 253.417, 194.116 251.750 C 194.026 250.394, 193.099 250, 190 250 C 186.667 250, 186 250.333, 186 252 M 209.923 252.923 C 206.614 256.232, 206.172 258.637, 208.750 259.311 C 210.417 259.746, 210.417 259.774, 208.750 259.884 C 204.610 260.158, 209.189 267.257, 214.340 268.549 C 217.656 269.382, 222.052 267.178, 223.964 263.725 C 225.327 261.262, 225.331 260.842, 224 259.990 C 223.002 259.352, 222.918 259.026, 223.750 259.015 C 226.090 258.987, 225.010 255.186, 221.923 252.589 C 217.756 249.082, 213.650 249.197, 209.923 252.923 M 242 253.950 C 242 256.658, 242.551 258.221, 243.750 258.920 C 245.402 259.882, 245.399 259.941, 243.693 259.970 C 242.188 259.995, 241.937 260.713, 242.193 264.250 C 242.444 267.731, 242.862 268.500, 244.500 268.500 C 246.103 268.500, 246.563 267.727, 246.819 264.609 L 247.138 260.719 251.444 264.945 C 254.404 267.850, 256.437 269.067, 257.946 268.836 C 260.036 268.516, 259.966 268.296, 256.493 264.250 C 254.367 261.774, 251.938 259.974, 250.672 259.937 C 248.574 259.875, 248.568 259.845, 250.500 259.034 C 251.600 258.572, 254.279 256.351, 256.453 254.097 L 260.406 250 257.453 250 C 255.277 250, 253.765 250.921, 251.707 253.500 C 248.181 257.920, 247 257.920, 247 253.500 C 247 250.433, 246.690 250, 244.500 250 C 242.255 250, 242 250.403, 242 253.950 M 264.212 259.239 C 264.457 267.107, 264.760 268.527, 266.250 268.812 C 267.818 269.112, 268 268.152, 268 259.573 C 268 250.608, 267.871 250, 265.962 250 C 264.039 250, 263.941 250.516, 264.212 259.239 M 275.758 251.976 C 272.531 254.514, 271.659 257.697, 273.843 258.972 C 275.361 259.858, 275.353 259.942, 273.750 259.970 C 271.622 260.007, 271.600 260.326, 273.483 263.966 C 275.265 267.413, 280.566 269.498, 284.106 268.145 C 288.496 266.466, 292.539 260.014, 289.219 259.985 C 287.846 259.972, 287.779 259.793, 288.885 259.092 C 291.065 257.712, 289.386 253.251, 286.035 251.518 C 282.061 249.463, 278.766 249.610, 275.758 251.976 M 294 252 C 294 253.619, 294.667 254, 297.500 254 L 301 254 301 261.500 C 301 268.333, 301.178 269, 303 269 C 304.822 269, 305 268.333, 305 261.500 L 305 254 308.500 254 C 311.333 254, 312 253.619, 312 252 C 312 250.333, 311.333 250, 308 250 C 305.111 250, 304 250.417, 304 251.500 C 304 252.325, 303.550 253, 303 253 C 302.450 253, 302 252.325, 302 251.500 C 302 250.417, 300.889 250, 298 250 C 294.667 250, 294 250.333, 294 252 M 319.077 252.589 C 315.990 255.186, 314.910 258.987, 317.250 259.015 C 318.082 259.026, 317.998 259.352, 317 259.990 C 315.669 260.842, 315.673 261.262, 317.036 263.725 C 320.208 269.454, 326.827 270.264, 331.586 265.505 C 334.430 262.661, 334.696 260.329, 332.250 259.689 C 330.583 259.254, 330.583 259.226, 332.250 259.116 C 337.169 258.790, 330.326 250, 325.154 250 C 323.385 250, 320.891 251.063, 319.077 252.589 M 101 256.882 C 101 260.182, 101.450 263.160, 102 263.500 C 102.624 263.886, 103 261.863, 103 258.118 C 103 254.818, 102.550 251.840, 102 251.500 C 101.376 251.114, 101 253.137, 101 256.882 M 112 252 C 112 252.556, 114.667 253, 118 253 C 121.333 253, 124 252.556, 124 252 C 124 251.444, 121.333 251, 118 251 C 114.667 251, 112 251.444, 112 252 M 132 251.690 C 132 252.240, 132.900 253.505, 134 254.500 C 135.100 255.495, 136 255.860, 136 255.310 C 136 254.760, 135.100 253.495, 134 252.500 C 132.900 251.505, 132 251.140, 132 251.690 M 141.035 252.934 C 139.731 255.372, 139.716 256.294, 140.995 255.503 C 142.601 254.511, 144.219 251, 143.070 251 C 142.520 251, 141.605 251.870, 141.035 252.934 M 153 252 C 153 252.550, 154.125 253, 155.500 253 C 156.875 253, 158 252.550, 158 252 C 158 251.450, 156.875 251, 155.500 251 C 154.125 251, 153 251.450, 153 252 M 162 252 C 162 252.550, 163.125 253, 164.500 253 C 165.875 253, 167 252.550, 167 252 C 167 251.450, 165.875 251, 164.500 251 C 163.125 251, 162 251.450, 162 252 M 187 252 C 187 252.550, 188.125 253, 189.500 253 C 190.875 253, 192 252.550, 192 252 C 192 251.450, 190.875 251, 189.500 251 C 188.125 251, 187 251.450, 187 252 M 196.500 252 C 196.139 252.583, 197.156 253, 198.941 253 C 200.623 253, 202 252.550, 202 252 C 202 251.450, 200.902 251, 199.559 251 C 198.216 251, 196.840 251.450, 196.500 252 M 211.635 253.073 C 210.186 254.212, 209 255.595, 209 256.145 C 209 256.695, 210.186 256.212, 211.635 255.073 C 214.960 252.457, 218.175 252.431, 220.500 255 C 222.649 257.375, 224.176 257.623, 223.347 255.463 C 222.701 253.779, 217.930 251, 215.685 251 C 214.906 251, 213.084 251.933, 211.635 253.073 M 244.232 254 C 244.232 255.925, 244.438 256.712, 244.689 255.750 C 244.941 254.787, 244.941 253.213, 244.689 252.250 C 244.438 251.287, 244.232 252.075, 244.232 254 M 252.898 254.250 L 250.659 257.500 253.830 254.563 C 257.248 251.396, 257.497 251, 256.068 251 C 255.556 251, 254.129 252.463, 252.898 254.250 M 265.667 251.667 C 264.583 252.750, 264.893 267, 266 267 C 266.583 267, 267 263.667, 267 259 C 267 250.976, 266.901 250.432, 265.667 251.667 M 278.465 251.952 C 276.070 252.923, 273.473 255.807, 274.274 256.607 C 274.582 256.915, 275.771 256.229, 276.917 255.083 C 279.549 252.451, 283.161 252.416, 285.500 255 C 287.649 257.375, 289.176 257.623, 288.347 255.463 C 287.775 253.971, 282.913 250.936, 281.300 251.063 C 280.860 251.098, 279.584 251.498, 278.465 251.952 M 296 252 C 296 252.550, 297.125 253, 298.500 253 C 299.875 253, 301 252.550, 301 252 C 301 251.450, 299.875 251, 298.500 251 C 297.125 251, 296 251.450, 296 252 M 305 252 C 305 252.550, 306.377 253, 308.059 253 C 309.844 253, 310.861 252.583, 310.500 252 C 310.160 251.450, 308.784 251, 307.441 251 C 306.098 251, 305 251.450, 305 252 M 320.869 252.510 C 319.421 253.296, 317.973 254.628, 317.650 255.470 C 316.823 257.624, 318.354 257.372, 320.500 255 C 322.825 252.431, 326.040 252.457, 329.365 255.073 C 330.814 256.212, 332 256.695, 332 256.145 C 332 254.693, 327.010 250.993, 325.115 251.040 C 324.227 251.062, 322.316 251.723, 320.869 252.510 M 90.886 255.750 C 91.411 256.712, 93.677 259.279, 95.921 261.453 C 101.347 266.712, 101.230 263.829, 95.792 258.288 C 91.436 253.849, 89.222 252.704, 90.886 255.750 M 109 255.441 C 109 256.298, 109.450 257, 110 257 C 110.550 257, 111 256.577, 111 256.059 C 111 255.541, 110.550 254.840, 110 254.500 C 109.450 254.160, 109 254.584, 109 255.441 M 159 260.500 C 159 264.167, 159.436 267, 160 267 C 160.564 267, 161 264.167, 161 260.500 C 161 256.833, 160.564 254, 160 254 C 159.436 254, 159 256.833, 159 260.500 M 194.328 260.500 C 194.333 264.350, 194.513 265.802, 194.730 263.728 C 194.946 261.653, 194.943 258.503, 194.722 256.728 C 194.501 254.952, 194.324 256.650, 194.328 260.500 M 213.250 254.662 C 210.644 255.714, 212.156 257, 216 257 C 220.041 257, 221.330 255.724, 218.418 254.607 C 216.618 253.916, 215.058 253.933, 213.250 254.662 M 278 255.500 C 276.922 256.799, 277.408 256.996, 281.628 256.968 C 286.129 256.939, 286.352 256.825, 284.559 255.468 C 282.071 253.587, 279.578 253.599, 278 255.500 M 302.667 254.667 C 301.595 255.738, 301.899 267, 303 267 C 303.564 267, 304 264.167, 304 260.500 C 304 253.954, 303.885 253.449, 302.667 254.667 M 322.250 254.662 C 319.644 255.714, 321.156 257, 325 257 C 329.041 257, 330.330 255.724, 327.418 254.607 C 325.618 253.916, 324.058 253.933, 322.250 254.662 M 88.310 261.500 C 88.315 264.800, 88.502 266.029, 88.725 264.232 C 88.947 262.435, 88.943 259.735, 88.715 258.232 C 88.486 256.729, 88.304 258.200, 88.310 261.500 M 22.500 258 C 22.840 258.550, 23.316 259, 23.559 259 C 23.802 259, 24 258.550, 24 258 C 24 257.450, 23.523 257, 22.941 257 C 22.359 257, 22.160 257.450, 22.500 258 M 113.750 259.706 C 114.987 259.944, 117.013 259.944, 118.250 259.706 C 119.487 259.467, 118.475 259.272, 116 259.272 C 113.525 259.272, 112.513 259.467, 113.750 259.706 M 137.333 259.667 C 137.700 260.033, 138.300 260.033, 138.667 259.667 C 139.033 259.300, 138.733 259, 138 259 C 137.267 259, 136.967 259.300, 137.333 259.667 M 213.250 259.716 C 214.762 259.945, 217.238 259.945, 218.750 259.716 C 220.262 259.487, 219.025 259.300, 216 259.300 C 212.975 259.300, 211.738 259.487, 213.250 259.716 M 247 259.500 C 247 259.775, 247.225 260, 247.500 260 C 247.775 260, 248 259.775, 248 259.500 C 248 259.225, 247.775 259, 247.500 259 C 247.225 259, 247 259.225, 247 259.500 M 278.250 259.716 C 279.762 259.945, 282.238 259.945, 283.750 259.716 C 285.262 259.487, 284.025 259.300, 281 259.300 C 277.975 259.300, 276.738 259.487, 278.250 259.716 M 322.250 259.716 C 323.762 259.945, 326.238 259.945, 327.750 259.716 C 329.262 259.487, 328.025 259.300, 325 259.300 C 321.975 259.300, 320.738 259.487, 322.250 259.716 M 109 262.441 C 109 263.298, 109.450 264, 110 264 C 110.550 264, 111 263.577, 111 263.059 C 111 262.541, 110.550 261.840, 110 261.500 C 109.450 261.160, 109 261.584, 109 262.441 M 209.022 262.193 C 208.993 264.404, 212.762 267, 216 267 C 219.144 267, 223 264.429, 223 262.333 C 223 261.189, 222.513 261.379, 221.156 263.056 C 218.591 266.223, 213.390 266.152, 210.902 262.917 C 209.433 261.005, 209.040 260.854, 209.022 262.193 M 212.250 262.250 C 212.479 262.938, 214.167 263.500, 216 263.500 C 217.833 263.500, 219.521 262.938, 219.750 262.250 C 220.039 261.383, 218.889 261, 216 261 C 213.111 261, 211.961 261.383, 212.250 262.250 M 244.232 264 C 244.232 265.925, 244.438 266.712, 244.689 265.750 C 244.941 264.788, 244.941 263.212, 244.689 262.250 C 244.438 261.288, 244.232 262.075, 244.232 264 M 251 261.639 C 251 262.925, 255.826 267.508, 256.486 266.848 C 256.757 266.576, 255.634 265.065, 253.990 263.490 C 252.345 261.915, 251 261.082, 251 261.639 M 274 261.872 C 274 263.829, 278.363 267, 281.054 267 C 283.817 267, 289 263.633, 289 261.839 C 289 261.280, 287.615 261.987, 285.923 263.411 C 284.231 264.835, 282.241 266, 281.500 266 C 280.759 266, 278.769 264.835, 277.077 263.411 C 275.385 261.987, 274 261.295, 274 261.872 M 278 262.500 C 278.685 263.325, 280.260 264, 281.500 264 C 282.740 264, 284.315 263.325, 285 262.500 C 286.077 261.203, 285.604 261, 281.500 261 C 277.396 261, 276.923 261.203, 278 262.500 M 318 262.333 C 318 264.429, 321.856 267, 325 267 C 328.238 267, 332.007 264.404, 331.978 262.193 C 331.960 260.854, 331.567 261.005, 330.098 262.917 C 327.610 266.152, 322.409 266.223, 319.844 263.056 C 318.487 261.379, 318 261.189, 318 262.333 M 321.250 262.250 C 321.479 262.938, 323.167 263.500, 325 263.500 C 326.833 263.500, 328.521 262.938, 328.750 262.250 C 329.039 261.383, 327.889 261, 325 261 C 322.111 261, 320.961 261.383, 321.250 262.250 M 133.506 264.994 C 132.507 266.097, 132.155 267, 132.723 267 C 133.981 267, 136.475 264.142, 135.803 263.470 C 135.538 263.205, 134.504 263.890, 133.506 264.994 M 140 263.723 C 140 264.981, 142.858 267.475, 143.530 266.803 C 143.795 266.538, 143.110 265.504, 142.006 264.506 C 140.903 263.507, 140 263.155, 140 263.723 M 114.750 266.723 C 116.537 266.945, 119.463 266.945, 121.250 266.723 C 123.037 266.502, 121.575 266.320, 118 266.320 C 114.425 266.320, 112.963 266.502, 114.750 266.723 M 86 356.583 C 86 358.349, 88.153 358.042, 88.771 356.188 C 88.989 355.534, 88.454 355, 87.583 355 C 86.713 355, 86 355.712, 86 356.583 M 121 375.704 C 121 376.793, 124.059 381.281, 125.434 382.208 C 127.720 383.751, 128.360 380.960, 126.341 378.253 C 124.348 375.581, 121 373.983, 121 375.704 M 170.500 389 C 170.160 389.550, 170.359 390, 170.941 390 C 171.523 390, 172 389.550, 172 389 C 172 388.450, 171.802 388, 171.559 388 C 171.316 388, 170.840 388.450, 170.500 389 M 165 391.500 C 165 391.775, 165.225 392, 165.500 392 C 165.775 392, 166 391.775, 166 391.500 C 166 391.225, 165.775 391, 165.500 391 C 165.225 391, 165 391.225, 165 391.500 M 168 396 C 168 396.550, 168.450 397, 169 397 C 169.550 397, 170 396.550, 170 396 C 170 395.450, 169.550 395, 169 395 C 168.450 395, 168 395.450, 168 396" stroke="none" fill="#fbbc5d" fill-rule="evenodd"/></svg>